<svg width="150" height="178" viewBox="0 0 150 178" fill="none" xmlns="http://www.w3.org/2000/svg">
<path d="M149.414 164.414C150.195 163.633 150.195 162.367 149.414 161.586L136.686 148.858C135.905 148.077 134.639 148.077 133.858 148.858C133.077 149.639 133.077 150.905 133.858 151.686L145.172 163L133.858 174.314C133.077 175.095 133.077 176.361 133.858 177.142C134.639 177.923 135.905 177.923 136.686 177.142L149.414 164.414ZM0 -6.46929e-06L-6.25073e-06 143L3.99999 143L4 -6.29444e-06L0 -6.46929e-06ZM22 165L148 165L148 161L22 161L22 165ZM-6.25073e-06 143C-6.78183e-06 155.15 9.84972 165 22 165L22 161C12.0589 161 3.99999 152.941 3.99999 143L-6.25073e-06 143Z" fill="url(#paint0_linear_509_9738)"/>
<defs>
<linearGradient id="paint0_linear_509_9738" x1="274.764" y1="232" x2="-17.7092" y2="41.2141" gradientUnits="userSpaceOnUse">
<stop stop-color="#34FFD3"/>
<stop offset="0.71" stop-color="#00CCAB"/>
<stop offset="0.975" stop-color="#DEA5E3"/>
</linearGradient>
</defs>
</svg>
