<svg width="168" height="157" viewBox="0 0 168 157" fill="none" xmlns="http://www.w3.org/2000/svg">
<path d="M154.414 0.585786C153.633 -0.195262 152.367 -0.195262 151.586 0.585786L138.858 13.3137C138.077 14.0948 138.077 15.3611 138.858 16.1421C139.639 16.9232 140.905 16.9232 141.686 16.1421L153 4.82843L164.314 16.1421C165.095 16.9232 166.361 16.9232 167.142 16.1421C167.923 15.3611 167.923 14.0948 167.142 13.3137L154.414 0.585786ZM0 157L133 157V153L0 153L0 157ZM155 135L155 2L151 2L151 135H155ZM133 157C145.15 157 155 147.15 155 135H151C151 144.941 142.941 153 133 153V157Z" fill="url(#paint0_linear_509_9739)"/>
<defs>
<linearGradient id="paint0_linear_509_9739" x1="-14" y1="173.635" x2="137.666" y2="-69.0019" gradientUnits="userSpaceOnUse">
<stop stop-color="#34FFD3"/>
<stop offset="0.455547" stop-color="#00CCAB"/>
<stop offset="0.678986" stop-color="#DEA5E3"/>
</linearGradient>
</defs>
</svg>
