<svg width="23" height="23" viewBox="0 0 23 23" fill="none" xmlns="http://www.w3.org/2000/svg">
<path d="M16.5655 5.46499L6.36652 5.46499C6.13018 5.46909 5.90491 5.56586 5.73923 5.73445C5.57355 5.90303 5.48071 6.12995 5.48071 6.36632C5.48071 6.60269 5.57355 6.82961 5.73923 6.99819C5.90491 7.16678 6.13018 7.26355 6.36652 7.26765L14.3893 7.26765L5.72908 15.9278C5.56002 16.0969 5.46505 16.3262 5.46505 16.5653C5.46505 16.8044 5.56002 17.0337 5.72908 17.2027C5.89814 17.3718 6.12743 17.4667 6.36652 17.4667C6.6056 17.4667 6.83489 17.3718 7.00395 17.2027L15.6641 8.54252L15.6641 16.5653C15.6621 16.685 15.6838 16.8039 15.7282 16.915C15.7726 17.0262 15.8386 17.1274 15.9225 17.2128C16.0064 17.2982 16.1065 17.366 16.2169 17.4123C16.3273 17.4586 16.4458 17.4824 16.5655 17.4824C16.6852 17.4824 16.8037 17.4586 16.9141 17.4123C17.0245 17.366 17.1245 17.2982 17.2084 17.2128C17.2923 17.1274 17.3584 17.0262 17.4028 16.915C17.4471 16.8039 17.4689 16.685 17.4668 16.5653L17.4668 6.36632C17.4668 6.12728 17.3718 5.89805 17.2028 5.72902C17.0338 5.56 16.8045 5.46502 16.5655 5.46499Z" fill="#34FFD3"/>
</svg>
