<svg width="31" height="36" viewBox="0 0 31 36" fill="none" xmlns="http://www.w3.org/2000/svg">
<path fill-rule="evenodd" clip-rule="evenodd" d="M22.5455 2.8125C19.4325 2.8125 16.9091 5.33086 16.9091 8.4375C16.9091 11.5441 19.4325 14.0625 22.5455 14.0625C25.6584 14.0625 28.1818 11.5441 28.1818 8.4375C28.1818 5.33086 25.6584 2.8125 22.5455 2.8125ZM14.0909 8.4375C14.0909 3.77756 17.8761 0 22.5455 0C27.2148 0 31 3.77756 31 8.4375C31 13.0974 27.2148 16.875 22.5455 16.875C17.8761 16.875 14.0909 13.0974 14.0909 8.4375ZM12.1913 5.71904L10.888 6.2537C7.80608 7.51803 5.63636 10.5455 5.63636 14.0625V23.3438C5.63636 25.334 4.57095 26.3964 3.85145 27.1139C3.83905 27.1262 3.82675 27.1385 3.81456 27.1507C3.66304 27.3019 3.53001 27.4364 3.41465 27.5625H24.7672C24.6518 27.4364 24.5188 27.3019 24.3673 27.1507C24.3551 27.1385 24.3428 27.1262 24.3304 27.1139C23.6109 26.3964 22.5455 25.334 22.5455 23.3438V19.6099H25.3636V23.3438C25.3636 24.1317 25.6703 24.4736 26.36 25.1619C26.3722 25.1741 26.3845 25.1863 26.3969 25.1987C27.1164 25.9162 28.1818 26.9785 28.1818 28.9688V30.375H18.3182V31.7812C18.3182 34.1112 16.4256 36 14.0909 36C11.7562 36 9.86363 34.1112 9.86363 31.7812V30.375H0V28.9688C0 26.9785 1.06541 25.9162 1.78491 25.1987C1.79732 25.1863 1.80962 25.1741 1.82181 25.1619C2.51155 24.4736 2.81818 24.1317 2.81818 23.3438V14.0625C2.81818 9.36303 5.71739 5.33404 9.8165 3.65241L11.1198 3.11775L12.1913 5.71904ZM12.6818 30.375V31.7812C12.6818 32.5579 13.3127 33.1875 14.0909 33.1875C14.8691 33.1875 15.5 32.5579 15.5 31.7812V30.375H12.6818ZM23.9545 11.25H21.1364V5.625H23.9545V11.25Z" fill="white"/>
</svg>
