<svg width="41" height="41" viewBox="0 0 41 41" fill="none" xmlns="http://www.w3.org/2000/svg">
<path fill-rule="evenodd" clip-rule="evenodd" d="M27.2066 17.183C27.2066 17.183 26.6632 10.1666 19.3311 8.59152C26.6632 7.01641 27.2066 0 27.2066 0C27.2066 0 27.75 7.01641 35.0822 8.59152C27.75 10.1666 27.2066 17.183 27.2066 17.183ZM0 22.1949C13.3319 25.209 14.3192 38.6619 14.3192 38.6619C14.3192 38.6619 15.3065 25.209 28.6384 22.1949C15.3065 19.1807 14.3192 5.72778 14.3192 5.72778C14.3192 5.72778 13.3319 19.1807 0 22.1949ZM24.3428 31.5022C31.6749 33.0773 32.2183 40.0937 32.2183 40.0937C32.2183 40.0937 32.7617 33.0773 40.0939 31.5022C32.7617 29.927 32.2183 22.9106 32.2183 22.9106C32.2183 22.9106 31.6749 29.927 24.3428 31.5022Z" fill="url(#paint0_linear_394_1386)"/>
<defs>
<linearGradient id="paint0_linear_394_1386" x1="21.4918" y1="3.21429" x2="13.1447" y2="36.9074" gradientUnits="userSpaceOnUse">
<stop offset="0.0204917" stop-color="#00CCAB"/>
<stop offset="1" stop-color="#DEA5E3"/>
</linearGradient>
</defs>
</svg>
