<svg width="33" height="33" viewBox="0 0 33 33" fill="none" xmlns="http://www.w3.org/2000/svg">
<path fill-rule="evenodd" clip-rule="evenodd" d="M21.778 13.7545C21.778 13.7545 21.343 8.13805 15.4739 6.87723C21.343 5.6164 21.778 0 21.778 0C21.778 0 22.213 5.6164 28.0821 6.87723C22.213 8.13805 21.778 13.7545 21.778 13.7545ZM0 17.7663C10.6717 20.179 11.462 30.9476 11.462 30.9476C11.462 30.9476 12.2524 20.179 22.9241 17.7663C12.2524 15.3535 11.462 4.5849 11.462 4.5849C11.462 4.5849 10.6717 15.3535 0 17.7663ZM19.4856 25.2165C25.3547 26.4773 25.7897 32.0937 25.7897 32.0937C25.7897 32.0937 26.2247 26.4773 32.0938 25.2165C26.2247 23.9556 25.7897 18.3392 25.7897 18.3392C25.7897 18.3392 25.3547 23.9556 19.4856 25.2165Z" fill="#003038"/>
</svg>
