<svg width="38" height="28" viewBox="0 0 38 28" fill="none" xmlns="http://www.w3.org/2000/svg">
<path d="M17.1028 22.6485C17.249 22.6487 17.3937 22.6773 17.5287 22.7326C17.6636 22.788 17.7862 22.869 17.8895 22.9711C17.9927 23.0732 18.0745 23.1943 18.1302 23.3275C18.186 23.4608 18.2146 23.6036 18.2143 23.7477C18.2141 23.8919 18.1851 24.0346 18.129 24.1677C18.0729 24.3008 17.9907 24.4217 17.8872 24.5235C17.7837 24.6252 17.6609 24.7059 17.5258 24.7609C17.3906 24.8159 17.2458 24.8441 17.0997 24.8439C16.8045 24.8434 16.5215 24.7274 16.313 24.5212C16.1046 24.3151 15.9877 24.0357 15.9881 23.7446C15.9886 23.4535 16.1062 23.1744 16.3153 22.9689C16.5243 22.7633 16.8076 22.6481 17.1028 22.6485ZM34.5578 15.8609C34.4116 15.8608 34.2669 15.8323 34.1319 15.7771C33.9969 15.7218 33.8742 15.6409 33.7709 15.5389C33.6676 15.4369 33.5857 15.3158 33.5299 15.1826C33.4741 15.0494 33.4454 14.9066 33.4455 14.7625C33.4456 14.6183 33.4745 14.4756 33.5305 14.3425C33.5865 14.2093 33.6686 14.0884 33.772 13.9865C33.8755 13.8847 33.9982 13.8039 34.1333 13.7488C34.2684 13.6937 34.4132 13.6655 34.5594 13.6656C34.8546 13.6658 35.1376 13.7816 35.3462 13.9876C35.5548 14.1936 35.6719 14.4729 35.6717 14.764C35.6715 15.0552 35.554 15.3343 35.3451 15.54C35.1362 15.7457 34.853 15.8611 34.5578 15.8609ZM34.5578 11.3703C33.6451 11.3711 32.77 11.729 32.1247 12.3654C31.4793 13.0018 31.1164 13.8648 31.1156 14.7648C31.1156 15.1286 31.1773 15.4909 31.2976 15.8438L19.9275 21.8131C19.6123 21.3617 19.1904 20.9926 18.6983 20.7377C18.2062 20.4829 17.6587 20.3498 17.1028 20.3501C15.7902 20.3501 14.5948 21.0917 14.0153 22.2488L3.80104 16.9368C2.72118 16.3778 1.91367 14.6258 1.99917 13.0301C2.04351 12.1978 2.33485 11.5514 2.77977 11.3016C3.06161 11.1454 3.40045 11.1579 3.76145 11.3437L3.82795 11.3796C6.5355 12.7849 15.3928 17.3865 15.7665 17.5567C16.3412 17.8205 16.6611 17.9267 17.6428 17.4676L35.9527 8.07719C36.2219 7.97726 36.5354 7.72275 36.5354 7.33708C36.5354 6.80307 35.9749 6.59227 35.9733 6.59227C34.9314 6.10042 33.3307 5.36186 31.7695 4.64048C28.4318 3.09935 24.6491 1.35367 22.9882 0.49488C21.5537 -0.245239 20.3994 0.379334 20.1935 0.504249L19.7945 0.699428C12.3179 4.34537 2.31109 9.23266 1.74109 9.57461C0.722986 10.1867 0.0912259 11.4062 0.0088912 12.9192C-0.117777 15.3191 1.12199 17.8221 2.89694 18.7387L13.6986 24.2318C13.8176 25.0387 14.227 25.7764 14.852 26.3102C15.4771 26.844 16.276 27.1383 17.1028 27.1392C18.0059 27.1377 18.8722 26.7867 19.5157 26.1619C20.1591 25.537 20.5281 24.6881 20.5435 23.7977L32.4408 17.438C33.0425 17.9033 33.7914 18.1578 34.5578 18.1578C35.4705 18.157 36.3455 17.7991 36.9909 17.1626C37.6362 16.5262 37.9992 15.6633 38 14.7632C37.9992 13.8632 37.6362 13.0003 36.9909 12.3638C36.3455 11.7274 35.4705 11.3695 34.5578 11.3687" fill="#022F2D"/>
</svg>
