<svg width="14" height="13" viewBox="0 0 14 13" fill="none" xmlns="http://www.w3.org/2000/svg">
<path d="M3.18182 0H10.8182C11.6617 0.000938273 12.4705 0.312519 13.067 0.866397C13.6634 1.42027 13.999 2.17122 14 2.95453V7.68177C13.9991 8.36261 13.7454 9.02234 13.2817 9.54977C12.8181 10.0772 12.1727 10.4401 11.4545 10.5772V12.409C11.4546 12.516 11.4233 12.621 11.3641 12.7127C11.3049 12.8045 11.22 12.8796 11.1184 12.9301C11.0168 12.9806 10.9024 13.0045 10.7873 12.9993C10.6722 12.9941 10.5608 12.96 10.465 12.9006L6.80909 10.6363H3.18182C2.33826 10.6354 1.52954 10.3238 0.933048 9.76989C0.336561 9.21602 0.00101089 8.46507 0 7.68177V2.95453C0.00101089 2.17122 0.336561 1.42027 0.933048 0.866397C1.52954 0.312519 2.33826 0.000938273 3.18182 0ZM4.45455 7.09086H9.54545C9.71423 7.09086 9.87609 7.0286 9.99543 6.91779C10.1148 6.80697 10.1818 6.65667 10.1818 6.49996C10.1818 6.34324 10.1148 6.19294 9.99543 6.08212C9.87609 5.97131 9.71423 5.90905 9.54545 5.90905H4.45455C4.28577 5.90905 4.12391 5.97131 4.00457 6.08212C3.88523 6.19294 3.81818 6.34324 3.81818 6.49996C3.81818 6.65667 3.88523 6.80697 4.00457 6.91779C4.12391 7.0286 4.28577 7.09086 4.45455 7.09086ZM3.18182 4.72724H10.8182C10.987 4.72724 11.1488 4.66498 11.2682 4.55417C11.3875 4.44335 11.4545 4.29305 11.4545 4.13634C11.4545 3.97962 11.3875 3.82932 11.2682 3.7185C11.1488 3.60769 10.987 3.54543 10.8182 3.54543H3.18182C3.01304 3.54543 2.85118 3.60769 2.73184 3.7185C2.6125 3.82932 2.54545 3.97962 2.54545 4.13634C2.54545 4.29305 2.6125 4.44335 2.73184 4.55417C2.85118 4.66498 3.01304 4.72724 3.18182 4.72724Z" fill="url(#paint0_linear_1641_142)"/>
<defs>
<linearGradient id="paint0_linear_1641_142" x1="7" y1="5.45612e-07" x2="15.5" y2="4.5" gradientUnits="userSpaceOnUse">
<stop stop-color="#009EFF"/>
<stop offset="1" stop-color="#BBF985"/>
</linearGradient>
</defs>
</svg>
