<svg width="11" height="12" viewBox="0 0 11 12" fill="none" xmlns="http://www.w3.org/2000/svg">
<path fill-rule="evenodd" clip-rule="evenodd" d="M1.26923 1.70553C1.03557 1.70553 0.846154 1.89495 0.846154 2.12861V10.5901C0.846154 10.8238 1.03557 11.0132 1.26923 11.0132H9.73077C9.96442 11.0132 10.1538 10.8238 10.1538 10.5901V2.12861C10.1538 1.89495 9.96442 1.70553 9.73077 1.70553H1.26923ZM0 2.12861C0 1.42763 0.568254 0.859375 1.26923 0.859375H9.73077C10.4317 0.859375 11 1.42763 11 2.12861V10.5901C11 11.2911 10.4317 11.8594 9.73077 11.8594H1.26923C0.568254 11.8594 0 11.2911 0 10.5901V2.12861Z" fill="white"/>
<path fill-rule="evenodd" clip-rule="evenodd" d="M3.24339 0.859375C3.47705 0.859375 3.66647 1.0488 3.66647 1.28245V11.4363C3.66647 11.6699 3.47705 11.8594 3.24339 11.8594C3.00973 11.8594 2.82031 11.6699 2.82031 11.4363V1.28245C2.82031 1.0488 3.00973 0.859375 3.24339 0.859375Z" fill="white"/>
<path fill-rule="evenodd" clip-rule="evenodd" d="M1.97412 11.4363C1.97412 11.2026 2.16354 11.0132 2.3972 11.0132H4.08951C4.32316 11.0132 4.51258 11.2026 4.51258 11.4363C4.51258 11.6699 4.32316 11.8593 4.08951 11.8593H2.3972C2.16354 11.8593 1.97412 11.6699 1.97412 11.4363Z" fill="white"/>
<path fill-rule="evenodd" clip-rule="evenodd" d="M1.97412 1.28245C1.97412 1.0488 2.16354 0.859375 2.3972 0.859375H4.08951C4.32316 0.859375 4.51258 1.0488 4.51258 1.28245C4.51258 1.51611 4.32316 1.70553 4.08951 1.70553H2.3972C2.16354 1.70553 1.97412 1.51611 1.97412 1.28245Z" fill="white"/>
</svg>
