<svg width="36" height="36" viewBox="0 0 36 36" fill="none" xmlns="http://www.w3.org/2000/svg">
<path d="M28 19.1323C28 19.8227 27.7331 20.4848 27.2581 20.9729C26.7831 21.4611 26.1389 21.7354 25.4671 21.7354C25.2535 21.7338 25.041 21.7059 24.8339 21.6522C24.6122 21.5924 24.3992 21.5024 24.2007 21.3847V25H20.9642C21.0198 24.7879 21.047 24.5689 21.0451 24.3492C21.0451 23.6589 20.7782 22.9968 20.3032 22.5086C19.8282 22.0205 19.184 21.7462 18.5122 21.7462C17.8404 21.7462 17.1962 22.0205 16.7212 22.5086C16.2462 22.9968 15.9793 23.6589 15.9793 24.3492C15.9714 24.5643 15.9915 24.7795 16.0391 24.9892H12.8026V21.3738C12.4176 21.603 11.9807 21.724 11.5357 21.7245C11.0908 21.725 10.6536 21.6051 10.2681 21.3767C9.88259 21.1484 9.56243 20.8197 9.33982 20.4238C9.1172 20.0279 9 19.5787 9 19.1215C9 18.6642 9.1172 18.215 9.33982 17.8191C9.56243 17.4232 9.88259 17.0945 10.2681 16.8662C10.6536 16.6379 11.0908 16.5179 11.5357 16.5184C11.9807 16.519 12.4176 16.6399 12.8026 16.8691V13.2538L16.0391 13.2538C15.9835 13.0417 15.9562 12.8227 15.9582 12.603C15.9582 11.9127 16.225 11.2506 16.7001 10.7624C17.1751 10.2742 17.8193 10 18.4911 10C19.1628 10 19.8071 10.2742 20.2821 10.7624C20.7571 11.2506 21.024 11.9127 21.024 12.603C21.0348 12.829 21.0147 13.0553 20.9642 13.2755L24.2007 13.2755V16.8908C24.3992 16.7731 24.6122 16.6831 24.8339 16.6233C25.041 16.5696 25.2535 16.5417 25.4671 16.5401C26.137 16.5401 26.7797 16.8129 27.2544 17.2987C27.7291 17.7845 27.9972 18.4438 28 19.1323Z" fill="url(#paint0_linear_509_9701)"/>
<path fill-rule="evenodd" clip-rule="evenodd" d="M18 35C27.3888 35 35 27.3888 35 18C35 8.61116 27.3888 1 18 1C8.61116 1 1 8.61116 1 18C1 27.3888 8.61116 35 18 35ZM18 36C27.9411 36 36 27.9411 36 18C36 8.05887 27.9411 0 18 0C8.05887 0 0 8.05887 0 18C0 27.9411 8.05887 36 18 36Z" fill="url(#paint1_linear_509_9701)"/>
<defs>
<linearGradient id="paint0_linear_509_9701" x1="20.776" y1="10" x2="15.4531" y2="26.8843" gradientUnits="userSpaceOnUse">
<stop stop-color="#34FFD3"/>
<stop offset="1" stop-color="#DEA5E3"/>
</linearGradient>
<linearGradient id="paint1_linear_509_9701" x1="22.3125" y1="2.91532e-07" x2="6.96931" y2="38.4227" gradientUnits="userSpaceOnUse">
<stop stop-color="#34FFD3"/>
<stop offset="1" stop-color="#DEA5E3"/>
</linearGradient>
</defs>
</svg>
