<svg width="69" height="69" viewBox="0 0 69 69" fill="none" xmlns="http://www.w3.org/2000/svg">
<rect width="69" height="69" rx="34.5" fill="#003038"/>
<path d="M50.5774 30.7737C50.5159 30.5075 50.4481 30.2439 50.374 29.9829C50.1887 29.3304 49.9642 28.6944 49.7033 28.0775C49.5988 27.8308 49.4888 27.5871 49.3729 27.3467C49.315 27.2265 49.2556 27.107 49.1948 26.9884C46.4616 21.6521 40.9073 18 34.5 18H34.4999C28.0927 18 22.5382 21.6521 19.8051 26.9883C19.7443 27.1068 19.685 27.2264 19.627 27.3466C19.4533 27.7072 19.2922 28.0752 19.1445 28.4499C18.9475 28.9493 18.7742 29.4609 18.6259 29.9828C18.5518 30.2439 18.484 30.5075 18.4225 30.7736C18.1461 31.9711 18 33.2184 18 34.4999C18 35.7814 18.1461 37.0288 18.4225 38.2263C18.484 38.4925 18.5518 38.7561 18.6259 39.0171C18.7742 39.539 18.9476 40.0506 19.1445 40.5501C19.2922 40.9248 19.4533 41.2928 19.627 41.6534C19.685 41.7736 19.7443 41.8931 19.8051 42.0117C22.5383 47.3479 28.0926 51 34.4999 51H34.5H34.5001C40.9074 51 46.4617 47.348 49.1949 42.0117C49.2557 41.8932 49.315 41.7736 49.373 41.6534C49.4889 41.413 49.599 41.1692 49.7034 40.9226C49.9644 40.3057 50.1888 39.6697 50.3741 39.0172C50.4482 38.7561 50.516 38.4925 50.5775 38.2264C50.8539 37.0289 51 35.7816 51 34.5001C51 33.2186 50.8537 31.9712 50.5774 30.7737ZM41.9019 34.4999L34.4999 44.221L27.0978 34.4999L34.4999 24.7789L41.9019 34.4999Z" fill="url(#paint0_linear_831_4953)"/>
<defs>
<linearGradient id="paint0_linear_831_4953" x1="38.4531" y1="18" x2="24.3885" y2="53.2208" gradientUnits="userSpaceOnUse">
<stop stop-color="#34FFD3"/>
<stop offset="1" stop-color="#DEA5E3"/>
</linearGradient>
</defs>
</svg>
