<svg width="33" height="33" viewBox="0 0 33 33" fill="none" xmlns="http://www.w3.org/2000/svg">
<path fill-rule="evenodd" clip-rule="evenodd" d="M13.6792 7.29506C15.4309 5.54332 16.0334 4.97835 18.3501 7.29506C20.6668 9.61178 20.1019 10.2143 18.3501 11.966C16.5984 13.7177 16.022 14.3089 13.6792 11.966C11.3363 9.62315 11.9274 9.04681 13.6792 7.29506Z" stroke="#D6E4A3" stroke-width="1.5" stroke-linecap="round" stroke-linejoin="round"/>
<path fill-rule="evenodd" clip-rule="evenodd" d="M21.019 14.6351C22.7708 12.8833 23.3732 12.3184 25.69 14.6351C28.0067 16.9518 27.4417 17.5543 25.69 19.306C23.9382 21.0578 23.3619 21.6489 21.019 19.306C18.6762 16.9632 19.2673 16.3868 21.019 14.6351Z" stroke="#D6E4A3" stroke-width="1.5" stroke-linecap="round" stroke-linejoin="round"/>
<path fill-rule="evenodd" clip-rule="evenodd" d="M6.33934 14.6351C8.09108 12.8833 8.69356 12.3184 11.0103 14.6351C13.327 16.9518 12.762 17.5543 11.0103 19.306C9.25853 21.0578 8.68219 21.6489 6.33933 19.306C3.99648 16.9632 4.58759 16.3868 6.33934 14.6351Z" stroke="#D6E4A3" stroke-width="1.5" stroke-linecap="round" stroke-linejoin="round"/>
<path fill-rule="evenodd" clip-rule="evenodd" d="M13.6792 21.9752C15.4309 20.2234 16.0334 19.6585 18.3501 21.9752C20.6668 24.2919 20.1019 24.8944 18.3501 26.6461C16.5984 28.3979 16.022 28.989 13.6792 26.6461C11.3363 24.3033 11.9274 23.7269 13.6792 21.9752Z" stroke="#D6E4A3" stroke-width="1.5" stroke-linecap="round" stroke-linejoin="round"/>
</svg>
