<svg width="36" height="36" viewBox="0 0 36 36" fill="none" xmlns="http://www.w3.org/2000/svg">
<path fill-rule="evenodd" clip-rule="evenodd" d="M25 25.106V9.99243H21.1363V25.106H25ZM19.4318 15.0303V25.106H15.5681V15.0303H19.4318ZM13.8636 19.4385H10V25.106H13.8636V19.4385Z" fill="url(#paint0_linear_699_4680)"/>
<path fill-rule="evenodd" clip-rule="evenodd" d="M18 35C27.3888 35 35 27.3888 35 18C35 8.61116 27.3888 1 18 1C8.61116 1 1 8.61116 1 18C1 27.3888 8.61116 35 18 35ZM18 36C27.9411 36 36 27.9411 36 18C36 8.05887 27.9411 0 18 0C8.05887 0 0 8.05887 0 18C0 27.9411 8.05887 36 18 36Z" fill="url(#paint1_linear_699_4680)"/>
<defs>
<linearGradient id="paint0_linear_699_4680" x1="19.2969" y1="9.99243" x2="12.8202" y2="26.0895" gradientUnits="userSpaceOnUse">
<stop stop-color="#34FFD3"/>
<stop offset="1" stop-color="#DEA5E3"/>
</linearGradient>
<linearGradient id="paint1_linear_699_4680" x1="22.3125" y1="2.91532e-07" x2="6.96931" y2="38.4227" gradientUnits="userSpaceOnUse">
<stop stop-color="#34FFD3"/>
<stop offset="1" stop-color="#DEA5E3"/>
</linearGradient>
</defs>
</svg>
