<svg width="34" height="26" viewBox="0 0 34 26" fill="none" xmlns="http://www.w3.org/2000/svg">
<path d="M19.8415 16.8311C18.9956 17.395 18.013 17.6931 17 17.6931C15.987 17.6931 15.0045 17.395 14.1586 16.8311L0.226379 7.54265C0.149082 7.49112 0.0737773 7.4374 0 7.38215V22.6023C0 24.3473 1.41611 25.7322 3.12993 25.7322H30.87C32.615 25.7322 33.9999 24.3161 33.9999 22.6023V7.38208C33.926 7.43746 33.8506 7.49132 33.7731 7.54292L19.8415 16.8311Z" fill="white"/>
<path d="M1.33145 5.88502L15.2637 15.1735C15.7911 15.5251 16.3955 15.7009 16.9999 15.7009C17.6044 15.7009 18.2089 15.5251 18.7363 15.1735L32.6686 5.88502C33.5023 5.32953 34 4.39984 34 3.39644C34 1.67114 32.5964 0.267578 30.8711 0.267578H3.12886C1.40363 0.267645 0 1.67121 0 3.3981C0 4.39984 0.497781 5.32953 1.33145 5.88502Z" fill="white"/>
</svg>
