<svg width="36" height="36" viewBox="0 0 36 36" fill="none" xmlns="http://www.w3.org/2000/svg">
<path d="M27 9L22 22L9 27L14 14L27 9ZM18 20C18.5304 20 19.0392 19.7892 19.4142 19.4142C19.7892 19.0392 20 18.5304 20 18C20 17.4696 19.7892 16.9608 19.4142 16.5858C19.0392 16.2108 18.5304 16 18 16C17.4696 16 16.9608 16.2108 16.5858 16.5858C16.2108 16.9608 16 17.4696 16 18C16 18.5304 16.2108 19.0392 16.5858 19.4142C16.9608 19.7892 17.4696 20 18 20Z" fill="url(#paint0_linear_508_9687)"/>
<path fill-rule="evenodd" clip-rule="evenodd" d="M18 35C27.3888 35 35 27.3888 35 18C35 8.61116 27.3888 1 18 1C8.61116 1 1 8.61116 1 18C1 27.3888 8.61116 35 18 35ZM18 36C27.9411 36 36 27.9411 36 18C36 8.05887 27.9411 0 18 0C8.05887 0 0 8.05887 0 18C0 27.9411 8.05887 36 18 36Z" fill="url(#paint1_linear_508_9687)"/>
<defs>
<linearGradient id="paint0_linear_508_9687" x1="20.1562" y1="9" x2="12.4847" y2="28.2114" gradientUnits="userSpaceOnUse">
<stop stop-color="#34FFD3"/>
<stop offset="1" stop-color="#DEA5E3"/>
</linearGradient>
<linearGradient id="paint1_linear_508_9687" x1="22.3125" y1="2.91532e-07" x2="6.96931" y2="38.4227" gradientUnits="userSpaceOnUse">
<stop stop-color="#34FFD3"/>
<stop offset="1" stop-color="#DEA5E3"/>
</linearGradient>
</defs>
</svg>
