<svg width="198" height="55" viewBox="0 0 198 55" fill="none" xmlns="http://www.w3.org/2000/svg">
<path d="M46.5729 36.381C44.1201 36.0676 41.8283 36.7369 40.0364 38.0501C36.389 40.7231 32.0893 42.3583 27.565 42.3583H26.883C26.8364 42.3583 26.7898 42.3583 26.7432 42.3583C18.7325 42.299 12.1537 35.7244 12.0944 27.7095C12.0944 27.6629 12.0944 27.6163 12.0944 27.5697V26.8877C12.0944 26.8411 12.0944 26.7945 12.0944 26.7479C12.1537 18.7288 18.741 12.1499 26.7559 12.1033C26.7983 12.1033 26.8364 12.1033 26.8787 12.1033H27.565C32.0384 12.1033 36.3509 13.6284 39.922 16.3268C41.4386 17.4748 43.3279 18.1526 45.374 18.1526C50.7286 18.1526 55.0029 13.514 54.3929 8.03656C53.9396 3.94014 50.6566 0.597774 46.5644 0.0767198C43.8871 -0.266413 41.4089 0.563884 39.5535 2.11857C36.6474 4.55863 33.0678 6.05401 29.2764 6.05401H28.1962C23.2695 6.05401 18.2708 4.8128 14.4116 1.75002C14.3946 1.73308 14.3735 1.72461 14.3523 1.7119C14.1828 1.58905 14.0091 1.47891 13.8355 1.36876C13.7889 1.33911 13.7423 1.30522 13.6957 1.27557C13.2297 0.995977 12.7383 0.762986 12.2257 0.572356C12.1876 0.555411 12.1452 0.546939 12.1028 0.529994C11.8868 0.453742 11.6665 0.381727 11.4462 0.32242C11.3869 0.305475 11.3234 0.292766 11.2641 0.275822C11.0607 0.224987 10.8574 0.182625 10.6541 0.144499C10.5693 0.131791 10.4846 0.119082 10.3999 0.106373C10.3025 0.0936646 10.205 0.0724836 10.1076 0.059775C10.0398 0.0513025 9.97627 0.0555388 9.90849 0.0470663C9.7221 0.0301215 9.53147 0.0216491 9.34084 0.0131767C9.20952 0.0131767 9.08243 0.00470424 8.95111 0.00470424C8.76048 0.00470424 8.56561 0.0216491 8.37075 0.0343577C8.2479 0.0428301 8.12505 0.0470663 8.00644 0.0640112C7.96407 0.0682474 7.91747 0.0682474 7.87511 0.0724836C7.31593 0.144499 6.7737 0.271585 6.24841 0.44527C6.21028 0.457979 6.16792 0.474923 6.12979 0.487632C5.8968 0.56812 5.66381 0.65708 5.43929 0.758749C5.36304 0.792639 5.29103 0.826529 5.21901 0.860418C5.03262 0.949379 4.85046 1.04258 4.67254 1.14424C4.58781 1.19084 4.50309 1.23744 4.41837 1.28404C4.23197 1.39418 4.05405 1.51703 3.88037 1.63988L3.35931 2.03385C3.27459 2.10163 3.18987 2.16941 3.10514 2.24142C2.98653 2.34733 2.87215 2.45747 2.75777 2.56761C2.67728 2.6481 2.59256 2.72859 2.51207 2.81331C2.39769 2.93192 2.29179 3.05054 2.18588 3.17339C2.10963 3.26235 2.03762 3.35555 1.9656 3.44451C1.86817 3.56736 1.77074 3.69021 1.67754 3.81729C1.58011 3.95285 1.49115 4.09265 1.40219 4.23668C1.30899 4.38494 1.22003 4.53321 1.1353 4.68572C1.03364 4.86364 0.940438 5.04579 0.851478 5.23642C0.809116 5.32115 0.775226 5.41011 0.7371 5.49907C0.656612 5.6897 0.580361 5.88033 0.508345 6.07943C0.482928 6.15992 0.453274 6.23617 0.427857 6.31666C0.351605 6.54965 0.288062 6.78264 0.232992 7.0241C0.220283 7.0707 0.207574 7.1173 0.199102 7.16813C0.135559 7.4562 0.0847242 7.74426 0.0550707 8.04079C0.0550707 8.0535 0.0550707 8.06197 0.0550707 8.07468C0.0338897 8.26531 0.0296535 8.46018 0.021181 8.65081C0.0169448 8.7906 0 8.9304 0 9.06596C0 9.06596 0 9.07443 0 9.07866C0 9.3752 0.0169448 9.67173 0.0465983 9.9598C0.0550707 10.0488 0.0677793 10.1377 0.080488 10.2224C0.105905 10.43 0.139795 10.6376 0.177921 10.8409C0.199102 10.9384 0.216047 11.0358 0.237228 11.1332C0.288062 11.345 0.343133 11.5526 0.406676 11.7559C0.427857 11.828 0.449038 11.9042 0.470219 11.9762C0.55918 12.2346 0.656612 12.4846 0.766754 12.7345C0.813352 12.8362 0.864187 12.9379 0.915021 13.0395C0.987037 13.1878 1.05905 13.3318 1.13954 13.4759C1.20308 13.5945 1.27086 13.7088 1.34288 13.8232C1.41489 13.9418 1.49115 14.052 1.5674 14.1664C1.64789 14.2892 1.72837 14.4078 1.81733 14.5264L1.82581 14.5349C4.57511 18.4873 6.04931 23.1852 6.04931 28.0018V28.2433C6.04931 32.5176 4.35906 36.5039 1.82157 39.9394C1.79615 39.9733 1.77074 40.0115 1.74532 40.0496C1.6733 40.147 1.60552 40.2487 1.53774 40.3504C1.46996 40.452 1.40642 40.5495 1.34288 40.6511C1.2751 40.7613 1.21156 40.8672 1.15225 40.9816C1.09718 41.079 1.04211 41.1764 0.991273 41.2781C0.92773 41.4009 0.868423 41.5238 0.809116 41.6509C0.766754 41.7398 0.728628 41.833 0.690502 41.9262C0.631195 42.066 0.576124 42.2058 0.52529 42.3499C0.495636 42.4346 0.465983 42.5151 0.440566 42.5998C0.389731 42.7523 0.343133 42.9048 0.305007 43.0615C0.283826 43.142 0.262645 43.2267 0.2457 43.3115C0.207574 43.4682 0.173685 43.625 0.148267 43.7817C0.131322 43.8791 0.118614 43.9808 0.101669 44.0782C0.0889604 44.1714 0.0677793 44.2604 0.0593069 44.3536C0.0550707 44.3959 0.0593069 44.4341 0.0508345 44.4764C0.021181 44.7518 0.00423621 45.0314 0.00423621 45.311C0.00423621 45.3321 0.00423621 45.3576 0.00423621 45.3787C0.00423621 45.383 0.00423621 45.3872 0.00423621 45.3915C0.00423621 45.5567 0.021181 45.7219 0.0296535 45.8871C0.0381259 46.0481 0.0381259 46.2133 0.0550707 46.37C0.0720156 46.5352 0.105905 46.692 0.131322 46.8529C0.15674 47.0097 0.173685 47.1749 0.207574 47.3274C0.241464 47.4841 0.292298 47.6366 0.334661 47.7934C0.377023 47.9459 0.410912 48.1026 0.461747 48.2509C0.512581 48.4034 0.576124 48.5474 0.635431 48.6957C0.690502 48.8397 0.741337 48.9922 0.80488 49.132C0.868423 49.2718 0.944675 49.4074 1.01669 49.5429C1.08871 49.6827 1.15649 49.831 1.23697 49.9666C1.31322 50.0979 1.40642 50.2207 1.48691 50.3521C1.57163 50.4834 1.65636 50.6189 1.74955 50.7503C1.84275 50.8773 1.94442 50.9917 2.04185 51.1103C2.13929 51.229 2.23248 51.356 2.33839 51.4704C2.44006 51.5848 2.55443 51.6865 2.66034 51.7966C2.77048 51.9067 2.87639 52.0254 2.995 52.1313C3.10514 52.2329 3.22799 52.3219 3.34237 52.4151C3.46522 52.5168 3.58807 52.6227 3.71939 52.7201C3.84224 52.8091 3.97356 52.8853 4.10065 52.97C4.23197 53.059 4.3633 53.1522 4.49885 53.2327C4.63441 53.3132 4.77421 53.3767 4.914 53.4487C5.0538 53.5207 5.18936 53.6012 5.33339 53.6648C5.47318 53.7283 5.62145 53.7791 5.76548 53.8342C5.91798 53.8935 6.06202 53.9571 6.21876 54.0121C6.36702 54.063 6.51953 54.0969 6.67203 54.1392C6.82877 54.1816 6.98127 54.2324 7.14225 54.2663C7.29899 54.3002 7.45996 54.3171 7.6167 54.3426C7.77768 54.368 7.93866 54.4019 8.09963 54.4188C8.26061 54.4358 8.42158 54.4358 8.58256 54.4442C8.74777 54.4527 8.90875 54.4696 9.0782 54.4696C9.08243 54.4696 9.08667 54.4696 9.0909 54.4696C9.11209 54.4696 9.1375 54.4696 9.15868 54.4696C9.44251 54.4696 9.71786 54.4485 9.99322 54.423C10.0356 54.423 10.0737 54.423 10.1161 54.4146C10.2093 54.4061 10.2982 54.3849 10.3914 54.3722C10.4889 54.3595 10.5905 54.3426 10.688 54.3256C10.8447 54.296 11.0014 54.2621 11.1582 54.2282C11.2429 54.207 11.3234 54.1901 11.4081 54.1689C11.5649 54.1265 11.7174 54.0799 11.8699 54.0333C11.9546 54.0079 12.0393 53.9782 12.124 53.9486C12.2681 53.8978 12.4079 53.8427 12.5434 53.7834C12.6366 53.7453 12.7298 53.7029 12.8188 53.6648C12.9459 53.6055 13.0687 53.5462 13.1916 53.4869C13.2932 53.436 13.3907 53.3809 13.4881 53.3259C13.5982 53.2623 13.7084 53.1988 13.8143 53.1352C13.9159 53.0717 14.0176 53.0082 14.115 52.9404C14.2167 52.8726 14.3184 52.8048 14.4158 52.7328C14.4497 52.7074 14.4878 52.682 14.526 52.6566C17.9615 50.1148 21.9478 48.4288 26.2221 48.4288H27.5735C32.0469 48.4288 36.3594 49.9538 39.9305 52.6523C41.4471 53.8003 43.3364 54.4781 45.3825 54.4781C50.7371 54.4781 55.0114 49.8395 54.4014 44.3621C53.9481 40.2656 50.6651 36.9233 46.5729 36.4022V36.381Z" fill="#34FFD3"/>
<path d="M27.2304 36.3092C32.2442 36.3092 36.3086 32.2448 36.3086 27.231C36.3086 22.2173 32.2442 18.1528 27.2304 18.1528C22.2167 18.1528 18.1522 22.2173 18.1522 27.231C18.1522 32.2448 22.2167 36.3092 27.2304 36.3092Z" fill="#34FFD3"/>
<path d="M78.3312 24.0917C70.3671 24.0917 68.3931 18.7837 68.3931 12.1456C68.3931 5.50744 70.3333 0.271484 78.5007 0.271484H87.7229V2.85981H79.5555C73.5994 2.85981 71.6931 5.68536 71.6931 12.1498C71.6931 18.6143 73.5316 21.5076 79.3818 21.5076H88.0575V24.0959H78.327L78.3312 24.0917Z" fill="#022F2D"/>
<path d="M116.096 24.0918V0.000488281H119.261V24.0918H116.096Z" fill="#022F2D"/>
<path d="M105.211 2.6227C104.533 0.987525 103.647 0.000488281 101.911 0.000488281C100.174 0.000488281 99.3604 0.953635 98.6445 2.6227L89.5917 24.096H92.9256L95.5774 17.6316L96.5306 15.0433L101.089 4.11808C101.292 3.64363 101.495 2.9616 101.906 2.9616C102.317 2.9616 102.554 3.64363 102.758 4.11808L107.248 15.0433L108.201 17.6316L110.891 24.096H114.225L105.206 2.6227H105.211Z" fill="#022F2D"/>
<path d="M101.91 21.0795C103.267 21.0795 104.367 19.9795 104.367 18.6225C104.367 17.2656 103.267 16.1655 101.91 16.1655C100.553 16.1655 99.4531 17.2656 99.4531 18.6225C99.4531 19.9795 100.553 21.0795 101.91 21.0795Z" fill="#022F2D"/>
<path d="M90.5446 51.4573C90.5446 53.4695 89.3839 54.4608 87.6767 54.4608C86.3804 54.4608 85.4612 54.0499 84.5377 52.5842L73.2778 34.5718C73.0406 34.1609 72.833 33.9914 72.5958 33.9914C72.4602 33.9914 72.1171 34.127 72.1171 34.6735V54.1897H69.012V32.8688C69.012 30.6872 70.6132 30.0391 71.9477 30.0391C73.6887 30.0391 74.4385 30.8566 75.0189 31.7801L86.3804 49.9281C86.5499 50.1992 86.6854 50.5084 87.0286 50.5084C87.4395 50.5084 87.4395 50.1314 87.4395 49.9281V30.3102H90.5446V51.4616V51.4573Z" fill="#022F2D"/>
<path d="M100.407 54.1857C95.0187 54.1857 93.8918 50.6738 93.8918 45.2134C93.8918 38.5625 96.0057 35.8979 102.114 35.8979C106.927 35.8979 110.337 37.4653 110.337 42.9258C110.337 45.0058 109.689 46.0987 107.643 46.0987H96.8614C96.8614 49.0344 97.374 51.8642 101.026 51.8642H109.862V54.1857H100.411H100.407ZM106.512 43.7815C107.194 43.7815 107.329 43.269 107.329 42.8623V42.7267C107.329 39.3166 105.181 38.2236 102.144 38.2236C98.4246 38.2236 96.8572 39.6555 96.8572 43.7858H106.512V43.7815Z" fill="#022F2D"/>
<path d="M120.021 54.1855C115.518 54.1855 114.255 52.0377 114.255 48.3861V38.4226H111.595V36.1011H114.255V30.3018H117.119V36.1011H122.169V38.4226H117.119V48.2125C117.119 51.0083 118.212 51.8641 120.974 51.8641H122.169V54.1855H120.021Z" fill="#022F2D"/>
<path d="M129.882 50.7079C129.95 50.9451 130.085 51.2544 130.259 51.2544C130.496 51.2544 130.53 50.9112 130.602 50.7418L134.152 37.4697C134.563 36.004 135.686 35.9023 136.3 35.9023C136.914 35.9023 138.075 36.004 138.482 37.4697L142.032 50.7418C142.065 50.9112 142.167 51.2544 142.375 51.2544C142.544 51.2544 142.684 50.9832 142.752 50.7079L146.505 36.1057H149.301L144.933 52.4151C144.59 53.6775 143.908 54.3934 142.51 54.3934C141.011 54.3934 140.257 53.5419 140.019 52.6184L136.609 39.8929C136.541 39.6895 136.474 39.2786 136.304 39.2786C136.169 39.2786 136.067 39.6895 135.999 39.8929L132.589 52.6184C132.352 53.5377 131.67 54.3934 130.132 54.3934C128.7 54.3934 128.052 53.6775 127.709 52.4151L123.341 36.1057H126.137L129.891 50.7079H129.882Z" fill="#022F2D"/>
<path d="M168.978 45.078C168.978 51.9364 166.183 54.3934 159.697 54.3934C153.211 54.3934 150.415 51.9364 150.415 45.078C150.415 38.2196 153.211 35.9023 159.697 35.9023C166.183 35.9023 168.978 38.2577 168.978 45.078ZM159.697 52.072C164.302 52.072 165.975 50.1953 165.975 45.078C165.975 39.9606 164.302 38.2196 159.697 38.2196C155.092 38.2196 153.419 39.9606 153.419 45.078C153.419 50.1953 155.092 52.072 159.697 52.072Z" fill="#022F2D"/>
<path d="M171.808 42.6208C171.808 38.1516 173.99 36.1055 178.459 36.1055H180.437V38.4269H178.972C175.833 38.4269 174.672 40.0324 174.672 43.3409V54.1898H171.808V42.625V42.6208Z" fill="#022F2D"/>
<path d="M182.144 54.1857V30.3062H185.008V54.1857H182.144ZM194.323 54.1857L187.6 47.5687C187.054 47.0222 186.304 46.0013 186.304 44.8406C186.304 43.6799 186.986 42.8284 187.634 42.1802L193.637 36.1055H197.149L189.816 43.4384C189.507 43.7434 189.202 44.1543 189.202 44.7347C189.202 45.3828 189.68 45.9632 190.121 46.408L198 54.1857H194.315H194.323Z" fill="#022F2D"/>
</svg>
