<svg width="40" height="40" viewBox="0 0 40 40" fill="none" xmlns="http://www.w3.org/2000/svg">
<path d="M5 10C5 9.66848 5.1317 9.35054 5.36612 9.11612C5.60054 8.8817 5.91848 8.75 6.25 8.75H33.75C34.0815 8.75 34.3995 8.8817 34.6339 9.11612C34.8683 9.35054 35 9.66848 35 10C35 10.3315 34.8683 10.6495 34.6339 10.8839C34.3995 11.1183 34.0815 11.25 33.75 11.25H6.25C5.91848 11.25 5.60054 11.1183 5.36612 10.8839C5.1317 10.6495 5 10.3315 5 10ZM6.25 17.5H26.25C26.5815 17.5 26.8995 17.3683 27.1339 17.1339C27.3683 16.8995 27.5 16.5815 27.5 16.25C27.5 15.9185 27.3683 15.6005 27.1339 15.3661C26.8995 15.1317 26.5815 15 26.25 15H6.25C5.91848 15 5.60054 15.1317 5.36612 15.3661C5.1317 15.6005 5 15.9185 5 16.25C5 16.5815 5.1317 16.8995 5.36612 17.1339C5.60054 17.3683 5.91848 17.5 6.25 17.5ZM33.75 21.25H6.25C5.91848 21.25 5.60054 21.3817 5.36612 21.6161C5.1317 21.8505 5 22.1685 5 22.5C5 22.8315 5.1317 23.1495 5.36612 23.3839C5.60054 23.6183 5.91848 23.75 6.25 23.75H33.75C34.0815 23.75 34.3995 23.6183 34.6339 23.3839C34.8683 23.1495 35 22.8315 35 22.5C35 22.1685 34.8683 21.8505 34.6339 21.6161C34.3995 21.3817 34.0815 21.25 33.75 21.25ZM26.25 27.5H6.25C5.91848 27.5 5.60054 27.6317 5.36612 27.8661C5.1317 28.1005 5 28.4185 5 28.75C5 29.0815 5.1317 29.3995 5.36612 29.6339C5.60054 29.8683 5.91848 30 6.25 30H26.25C26.5815 30 26.8995 29.8683 27.1339 29.6339C27.3683 29.3995 27.5 29.0815 27.5 28.75C27.5 28.4185 27.3683 28.1005 27.1339 27.8661C26.8995 27.6317 26.5815 27.5 26.25 27.5Z" fill="#D1D1D1"/>
</svg>
