<svg width="26" height="29" viewBox="0 0 26 29" fill="none" xmlns="http://www.w3.org/2000/svg">
<path d="M12.4589 13.5972V9.51646L8.92402 11.5568L12.4589 13.5972ZM8.39943 12.4596V16.5404L11.9343 14.5L8.39943 12.4596ZM7.8779 10.953L12.4558 8.3087V5.90842L5.79786 9.7513L7.8779 10.953ZM20.1599 9.7513L13.5019 5.90842V8.3087L18.0798 10.953L20.1599 9.7513ZM12.4589 19.4866V15.4058L8.92402 17.4462L12.4589 19.4866ZM7.35637 11.8588L5.27633 10.6571V18.3459L7.35637 17.1443V11.8557V11.8588ZM5.80091 19.2487L12.4589 23.0916V20.6913L7.88095 18.047L5.80091 19.2487ZM13.5019 20.6944V23.0946L20.1599 19.2517L18.0798 18.0501L13.5019 20.6944ZM24.3931 6.10362L14.545 0.418599C13.5751 -0.139533 12.3826 -0.139533 11.4127 0.418599L1.56765 6.10362C0.597781 6.66175 0 7.69872 0 8.81498V20.185C0 21.3043 0.597781 22.3382 1.56765 22.8964L11.4158 28.5814C12.3857 29.1395 13.5782 29.1395 14.548 28.5814L24.3962 22.8964C25.366 22.3382 25.9638 21.3013 25.9638 20.185V8.81498C25.9638 7.69567 25.366 6.66175 24.3962 6.10362H24.3931ZM23.0146 19.6909C23.2647 19.8343 23.3501 20.1545 23.2067 20.4046C23.1091 20.5724 22.9353 20.6669 22.7553 20.6669C22.6669 20.6669 22.5784 20.6456 22.4961 20.5968L21.209 19.8526L13.508 24.2993V26.1201C13.508 26.4099 13.2732 26.6417 12.9865 26.6417C12.6998 26.6417 12.465 26.4068 12.465 26.1201V24.2993L4.76395 19.8526L3.47689 20.5968C3.39454 20.6456 3.30609 20.6669 3.21765 20.6669C3.0377 20.6669 2.86081 20.5724 2.76626 20.4046C2.62292 20.1545 2.70831 19.8343 2.95841 19.6909L4.24546 18.9468V10.0532L2.95841 9.30907C2.70831 9.16572 2.62292 8.84548 2.76626 8.59539C2.90961 8.3453 3.22985 8.2599 3.47994 8.40324L4.767 9.14742L12.468 4.70066V2.87987C12.468 2.59013 12.7028 2.35834 12.9895 2.35834C13.2762 2.35834 13.5111 2.59318 13.5111 2.87987V4.70066L21.2121 9.14742L22.4991 8.40324C22.7492 8.2599 23.0695 8.3453 23.2128 8.59539C23.3562 8.84548 23.2708 9.16572 23.0207 9.30907L21.7336 10.0532V18.9468L23.0207 19.6909H23.0146ZM13.5019 9.51646V13.5972L17.0368 11.5568L13.5019 9.51646ZM18.6044 17.1443L20.6844 18.3459V10.6571L18.6044 11.8588V17.1473V17.1443ZM13.5019 15.4058V19.4866L17.0368 17.4462L13.5019 15.4058ZM17.5583 16.5404V12.4596L14.0235 14.5L17.5583 16.5404Z" fill="url(#paint0_linear_1610_13)"/>
<defs>
<linearGradient id="paint0_linear_1610_13" x1="1.36941" y1="21.0207" x2="25.2562" y2="7.60722" gradientUnits="userSpaceOnUse">
<stop stop-color="#009EFF"/>
<stop offset="0.13" stop-color="#10A6F3"/>
<stop offset="0.39" stop-color="#3CBBD7"/>
<stop offset="0.74" stop-color="#83DDA9"/>
<stop offset="1" stop-color="#BBF985"/>
</linearGradient>
</defs>
</svg>
