<svg width="418" height="418" viewBox="0 0 418 418" fill="none" xmlns="http://www.w3.org/2000/svg">
<path d="M213.471 7.04521C215.408 7.04521 216.993 5.47966 216.993 3.52266C216.993 1.56566 215.428 1.28081e-05 213.471 1.26371e-05L213.432 1.26337e-05C211.495 1.24643e-05 209.929 1.56566 209.929 3.52266C209.929 5.47966 211.534 7.04521 213.471 7.04521ZM195.45 7.69102C197.289 7.57362 198.737 6.04716 198.737 4.188C198.737 2.32887 197.172 0.665416 195.215 0.665416C195.078 0.665416 194.902 0.665386 194.785 0.684948C192.848 0.900218 191.459 2.64201 191.674 4.55986C191.889 6.45814 193.591 7.80848 195.45 7.67149L195.45 7.69102ZM231.296 7.90633C231.433 7.90633 231.59 7.92589 231.727 7.92589C233.664 7.92589 235.249 6.36031 235.249 4.4033C235.249 2.4463 233.801 1.01765 231.961 0.900222C231.864 0.900222 231.766 0.900222 231.687 0.900222C229.926 0.900222 228.4 2.231 228.205 4.03145C227.989 5.96886 229.379 7.71062 231.316 7.90633L231.296 7.90633ZM177.429 9.90244C177.586 9.90244 177.782 9.84373 177.938 9.80461C179.817 9.33491 180.971 7.41709 180.501 5.53837C180.11 3.93363 178.662 2.87681 177.097 2.87681C176.901 2.87681 176.705 2.87681 176.529 2.91593C174.671 3.18992 173.36 4.89253 173.555 6.79081C173.77 8.72825 175.512 10.1373 177.429 9.90244ZM249.023 10.2938C249.141 10.3134 249.278 10.3526 249.395 10.3526C251.313 10.6069 253.074 9.23708 253.328 7.29964C253.563 5.44048 252.291 3.7379 250.471 3.4052C250.237 3.36607 250.021 3.34651 249.786 3.34651C248.182 3.34651 246.715 4.46196 246.362 6.10585C245.932 8.00414 247.145 9.88286 249.023 10.2938ZM266.692 14.3253C268.433 14.8341 270.292 13.8948 270.938 12.1726C271.623 10.3526 270.703 8.33687 268.883 7.6519C268.727 7.59319 268.531 7.53447 268.375 7.49535C268.12 7.43663 267.866 7.41704 267.612 7.41704C266.007 7.41704 264.54 8.53255 264.187 10.1764C263.777 12.016 264.892 13.8556 266.712 14.3253L266.692 14.3253ZM284.047 20.0593C285.789 20.5681 287.648 19.6287 288.293 17.9066C288.978 16.0866 288.059 14.0709 286.239 13.3859C286.082 13.3272 285.887 13.2685 285.73 13.2294C285.476 13.1706 285.221 13.1511 284.967 13.1511C283.363 13.1511 281.895 14.2666 281.543 15.9104C281.132 17.75 282.247 19.5896 284.067 20.0593L284.047 20.0593ZM142.797 18.6698C144.636 18.0631 145.634 16.067 145.027 14.2274C144.538 12.7596 143.168 11.8203 141.701 11.8203C141.329 11.8203 140.957 11.879 140.586 11.9964C140.546 11.9964 140.468 12.0356 140.429 12.0552C138.629 12.7206 137.729 14.7167 138.375 16.5171C139.02 18.3175 140.996 19.2765 142.816 18.6698L142.797 18.6698ZM160.054 13.5033C160.054 13.5033 160.191 13.4837 160.25 13.4641C160.328 13.4446 160.407 13.4446 160.485 13.4055C162.324 12.7988 163.322 10.8027 162.715 8.96308C162.226 7.49534 160.857 6.55595 159.389 6.55595C159.174 6.55595 158.939 6.61469 158.704 6.67341C158.606 6.67341 158.509 6.67338 158.411 6.71253C158.411 6.71253 158.313 6.73212 158.274 6.75169C158.235 6.75169 158.156 6.79081 158.117 6.8104C156.317 7.47578 155.417 9.4719 156.063 11.2723C156.65 12.9358 158.372 13.8556 160.074 13.5229L160.054 13.5033ZM126.106 25.2062C127.789 24.4625 128.63 22.5055 127.965 20.7638C127.437 19.3548 126.087 18.4741 124.678 18.4741C124.267 18.4741 123.856 18.5524 123.445 18.7089C123.328 18.7481 123.171 18.8264 123.074 18.8655C121.332 19.7266 120.628 21.8402 121.508 23.5819C122.35 25.2845 124.404 25.989 126.126 25.2062L126.106 25.2062ZM133.444 38.3572C135.127 37.6136 135.968 35.6566 135.303 33.9149C134.774 32.5058 133.424 31.6252 132.015 31.6252C131.605 31.6252 131.194 31.7034 130.783 31.8404C130.665 31.8796 130.509 31.9578 130.411 32.0165C128.67 32.8776 127.965 34.9912 128.846 36.7329C129.687 38.4355 131.742 39.14 133.463 38.3572L133.444 38.3572ZM300.229 26.9284C301.97 27.7894 304.084 27.0849 304.945 25.3628C305.805 23.621 305.101 21.5075 303.379 20.6464L303.34 20.6464C302.831 20.3724 302.303 20.255 301.775 20.255C300.483 20.255 299.251 20.9791 298.644 22.212C297.783 23.9537 298.507 26.0673 300.229 26.9479L300.229 26.9284ZM109.827 33.2495C109.984 33.1712 110.179 33.0538 110.336 32.9363C111.921 31.8013 112.292 29.6094 111.158 28.0243C110.473 27.0653 109.397 26.5565 108.301 26.5565C107.694 26.5565 107.088 26.7131 106.54 27.0262C104.916 27.946 104.29 29.9813 105.131 31.6643C105.992 33.406 108.105 34.1105 109.847 33.2299L109.827 33.2495ZM315.941 35.4609C315.941 35.4609 316.058 35.5392 316.097 35.5588C317.761 36.5177 319.874 35.9502 320.852 34.3063C321.83 32.6624 321.302 30.5293 319.678 29.5116C319.091 29.1398 318.465 28.9832 317.819 28.9832C316.645 28.9832 315.51 29.5703 314.826 30.6467C313.789 32.2905 314.297 34.4629 315.941 35.5001L315.941 35.4609ZM94.5259 42.5452C96.1695 41.508 96.6783 39.3553 95.6413 37.6919C94.976 36.6155 93.8216 36.048 92.6476 36.048C92.0019 36.048 91.3758 36.2241 90.7888 36.5764C90.7301 36.6155 90.6322 36.6742 90.5735 36.7134C88.9887 37.8484 88.5582 40.0794 89.693 41.6646C90.8279 43.2497 92.941 43.6607 94.5259 42.5257L94.5259 42.5452ZM330.851 45.4807C332.318 46.6158 334.451 46.4201 335.684 44.9914C336.955 43.5237 336.779 41.2927 335.312 40.0402C335.234 39.9815 335.116 39.8837 335.038 39.825C334.412 39.3749 333.707 39.1792 333.003 39.1792C331.907 39.1792 330.831 39.688 330.146 40.6469C329.031 42.193 329.383 44.3457 330.89 45.5003L330.851 45.4807ZM80.1054 53.113C81.5729 51.9584 81.8664 49.8448 80.7903 48.3184C80.1054 47.3594 79.0293 46.8506 77.9335 46.8506C77.2291 46.8506 76.5052 47.0659 75.8986 47.4964C75.8203 47.5551 75.703 47.653 75.6247 47.7117C74.1572 48.9837 73.9811 51.1952 75.2529 52.6629C76.4856 54.1111 78.6575 54.3068 80.1446 53.0934L80.1054 53.113ZM349.595 56.8314C350.965 55.4615 350.965 53.2305 349.595 51.8606C349.537 51.8019 349.439 51.704 349.361 51.6453C348.695 51.0778 347.893 50.8038 347.071 50.8038C346.073 50.8038 345.095 51.2148 344.391 52.0367C343.138 53.4849 343.295 55.6767 344.723 56.9488C346.093 58.2208 348.245 58.1817 349.595 56.8509L349.595 56.8314ZM66.6241 65.0312C67.9937 63.7591 68.1307 61.6064 66.898 60.1778C66.1936 59.3754 65.2153 58.9449 64.2174 58.9449C63.4152 58.9449 62.5934 59.2189 61.9281 59.7864C61.8499 59.8451 61.752 59.943 61.6933 60.0017C60.3236 61.3716 60.3236 63.6025 61.6933 64.9724C63.0434 66.3228 65.2349 66.3423 66.6045 65.0312L66.6241 65.0312ZM357.52 69.7671C358.89 71.137 361.12 71.137 362.49 69.7671C363.82 68.4363 363.859 66.2837 362.607 64.9138C361.922 64.1309 360.944 63.7396 359.985 63.7396C359.183 63.7396 358.361 64.0135 357.696 64.581C356.228 65.8531 356.052 68.0645 357.324 69.5323C357.383 69.591 357.481 69.7084 357.539 69.7671L357.52 69.7671ZM368.986 83.6422C370.258 85.11 372.469 85.2861 373.936 84.0141C375.365 82.7812 375.56 80.6676 374.425 79.1803C373.741 78.2605 372.684 77.7909 371.608 77.7909C370.903 77.7909 370.179 78.0061 369.573 78.4366C367.988 79.5717 367.636 81.7635 368.751 83.3487C368.81 83.427 368.908 83.5444 368.966 83.6227L368.986 83.6422ZM38.3309 93.0163C39.9157 94.1513 42.1072 93.7795 43.2421 92.1943C43.2812 92.1356 43.3399 92.0378 43.379 91.9791C44.416 90.3352 43.9464 88.0846 42.3029 87.067C41.6963 86.6952 41.0506 86.519 40.3853 86.519C39.2505 86.519 38.1547 87.067 37.509 88.1238C36.3742 89.7089 36.746 91.9008 38.3309 93.0358L38.3309 93.0163ZM49.5816 78.7497C51.1665 79.8848 53.358 79.5129 54.4928 77.9278C54.532 77.8691 54.5906 77.7712 54.6298 77.7125C55.6668 76.0686 55.1972 73.8181 53.5536 72.8004C52.9471 72.4286 52.3013 72.2525 51.6361 72.2525C50.5012 72.2525 49.4055 72.8004 48.7598 73.8572C47.6249 75.4424 47.9967 77.6342 49.5816 78.7693L49.5816 78.7497ZM28.9193 108.672C30.602 109.514 32.637 108.888 33.5566 107.263C34.4567 105.717 34.0458 103.701 32.5587 102.645C31.9326 102.195 31.2282 101.999 30.5238 101.999C29.4281 101.999 28.3519 102.508 27.6671 103.467C27.5692 103.623 27.4519 103.819 27.354 103.975C26.4931 105.717 27.1975 107.831 28.9193 108.692L28.9193 108.672ZM392.505 115.502C394.246 114.641 394.951 112.528 394.07 110.786L394.07 110.747C393.444 109.514 392.211 108.809 390.92 108.809C390.392 108.809 389.844 108.927 389.335 109.181C387.594 110.042 386.909 112.175 387.77 113.917C388.631 115.659 390.744 116.363 392.485 115.483L392.505 115.502ZM20.5253 124.896C22.2667 125.757 24.3799 125.052 25.2408 123.33C25.2995 123.213 25.3582 123.056 25.417 122.958C26.1018 121.138 25.1822 119.123 23.3625 118.438C22.9516 118.281 22.5406 118.222 22.1298 118.222C20.7797 118.222 19.4882 119.005 18.9208 120.316C18.1186 122.039 18.8426 124.093 20.5449 124.935L20.5253 124.896ZM14.0292 141.961C15.8489 142.626 17.8643 141.667 18.5295 139.867C19.2143 138.047 18.2947 136.031 16.475 135.346C16.0641 135.19 15.6533 135.131 15.2424 135.131C13.814 135.131 12.4835 135.992 11.9552 137.421C11.9552 137.44 11.916 137.499 11.916 137.518C11.2703 139.338 12.2291 141.315 14.0292 141.98L14.0292 141.961ZM401.251 147.225C401.779 148.987 403.619 150.043 405.419 149.632C407.317 149.182 408.491 147.304 408.041 145.405C408.002 145.288 407.962 145.112 407.923 144.994C407.415 143.546 406.064 142.646 404.617 142.646C404.225 142.646 403.834 142.705 403.443 142.842C401.642 143.468 400.684 145.425 401.251 147.225ZM9.118 159.574C10.9573 160.004 12.8161 158.889 13.3248 157.069C13.8335 155.288 12.8748 153.409 11.1138 152.783C10.7225 152.646 10.3311 152.587 9.93978 152.587C8.49188 152.587 7.14178 153.488 6.63305 154.936C6.59393 155.053 6.53521 155.229 6.51565 155.347C6.06561 157.245 7.23959 159.124 9.13753 159.574L9.118 159.574ZM405.869 164.643C406.299 166.541 408.178 167.735 410.056 167.304C411.954 166.874 413.148 164.995 412.717 163.116L412.717 163.038C412.345 161.413 410.897 160.337 409.312 160.337C409.058 160.337 408.784 160.357 408.51 160.435C406.632 160.866 405.438 162.764 405.869 164.643ZM397.651 168.928C398.062 170.827 399.96 172.02 401.838 171.59C403.736 171.159 404.93 169.281 404.499 167.402L404.499 167.324C404.127 165.699 402.679 164.623 401.095 164.623C400.84 164.623 400.566 164.643 400.292 164.721C398.414 165.151 397.22 167.05 397.651 168.928ZM404.401 161.453C406.299 161.042 407.493 159.143 407.062 157.265L407.062 157.186C406.691 155.562 405.243 154.486 403.658 154.486C403.403 154.486 403.129 154.525 402.856 154.584C400.977 155.014 399.784 156.912 400.214 158.791C400.645 160.689 402.523 161.883 404.401 161.453ZM5.79168 177.539C7.68963 177.774 9.39196 176.443 9.68545 174.565C9.97893 172.745 8.80495 170.964 6.98525 170.572C6.73089 170.514 6.47652 170.494 6.22216 170.494C4.61773 170.494 3.15023 171.609 2.79803 173.253C2.77846 173.371 2.73931 173.527 2.73931 173.645C2.50451 175.582 3.89373 177.324 5.81127 177.539L5.79168 177.539ZM19.5274 168.791C19.2731 168.733 19.0187 168.713 18.7643 168.713C17.1598 168.713 15.6924 169.829 15.3402 171.472C15.3206 171.59 15.2815 171.746 15.2815 171.864C15.0467 173.801 16.4359 175.543 18.3534 175.758C20.2514 175.993 21.9537 174.662 22.2472 172.784C22.5407 170.964 21.3667 169.183 19.547 168.791L19.5274 168.791ZM412.13 178.322C410.193 178.537 408.804 180.279 409.019 182.197C409.019 182.334 409.058 182.53 409.097 182.667C409.547 184.565 411.445 185.719 413.324 185.289C415.124 184.858 416.278 183.117 415.985 181.297C415.73 179.574 414.243 178.302 412.502 178.302C412.365 178.302 412.247 178.302 412.11 178.322L412.13 178.322ZM3.67852 195.7C5.59603 195.896 7.35701 194.526 7.55266 192.588C7.55266 192.451 7.57225 192.275 7.57225 192.158C7.57226 190.221 6.00692 188.635 4.05025 188.635C2.09362 188.635 0.665212 190.084 0.54781 191.923C0.410847 193.802 1.78054 195.485 3.65892 195.7L3.67852 195.7ZM410.741 200.006C410.741 200.143 410.741 200.319 410.76 200.456C410.995 202.393 412.756 203.763 414.654 203.528C416.493 203.313 417.843 201.689 417.765 199.869C417.707 197.99 416.141 196.483 414.243 196.483C412.306 196.483 410.721 198.049 410.721 200.006L410.741 200.006ZM3.52196 213.959C5.45906 213.959 7.04396 212.354 7.04396 210.417C7.04396 208.479 5.47863 206.894 3.52196 206.894C1.56533 206.894 -1.2199e-05 208.46 -1.23701e-05 210.417L-1.23735e-05 210.456C-1.25429e-05 212.393 1.56533 213.959 3.52196 213.959ZM8.02229 228.656C8.02229 226.719 6.45696 225.133 4.50029 225.133C2.54366 225.133 0.978319 226.699 0.978319 228.656L0.978319 228.695C0.978318 230.633 2.54366 232.198 4.50029 232.198C6.45696 232.198 8.02229 230.593 8.02229 228.656ZM414.478 214.761C413.5 214.761 412.619 215.172 411.993 215.799C411.758 215.74 411.504 215.701 411.23 215.701C409.371 215.701 407.884 217.129 407.884 218.988C407.767 220.848 409.156 222.433 411.015 222.57C411.954 222.628 412.834 222.296 413.5 221.689C413.695 221.748 413.891 221.787 414.087 221.826C416.004 222.041 417.765 220.671 417.98 218.754C417.98 218.617 418 218.441 418 218.304C418 216.366 416.435 214.781 414.478 214.781L414.478 214.761ZM413.558 233.04C413.421 233.04 413.284 233.02 413.167 233.02C411.406 233.02 409.88 234.351 409.665 236.151C409.449 238.089 410.819 239.831 412.756 240.046C414.674 240.281 416.435 238.891 416.65 236.973C416.65 236.973 416.65 236.915 416.65 236.895C416.865 234.977 415.476 233.255 413.558 233.04ZM10.5268 246.132C10.2333 244.449 8.76579 243.236 7.06349 243.236C6.92653 243.236 6.80913 243.236 6.67216 243.255C4.73509 243.47 3.34587 245.212 3.56108 247.13C3.56108 247.267 3.6002 247.463 3.63936 247.6C4.08937 249.498 5.96779 250.672 7.86574 250.222C9.705 249.792 10.879 247.972 10.5072 246.132L10.5268 246.132ZM411.406 251.24C411.504 251.025 411.563 250.809 411.621 250.555C411.621 250.496 411.66 250.34 411.66 250.281C411.915 248.441 410.643 246.68 408.804 246.445C408.647 246.426 408.491 246.406 408.315 246.406C406.671 246.406 405.262 247.561 405.027 249.244C404.871 250.046 405.027 250.829 405.38 251.494C405.262 251.455 405.164 251.416 405.047 251.396C404.832 251.357 404.636 251.338 404.44 251.338C402.934 251.338 401.603 252.394 401.31 253.921C401.31 253.98 401.271 254.136 401.271 254.195C401.016 255.917 402.21 257.483 403.912 257.757C405.223 257.972 406.495 257.326 407.16 256.23C407.688 257.228 408.686 257.972 409.88 258.109C411.719 258.305 413.402 257.052 413.735 255.252C414.067 253.51 413.05 251.827 411.406 251.259L411.406 251.24ZM404.46 254.528L406.808 254.978L404.46 254.508L404.46 254.528ZM14.5575 263.823C14.5184 263.706 14.4792 263.53 14.4401 263.412C13.9314 261.964 12.5813 261.064 11.1333 261.064C10.742 261.064 10.3507 261.123 9.95936 261.26C8.19838 261.886 7.23961 263.765 7.74833 265.545C8.2375 267.365 10.1159 268.481 11.9552 268.05C13.8531 267.6 15.0271 265.722 14.577 263.823L14.5575 263.823ZM19.8796 280.83C19.3709 279.381 18.0208 278.481 16.5728 278.481C16.1815 278.481 15.7902 278.54 15.3988 278.677C13.6379 279.303 12.6791 281.182 13.1878 282.963C13.677 284.783 15.5554 285.898 17.3946 285.468C19.2926 285.018 20.4666 283.139 20.0166 281.241C19.9774 281.123 19.9382 280.947 19.8991 280.83L19.8796 280.83ZM407.004 268.97C406.612 268.833 406.221 268.775 405.83 268.775C404.382 268.775 403.032 269.675 402.523 271.123C402.484 271.24 402.425 271.417 402.405 271.534C401.955 273.432 403.129 275.311 405.027 275.761C406.847 276.192 408.667 275.115 409.195 273.354C409.762 271.553 408.804 269.616 407.004 268.97ZM401.016 286.231C400.605 286.074 400.194 286.016 399.784 286.016C398.394 286.016 397.064 286.857 396.516 288.208C395.792 289.93 396.555 291.945 398.257 292.748C400.018 293.57 402.112 292.826 402.934 291.065C402.973 290.987 403.032 290.85 403.071 290.752C403.756 288.932 402.836 286.916 401.016 286.231ZM23.6755 295.331C23.2646 295.331 22.8537 295.409 22.4428 295.546C20.6231 296.231 19.7035 298.247 20.3883 300.067C20.4274 300.184 20.5057 300.341 20.5644 300.439C21.4253 302.181 23.5385 302.885 25.2799 302.004C26.9822 301.163 27.6866 299.108 26.904 297.386C26.3365 296.094 25.0451 295.292 23.695 295.292L23.6755 295.331ZM393.757 303.003C393.248 302.748 392.7 302.611 392.153 302.611C390.881 302.611 389.668 303.296 389.022 304.49C388.963 304.607 388.924 304.744 388.865 304.862C387.75 304.96 386.694 305.566 386.146 306.643C386.126 306.682 386.067 306.799 386.048 306.858C385.285 308.521 385.989 310.459 387.633 311.261C389.276 312.063 391.272 311.378 392.094 309.754L391.898 309.656C391.898 309.656 391.898 309.656 391.918 309.656L392.094 309.735C392.094 309.735 392.113 309.676 392.133 309.637C393.385 309.637 394.598 308.971 395.225 307.797C395.225 307.778 395.283 307.699 395.283 307.68C396.144 305.958 395.459 303.883 393.737 303.003L393.757 303.003ZM35.1219 313.198C34.4567 312.122 33.3022 311.555 32.1282 311.555C31.4826 311.555 30.8564 311.731 30.2694 312.083C28.665 313.081 28.1366 315.175 29.0758 316.819C29.9955 318.482 32.1087 319.109 33.811 318.208C35.5328 317.289 36.1785 315.155 35.2589 313.453C35.2198 313.375 35.1611 313.277 35.1219 313.198ZM386.107 317.112C385.5 316.721 384.835 316.525 384.15 316.525C383.328 316.525 382.506 316.819 381.861 317.386C381.9 317.308 381.958 317.249 381.998 317.171L379.493 315.723L382.056 317.034C382.78 315.625 382.213 313.883 380.804 313.159C380.393 312.944 379.943 312.846 379.493 312.846C378.436 312.846 377.439 313.414 376.93 314.412C376.93 314.412 376.852 314.568 376.852 314.588C376.147 316.017 376.715 317.739 378.143 318.443C379.18 318.952 380.354 318.796 381.195 318.13C381.137 318.228 381.058 318.345 381.019 318.424C380.1 320.146 380.745 322.259 382.467 323.179C384.13 324.06 386.165 323.492 387.124 321.907C388.122 320.302 387.672 318.169 386.087 317.112L386.107 317.112ZM41.9702 326.937C41.3049 326.937 40.6202 327.132 40.0136 327.524C38.3896 328.6 37.9591 330.792 39.0353 332.397C39.0548 332.436 39.1135 332.494 39.1331 332.534C40.2484 334.099 42.4007 334.451 43.9856 333.356C45.5705 332.26 45.9618 330.087 44.9052 328.483C44.2204 327.465 43.1051 326.917 41.9702 326.917L41.9702 326.937ZM375.717 332.142C375.091 331.692 374.386 331.496 373.682 331.496C373.33 331.496 372.997 331.555 372.684 331.653L372.156 331.262L369.534 329.716C369.005 330.538 368.927 331.516 369.221 332.358C368.868 332.221 368.516 332.123 368.144 332.123C367.225 332.123 366.344 332.553 365.777 333.356C365.777 333.375 365.66 333.532 365.64 333.551C365.053 334.452 365.033 335.547 365.503 336.448C365.073 336.193 364.603 336.056 364.133 336.056C363.351 336.056 362.607 336.409 362.059 337.015C361.296 337.054 360.533 337.426 360.063 338.111L359.907 338.346C359.555 338.855 359.437 339.461 359.496 340.029C358.929 340.166 358.4 340.518 358.029 341.047L357.892 341.242C357.089 342.397 357.383 343.943 358.537 344.745C359.692 345.567 361.316 345.254 362.118 344.1L362.196 343.982C362.568 343.454 362.705 342.847 362.646 342.26C363.096 342.143 363.468 341.888 363.801 341.555C364.74 341.614 365.718 341.203 366.305 340.381L366.305 340.342C366.931 339.501 366.931 338.463 366.501 337.602C367.831 338.424 369.573 338.052 370.434 336.741L368.125 335.019L370.492 336.663C370.492 336.663 370.492 336.663 370.492 336.643C370.688 337.054 370.982 337.407 371.334 337.72C372.801 338.972 375.032 338.816 376.284 337.348C376.343 337.27 376.441 337.152 376.499 337.074C377.634 335.489 377.262 333.297 375.678 332.162L375.717 332.142ZM53.1427 341.399C52.3992 341.399 51.6361 341.634 50.9904 342.123C49.4446 343.317 49.1707 345.509 50.3447 347.055C50.3839 347.113 50.4425 347.192 50.4816 347.231C51.7339 348.698 54.0036 348.933 55.4907 347.661C56.9582 346.389 57.1734 344.236 55.9211 342.749C55.2363 341.849 54.1797 341.379 53.1427 341.379L53.1427 341.399ZM65.6262 354.785C64.8826 354.785 64.1195 355.02 63.4934 355.509C61.9477 356.703 61.6737 358.894 62.8477 360.44C62.8868 360.499 62.9455 360.577 62.9847 360.617C64.2369 362.084 66.5067 362.319 67.9937 361.047C69.4612 359.775 69.6764 357.622 68.4242 356.135C67.7393 355.235 66.6828 354.765 65.6262 354.765L65.6262 354.785ZM336.564 370.362C336.564 370.362 336.525 370.304 336.505 370.284C335.918 369.541 335.038 369.149 334.138 369.149C333.883 369.149 333.629 369.208 333.375 369.267C333.59 368.738 333.473 368.112 333.023 367.701C332.749 367.447 332.396 367.31 332.044 367.31C331.653 367.31 331.281 367.466 330.988 367.76L330.675 368.092C330.146 368.679 330.185 369.58 330.753 370.108C330.988 370.323 331.281 370.421 331.575 370.46C331.164 371.047 330.988 371.732 331.046 372.417C330.851 373.357 331.007 374.374 331.614 375.216C332.749 376.801 334.94 377.173 336.525 376.038C336.564 375.999 336.642 375.94 336.681 375.92C338.188 374.746 338.442 372.593 337.308 371.067C337.092 370.773 336.838 370.558 336.564 370.362ZM95.7 378.21C95.1521 377.897 94.5651 377.76 93.9781 377.76C92.7454 377.76 91.5518 378.406 90.9061 379.56C89.9865 381.185 90.5148 383.24 92.0605 384.238C93.6259 385.275 95.7586 384.903 96.8739 383.357C98.0088 381.772 97.637 379.58 96.0522 378.445C95.9543 378.367 95.7978 378.269 95.7 378.21ZM320.97 380.245C320.97 380.245 320.97 380.245 320.95 380.245C321.028 379.971 320.97 379.658 320.774 379.423C320.578 379.189 320.304 379.071 320.03 379.071C319.815 379.071 319.6 379.149 319.424 379.286L319.032 379.619C318.504 379.619 317.956 379.776 317.487 380.089C316.939 380.441 316.567 380.93 316.352 381.498C316.039 381.967 315.863 382.515 315.804 383.063C315.726 383.083 315.628 383.083 315.55 383.142L315.08 383.474C314.943 383.572 314.865 383.709 314.806 383.846C314.395 383.69 313.984 383.572 313.554 383.572C312.967 383.572 312.38 383.709 311.852 384.022C311.852 384.022 311.852 384.022 311.832 384.022L311.754 383.905C310.971 384.394 310.462 385.157 310.306 385.999C310.071 386.84 310.149 387.78 310.619 388.582C311.538 390.187 313.593 390.735 315.197 389.815L315.256 389.776C316.684 388.954 317.232 387.271 316.704 385.764C317.839 386.977 319.678 387.232 321.106 386.351C322.731 385.373 323.278 383.279 322.359 381.615C322.007 381.009 321.498 380.539 320.93 380.245L320.97 380.245ZM111.373 387.584C111.373 387.584 111.255 387.545 111.216 387.525C111.647 386.351 111.373 385.02 110.512 384.081C110.512 384.081 110.531 384.061 110.551 384.042C111.568 382.594 111.216 380.598 109.788 379.58C109.768 379.58 109.651 379.482 109.631 379.463C109.083 379.11 108.477 378.934 107.87 378.934C106.853 378.934 105.835 379.423 105.229 380.343C104.407 381.557 104.544 383.142 105.464 384.218C105.405 384.296 105.307 384.375 105.248 384.453C104.211 385.999 104.642 388.073 106.188 389.111C106.227 389.13 106.325 389.189 106.364 389.208C106.403 389.208 106.422 389.228 106.462 389.248C105.796 390.794 106.325 392.653 107.792 393.592C107.89 393.67 108.046 393.749 108.164 393.807C109.905 394.668 112.018 393.964 112.879 392.242C113.74 390.539 113.075 388.465 111.412 387.564L111.373 387.584ZM107.322 383.063L107.949 382.202L107.342 383.063L107.322 383.063ZM127.535 395.314C127.085 395.119 126.595 395.021 126.126 395.021C124.776 395.021 123.484 395.803 122.897 397.134C122.115 398.915 122.937 400.99 124.717 401.772L124.756 401.772C126.537 402.575 128.591 401.753 129.374 399.972C130.157 398.191 129.315 396.117 127.535 395.334L127.535 395.314ZM235.092 409.816C235.327 409.483 235.483 409.092 235.483 408.661C235.483 407.526 234.544 406.626 233.409 406.626C233.409 406.626 233.39 406.626 233.37 406.626L233.037 406.626C231.903 406.645 231.061 407.585 231.081 408.739C231.081 409.033 231.159 409.307 231.296 409.561C231.218 409.561 231.159 409.561 231.081 409.561C229.711 409.659 228.655 410.657 228.361 411.929C228.302 411.87 228.244 411.831 228.185 411.792C228.185 411.694 228.205 411.596 228.185 411.499C228.126 410.031 226.933 408.896 225.465 408.896C225.426 408.896 225.387 408.896 225.367 408.896L225.367 411.088C225.367 411.088 225.348 411.088 225.328 411.088L225.172 408.896C223.685 408.955 222.55 410.207 222.609 411.694C222.609 412.144 222.765 412.555 222.961 412.927C222.706 413.456 222.589 414.043 222.648 414.649C222.804 416.469 224.409 417.82 226.248 417.702C227.637 417.604 228.772 416.685 229.202 415.452C229.868 416.137 230.826 416.528 231.844 416.411L231.805 416.039C231.805 416.039 231.824 416.039 231.844 416.058L231.883 416.411C232.059 416.411 232.235 416.352 232.411 416.313C232.92 416.489 233.488 416.567 234.055 416.489C235.953 416.254 237.303 414.512 237.088 412.614C236.951 411.342 236.149 410.324 235.072 409.816L235.092 409.816ZM197.329 410.912C197.329 410.912 197.152 410.912 197.094 410.912C196.585 410.912 196.096 411.029 195.646 411.225C195.568 411.225 195.489 411.186 195.391 411.186C195.313 411.186 195.235 411.186 195.157 411.186C193.415 411.186 191.928 412.536 191.811 414.317C191.693 416.156 193.083 417.761 194.941 417.898L195.02 417.898C195.352 417.937 195.685 417.898 195.998 417.82C196.292 417.898 196.605 417.957 196.937 417.957L196.976 417.428L196.937 417.976C198.855 418.074 200.537 416.606 200.635 414.669C200.753 412.732 199.266 411.068 197.329 410.97L197.329 410.912ZM215.565 410.951C215.565 410.951 215.428 410.951 215.369 410.951C213.432 410.951 211.847 412.516 211.847 414.473C211.847 416.43 213.588 418.094 215.604 417.996C217.541 417.878 219.106 416.235 218.989 414.278C218.891 412.399 217.404 410.951 215.545 410.951L215.565 410.951ZM222.139 20.9986C223.959 21.1356 225.583 19.7266 225.72 17.8674C225.837 16.0083 224.448 14.4231 222.589 14.2861C222.511 14.2861 222.354 14.2861 222.295 14.2861C220.437 14.2861 218.871 15.793 218.871 17.6326C218.871 19.4722 220.3 20.9791 222.159 20.9791L222.139 20.9986ZM191.811 22.4273C193.65 22.2903 195.059 20.6855 194.922 18.8459C194.785 17.0846 193.317 15.7343 191.576 15.7343C191.498 15.7343 191.419 15.7343 191.341 15.7343C191.263 15.7343 191.126 15.7539 191.067 15.7539C189.228 16.0083 187.878 17.6913 188.113 19.5309C188.348 21.3705 189.991 22.6621 191.811 22.4273ZM252.937 17.3586C251.371 17.3586 249.963 18.4546 249.65 20.0593C249.278 21.8793 250.471 23.6406 252.291 24.0124C252.35 24.0124 252.487 24.0516 252.545 24.0516C254.365 24.306 256.146 23.0535 256.4 21.2139C256.654 19.3743 255.441 17.6913 253.602 17.4173C253.387 17.3782 253.152 17.3586 252.937 17.3586ZM160.446 21.6249C160.446 21.6249 160.328 21.664 160.309 21.664C158.548 22.1729 157.55 23.9929 158.039 25.7737C158.528 27.5546 160.407 28.5918 162.167 28.1221C163.968 27.6524 165.024 25.8128 164.555 24.0124C164.144 22.5055 162.794 21.527 161.307 21.527C161.013 21.527 160.739 21.5662 160.446 21.6444L160.446 21.6249ZM281.68 31.449C281.68 31.449 281.895 31.5273 281.954 31.5469C283.734 32.0557 285.672 31.038 286.18 29.2572C286.689 27.4763 285.73 25.6368 283.95 25.1279L282.815 28.2787L283.95 25.1084C283.578 24.9714 283.187 24.9126 282.815 24.9126C281.445 24.9126 280.154 25.7737 279.645 27.1436C279.019 28.8854 279.939 30.8032 281.68 31.4295L281.68 31.449ZM309.543 43.328C309.543 43.328 309.68 43.3867 309.699 43.4063C311.343 44.2283 313.319 43.5629 314.16 41.9385C315.002 40.3142 314.356 38.2985 312.732 37.4179L311.128 40.3729L312.712 37.4179C312.204 37.1439 311.656 37.0069 311.128 37.0069C309.934 37.0069 308.78 37.6527 308.173 38.7682C307.293 40.3925 307.899 42.4278 309.543 43.3084L309.543 43.328ZM106.579 52.1541C106.579 52.1541 106.716 52.0758 106.755 52.0367C108.281 51.019 108.692 48.9837 107.694 47.4377C107.049 46.4396 105.972 45.9112 104.857 45.9112C104.251 45.9112 103.624 46.0678 103.077 46.4201L104.818 49.2773L103.057 46.4201C101.472 47.3986 100.983 49.4534 101.961 51.0386C102.94 52.6238 104.994 53.113 106.579 52.1345L106.579 52.1541ZM334.51 54.8743C333.394 56.3617 333.727 58.4752 335.214 59.5907C336.701 60.7062 338.795 60.4127 339.91 58.9253C341.025 57.438 340.712 55.344 339.245 54.2285L339.186 54.1894C338.579 53.7393 337.895 53.524 337.21 53.524C336.192 53.524 335.175 53.9937 334.51 54.8743ZM78.0705 64.8355C78.0705 64.8355 77.8553 65.0116 77.777 65.0898C76.4073 66.3423 76.3095 68.4559 77.5617 69.8258C78.7944 71.1761 80.8685 71.2935 82.2382 70.0998C83.6078 68.9647 83.8622 66.949 82.786 65.5008C82.1208 64.6202 81.1229 64.1505 80.1054 64.1505C79.401 64.1505 78.6966 64.3658 78.0901 64.8159L78.0705 64.8355ZM362.235 80.1588C363.605 78.9063 363.703 76.7928 362.47 75.4228L362.411 75.3642C361.746 74.6401 360.866 74.2878 359.966 74.2878C359.163 74.2878 358.342 74.5814 357.696 75.1685C356.326 76.4209 356.248 78.5736 357.5 79.9435C358.733 81.3134 360.866 81.4113 362.235 80.1588ZM376.049 103.897C377.067 105.424 379.102 105.835 380.647 104.837C382.193 103.838 382.643 101.784 381.665 100.218L378.808 101.96L381.665 100.199C381.587 100.081 381.489 99.9832 381.391 99.8658C382.154 100.003 382.976 99.8658 383.719 99.4744C385.402 98.5155 385.989 96.3628 385.03 94.6797C385.011 94.6406 384.952 94.5623 384.933 94.5232C384.267 93.4664 383.132 92.8793 381.978 92.8793C381.352 92.8793 380.726 93.0359 380.158 93.3881C378.515 94.3666 377.967 96.4998 378.926 98.1632C379.023 98.3394 379.141 98.4959 379.278 98.6525C379.121 98.6329 378.965 98.5937 378.808 98.5937C378.202 98.5937 377.595 98.7503 377.047 99.083C375.462 100.061 374.973 102.116 375.952 103.702C375.971 103.741 376.03 103.838 376.069 103.878L376.049 103.897ZM42.4398 111.745C41.9115 111.471 41.3636 111.334 40.8158 111.334C39.6418 111.334 38.5265 111.94 37.9199 113.056C36.9416 114.641 37.4503 116.696 39.0157 117.674C40.6006 118.633 42.6551 118.144 43.6334 116.579C43.6725 116.52 43.7312 116.402 43.7704 116.344C44.6508 114.719 44.0638 112.625 42.4398 111.745ZM56.6843 92.5074C58.2692 93.4664 60.3236 92.9771 61.302 91.4115C61.3411 91.3528 61.3998 91.2354 61.439 91.1767C62.3195 89.5524 61.7325 87.4584 60.1084 86.5777C59.5801 86.3037 59.0323 86.1668 58.4844 86.1668C57.3104 86.1668 56.1951 86.7734 55.5886 87.8889C54.6102 89.4741 55.119 91.5289 56.6843 92.5074ZM26.2974 145.738C28.0192 146.364 29.9172 145.464 30.5629 143.761C31.2282 142.098 30.4651 140.18 28.8215 139.436C28.3715 139.241 27.9214 139.143 27.4519 139.143C26.1605 139.143 24.9474 139.886 24.3799 141.139C24.3408 141.217 24.2821 141.374 24.2625 141.452C23.6364 143.194 24.556 145.112 26.2974 145.738ZM409.939 191.786C411.778 191.669 413.187 190.064 413.05 188.205C413.05 188.127 413.03 187.99 413.03 187.911C412.795 186.209 411.347 184.937 409.684 184.937C409.547 184.937 409.391 184.937 409.254 184.956C407.415 185.191 406.123 186.815 406.358 188.655C406.475 190.514 408.119 191.884 409.939 191.767L409.939 191.786ZM14.4988 206.053C16.3381 206.17 17.9425 204.781 18.0795 202.921C18.0795 202.843 18.0795 202.706 18.0795 202.628C18.0795 200.769 16.5728 199.203 14.7336 199.203C12.8943 199.203 11.3877 200.632 11.3877 202.491L14.7336 202.726L11.3877 202.51C11.2703 204.37 12.6595 205.955 14.5184 206.092L14.4988 206.053ZM15.6337 236.856C17.4924 236.738 18.8817 235.134 18.7643 233.275C18.7643 233.196 18.7643 233.04 18.7252 232.961C18.4904 231.278 17.0424 229.987 15.3793 229.987C15.2423 229.987 15.0858 229.987 14.9488 230.026C13.1095 230.28 11.8182 231.885 12.0725 233.725C12.1899 235.564 13.814 236.973 15.6532 236.856L15.6337 236.856ZM19.9579 260.516C18.1382 260.888 16.9837 262.669 17.3555 264.489C17.3555 264.567 17.4142 264.704 17.4338 264.782C17.9229 266.563 19.8013 267.679 21.5819 267.189C23.3624 266.7 24.4386 264.919 23.9494 263.138C23.6168 261.553 22.2276 260.457 20.6622 260.457C20.4274 260.457 20.2122 260.477 19.9774 260.536L19.9579 260.516ZM402.112 276.603C401.74 276.466 401.349 276.407 400.977 276.407C399.607 276.407 398.316 277.268 397.807 278.638C397.788 278.716 397.729 278.873 397.71 278.951C397.22 280.732 398.257 282.591 400.057 283.08C401.799 283.569 403.619 282.571 404.147 280.849C404.734 279.108 403.834 277.229 402.092 276.603L402.112 276.603ZM31.5021 296.231C33.1849 295.566 34.0262 293.628 33.4001 291.906C32.8913 290.556 31.6195 289.714 30.2499 289.714C29.8585 289.714 29.4672 289.773 29.0758 289.93C27.3344 290.576 26.4539 292.513 27.0997 294.235C27.0997 294.294 27.1779 294.411 27.1975 294.47C27.9214 296.153 29.8389 296.897 31.5217 296.231L31.5021 296.231ZM52.047 302.102C51.6556 302.102 51.2643 302.161 50.873 302.318C49.1315 302.963 48.2511 304.901 48.8968 306.623C48.8968 306.682 48.975 306.799 48.9946 306.858C49.7186 308.541 51.6361 309.284 53.3188 308.619C55.0015 307.954 55.8429 306.016 55.2167 304.294C54.708 302.944 53.4362 302.102 52.0665 302.102L52.047 302.102ZM44.0638 317.269C43.516 317.269 42.9486 317.406 42.4202 317.7C40.7962 318.6 40.2288 320.655 41.1289 322.259C41.1484 322.299 41.2071 322.396 41.2463 322.435C42.205 324.001 44.2204 324.471 45.7857 323.531C47.3706 322.612 47.8793 320.557 46.9988 318.972C46.3923 317.876 45.2378 317.249 44.0638 317.249L44.0638 317.269ZM377.399 322.162L377.497 321.985C378.182 320.655 377.634 319.069 376.304 318.385C375.991 318.228 375.638 318.15 375.306 318.111C375.404 317.974 375.521 317.876 375.599 317.719L375.736 317.426C376.284 316.212 375.736 314.803 374.523 314.255C374.21 314.118 373.877 314.04 373.545 314.04C372.625 314.04 371.745 314.568 371.353 315.449L371.256 315.645C370.688 316.839 371.197 318.267 372.39 318.835C372.586 318.932 372.801 318.952 373.017 318.991C372.86 319.167 372.703 319.363 372.606 319.578C371.882 320.889 372.351 322.553 373.682 323.257C374.778 323.864 376.108 323.61 376.949 322.749C376.773 323.297 376.734 323.845 376.832 324.393C376.617 324.353 376.382 324.295 376.167 324.295C375.149 324.295 374.151 324.784 373.525 325.684C373.486 325.723 373.408 325.86 373.369 325.919C372.469 327.406 372.919 329.305 374.386 330.244C375.854 331.183 377.81 330.753 378.789 329.324L376.167 327.504L378.808 329.305C379.278 328.62 379.434 327.798 379.317 327.034C380.687 327.387 382.193 326.839 382.976 325.567L380.158 323.747L377.399 322.142L377.399 322.162ZM64.5304 343.708C63.8651 342.867 62.8868 342.416 61.8889 342.416C61.165 342.416 60.441 342.651 59.8149 343.121C58.3474 344.256 58.093 346.37 59.2474 347.837C59.2866 347.877 59.3648 347.994 59.404 348.033C60.5975 349.403 62.6325 349.54 64.0413 348.385C65.45 347.231 65.6457 345.137 64.5304 343.689L64.5304 343.708ZM85.4275 365.255C84.8014 364.765 84.0382 364.511 83.2752 364.511C82.2773 364.511 81.299 364.922 80.6532 365.744C80.3402 366.135 80.1249 366.585 80.0075 367.055C79.7532 366.996 79.4988 366.918 79.2445 366.918C78.2466 366.918 77.2682 367.329 76.5638 368.151C75.292 369.619 75.4681 371.85 76.9356 373.102C76.9748 373.141 77.053 373.2 77.0922 373.22C78.5988 374.394 80.7511 374.139 81.9642 372.672C82.336 372.222 82.5512 371.713 82.6686 371.184C83.8035 371.439 85.0362 371.106 85.8775 370.186C87.1298 368.816 87.0319 366.683 85.6623 365.45C85.6036 365.392 85.4862 365.294 85.4275 365.255ZM136.79 397.447C136.34 397.232 135.85 397.134 135.381 397.134C134.109 397.134 132.896 397.858 132.328 399.091C131.546 400.774 132.289 402.77 133.972 403.553C134.031 403.573 134.168 403.631 134.226 403.651C135.968 404.336 137.964 403.494 138.629 401.772C139.314 400.05 138.512 398.132 136.79 397.447ZM258.552 406.939C258.024 406.058 257.046 405.491 256.009 405.491C255.813 405.491 255.598 405.51 255.402 405.549C254.639 405.706 254.032 406.156 253.621 406.743C253.25 406.019 252.487 405.549 251.665 405.549C251.547 405.549 251.45 405.549 251.332 405.569L251.039 405.608C250.08 405.745 249.415 406.489 249.258 407.389C248.378 408.191 247.928 409.385 248.143 410.638C248.495 412.555 250.354 413.808 252.252 413.456C252.291 413.456 252.369 413.436 252.408 413.416C253.211 413.24 253.895 412.79 254.365 412.184C255.128 412.771 256.126 413.045 257.124 412.829C257.124 412.829 257.241 412.81 257.261 412.79C259.061 412.379 260.137 410.598 259.726 408.798C259.55 408.035 259.12 407.389 258.533 406.919L258.552 406.939ZM163.185 406.998C162.774 406.645 162.304 406.371 161.757 406.234C161.463 406.156 161.189 406.136 160.896 406.136C159.33 406.136 157.882 407.193 157.491 408.798C157.021 410.677 158.156 412.595 160.054 413.064C160.093 413.064 160.152 413.084 160.191 413.103C161.111 413.319 162.011 413.123 162.774 412.673C163.126 412.927 163.557 413.123 164.007 413.24L164.789 409.972L165.416 406.665C165.181 406.606 164.946 406.587 164.711 406.587C164.163 406.587 163.674 406.763 163.204 406.998L163.185 406.998ZM206.192 34.5607C207.953 34.4824 209.323 32.9755 209.225 31.2142C209.147 29.5116 207.738 28.1809 206.036 28.1809C205.977 28.1809 205.938 28.1809 205.879 28.1809C205.82 28.1809 205.664 28.1809 205.625 28.1809C203.903 28.3374 202.67 29.8639 202.788 31.586C202.905 33.3082 204.431 34.6585 206.173 34.5411L206.192 34.5607ZM248.789 35.7349C248.789 35.7349 248.984 35.7544 249.023 35.774C250.784 35.9501 252.271 34.6976 252.487 32.9559C252.682 31.2142 251.43 29.6486 249.708 29.4137L249.239 32.5841L249.689 29.4137C249.532 29.3942 249.376 29.3746 249.239 29.3746C247.673 29.3746 246.304 30.5293 246.069 32.1144C245.814 33.8562 247.028 35.4805 248.789 35.7349ZM162.52 36.0088L162.383 36.048C160.7 36.5568 159.8 38.2986 160.289 40.0011C160.778 41.6842 162.598 42.643 164.281 42.1538C165.983 41.6646 166.961 39.9033 166.472 38.2007C166.061 36.7916 164.789 35.8719 163.4 35.8719C163.107 35.8719 162.813 35.911 162.52 35.9893L162.52 36.0088ZM290.133 46.0678C291.757 46.7528 293.635 45.9896 294.32 44.3652C295.005 42.7409 294.242 40.8622 292.618 40.1773C292.559 40.1577 292.402 40.099 292.324 40.0599C291.972 39.9424 291.62 39.8837 291.248 39.8837C289.917 39.8837 288.665 40.7057 288.215 42.0169C287.628 43.6803 288.47 45.5003 290.133 46.0678ZM124.835 58.2404C126.38 57.3793 126.909 55.4614 126.067 53.9154C125.48 52.8586 124.384 52.2715 123.25 52.2715C122.721 52.2715 122.213 52.3889 121.723 52.6629L121.645 52.702C120.099 53.5631 119.591 55.481 120.452 57.027C121.313 58.5731 123.308 59.1014 124.854 58.2404L124.835 58.2404ZM327.896 65.5792C327.896 65.5792 328.033 65.677 328.053 65.6966C329.501 66.675 331.477 66.2641 332.455 64.8159C333.433 63.3677 333.062 61.3715 331.614 60.3735L329.735 62.9567L331.575 60.3539C331.007 59.9625 330.381 59.7668 329.735 59.7668C328.737 59.7668 327.74 60.2365 327.113 61.1171C326.096 62.5653 326.448 64.5615 327.877 65.5792L327.896 65.5792ZM89.6735 82.5463C89.6735 82.5463 89.8104 82.4289 89.83 82.4093C91.1018 81.2156 91.1801 79.239 89.9865 77.9278C89.3604 77.2428 88.4995 76.8906 87.6385 76.8906C86.8755 76.8906 86.1123 77.1646 85.4862 77.7125L87.5602 80.1392L85.4471 77.7321C84.1166 78.8868 83.9796 80.922 85.1536 82.2332C86.308 83.5639 88.3429 83.701 89.6735 82.5268L89.6735 82.5463ZM360.024 89.3763C358.694 90.4918 358.537 92.5271 359.633 93.8774C360.748 95.2473 362.764 95.4625 364.133 94.347C365.503 93.2316 365.718 91.2159 364.603 89.846C364.583 89.8264 364.486 89.7089 364.466 89.6698C363.84 88.9653 362.979 88.5934 362.118 88.5934C361.394 88.5934 360.65 88.8479 360.044 89.3567L360.024 89.3763ZM56.7625 114.954C58.2105 115.972 60.2062 115.62 61.2237 114.191C61.2237 114.171 61.3216 114.054 61.3411 114.034C62.3195 112.567 61.9085 110.61 60.4606 109.631C59.9127 109.259 59.3062 109.083 58.6801 109.083C57.6626 109.083 56.6451 109.573 56.019 110.473L58.6018 112.351L55.9994 110.512C54.982 111.96 55.3342 113.956 56.7625 114.974L56.7625 114.954ZM383.328 129.299C384.111 130.884 386.048 131.511 387.613 130.728C389.198 129.945 389.824 128.027 389.042 126.442C389.042 126.422 388.963 126.305 388.963 126.285C388.396 125.209 387.32 124.622 386.185 124.622C385.676 124.622 385.167 124.739 384.698 124.994C383.132 125.796 382.545 127.753 383.328 129.319L383.328 129.299ZM391.918 126.481C390.353 127.283 389.766 129.24 390.548 130.806C391.331 132.391 393.268 133.017 394.833 132.235C395.264 132.019 395.616 131.706 395.909 131.354C396.907 132.469 398.531 132.92 399.96 132.293C401.74 131.51 402.562 129.495 401.779 127.733C401.251 126.324 399.901 125.444 398.492 125.444C398.081 125.444 397.67 125.522 397.259 125.659C396.536 125.933 395.968 126.403 395.577 126.99C394.99 126.422 394.227 126.109 393.424 126.109C392.916 126.109 392.407 126.227 391.937 126.481L391.918 126.481ZM36.9221 153.488C38.5657 154.153 40.4245 153.37 41.0897 151.746C41.0897 151.707 41.168 151.55 41.1876 151.511C41.7746 149.867 40.9332 148.086 39.3092 147.48C38.9374 147.343 38.5656 147.264 38.1939 147.264C36.9221 147.264 35.7089 148.047 35.2002 149.3L38.1547 150.533L35.2002 149.319C34.5349 150.944 35.3176 152.822 36.9416 153.488L36.9221 153.488ZM23.8907 191.943C23.6364 193.684 24.8691 195.25 26.6105 195.504C28.3519 195.759 29.9759 194.487 30.2303 192.745C30.4847 191.003 29.2715 189.379 27.5301 189.125C27.3736 189.105 27.2171 189.085 27.0605 189.085C25.4952 189.085 24.1255 190.221 23.9103 191.825L23.9103 191.943L23.8907 191.943ZM404.147 211.395C404.147 213.157 405.575 214.585 407.336 214.585C409.097 214.585 410.526 213.157 410.526 211.395C410.526 211.337 410.526 211.18 410.526 211.141C410.447 209.438 409.039 208.147 407.336 208.147C407.317 208.147 407.278 208.147 407.258 208.147C405.517 208.186 404.147 209.654 404.147 211.395ZM22.3841 235.74C22.3841 235.74 22.3841 235.956 22.3841 235.995C22.5406 237.717 24.0864 238.95 25.7887 238.832C27.5105 238.715 28.8215 237.169 28.7432 235.447C28.665 233.744 27.2562 232.394 25.5538 232.394C25.4952 232.394 25.456 232.394 25.3974 232.394C23.6364 232.472 22.2667 233.979 22.3645 235.74L22.3841 235.74ZM33.4588 275.017C33.1653 275.017 32.8522 275.057 32.5587 275.154C30.8564 275.644 29.8976 277.424 30.3868 279.127L30.4259 279.244C30.9347 280.928 32.6957 281.847 34.3784 281.338C36.0611 280.83 37.0198 279.01 36.5307 277.327C36.1198 275.937 34.848 275.037 33.4588 275.037L33.4588 275.017ZM394.501 293.648C394.501 293.648 394.579 293.452 394.579 293.413C395.127 291.848 394.305 290.204 392.759 289.617C392.427 289.499 392.074 289.441 391.742 289.441C390.509 289.441 389.335 290.223 388.846 291.417C388.357 292.65 388.748 294 389.707 294.822C389.668 294.901 389.589 294.979 389.57 295.057C388.905 296.681 389.687 298.56 391.311 299.226C392.935 299.891 394.814 299.108 395.479 297.484L395.518 297.386C396.085 296.016 395.596 294.529 394.461 293.687C394.461 293.668 394.481 293.648 394.501 293.628L394.501 293.648ZM51.8318 321.046C53.3775 320.205 53.9645 318.267 53.1231 316.721C53.1036 316.662 53.0057 316.525 52.9862 316.486C52.3992 315.508 51.3622 314.979 50.3056 314.979C49.7577 314.979 49.1903 315.116 48.6815 315.41C47.1749 316.271 46.6662 318.228 47.5075 319.735L50.3251 318.228L47.5075 319.754C48.3489 321.3 50.286 321.888 51.8318 321.046ZM350.495 362.965C351.748 361.752 351.767 359.814 350.593 358.542C349.967 357.877 349.126 357.525 348.245 357.525C347.482 357.525 346.7 357.799 346.093 358.327C345.076 359.227 344.762 360.636 345.212 361.85C345.252 362.613 345.526 363.396 346.093 364.002C347.365 365.431 349.576 365.568 351.024 364.315L350.124 363.259C350.124 363.259 350.261 363.18 350.319 363.122C350.358 363.082 350.476 362.985 350.515 362.945L350.495 362.965ZM147.316 399.365C146.925 399.209 146.534 399.15 146.142 399.15C144.871 399.15 143.658 399.913 143.168 401.166C143.129 401.244 143.129 401.322 143.11 401.4C141.701 401.459 140.409 402.359 139.94 403.788C139.333 405.628 140.312 407.624 142.17 408.23C142.19 408.23 142.249 408.25 142.268 408.27C144.108 408.837 146.045 407.819 146.632 405.98C146.69 405.823 146.71 405.667 146.729 405.51C147.806 405.334 148.745 404.61 149.175 403.494C149.801 401.851 148.94 399.991 147.316 399.346L147.316 399.365ZM273.912 401.146C273.579 401.146 273.247 401.205 272.914 401.303C272.19 401.538 271.623 402.007 271.251 402.594C270.977 402.418 270.684 402.262 270.37 402.164C270.116 402.066 269.842 402.027 269.568 402.027C269.568 402.027 269.529 402.027 269.51 402.027C269.451 402.027 269.392 401.988 269.314 401.988C269.001 401.988 268.688 402.027 268.375 402.125C266.496 402.653 265.401 404.59 265.929 406.45C266.457 408.328 268.375 409.405 270.253 408.896C270.292 408.896 270.37 408.857 270.41 408.857C271.31 408.563 272.014 407.956 272.445 407.174C273.168 407.565 274.049 407.663 274.91 407.369L275.008 407.33C276.69 406.782 277.551 405.001 277.004 403.318C276.573 401.968 275.282 401.127 273.932 401.127L273.912 401.146ZM243.232 47.7117C244.914 47.8291 246.362 46.5766 246.48 44.9132C246.597 43.2497 245.345 41.782 243.682 41.6646L243.545 41.6646C243.545 41.6646 243.388 41.6646 243.31 41.6646C241.745 41.6646 240.473 42.8779 240.355 44.4827C240.238 46.1461 241.549 47.6139 243.232 47.7313L243.232 47.7117ZM188.171 50.9212C188.171 50.9212 188.387 50.882 188.445 50.8624C190.05 50.4906 191.048 48.9055 190.696 47.2812C190.382 45.8526 189.111 44.8937 187.702 44.8937C187.506 44.8937 187.311 44.8937 187.115 44.9523L187.624 47.9466L187.076 44.9523C185.432 45.2655 184.336 46.8506 184.649 48.4945C184.963 50.1384 186.528 51.2539 188.191 50.9212L188.171 50.9212ZM296.648 60.1583C298.214 60.7845 299.975 60.0212 300.601 58.4752C301.227 56.9096 300.464 55.1483 298.918 54.5221L298.781 54.4634C298.409 54.3264 298.038 54.2481 297.685 54.2481C296.492 54.2481 295.377 54.9917 294.907 56.1855C294.281 57.7511 295.103 59.532 296.668 60.1583L296.648 60.1583ZM133.542 63.2503L134.813 66.0096L133.463 63.2894C131.957 64.0331 131.35 65.8531 132.113 67.36C132.857 68.8669 134.696 69.4735 136.183 68.7103C136.183 68.7103 136.34 68.632 136.359 68.632C137.846 67.8492 138.433 66.0292 137.651 64.5419C137.103 63.5047 136.046 62.898 134.95 62.898C134.481 62.898 133.992 63.0154 133.542 63.2307L133.542 63.2503ZM343.275 88.7696C344.547 89.8655 346.465 89.7089 347.56 88.4369C348.656 87.1648 348.5 85.247 347.228 84.1511L345.154 86.3625L347.189 84.1119C346.602 83.5835 345.878 83.3292 345.154 83.3292C344.332 83.3292 343.491 83.6618 342.904 84.3272C341.788 85.5797 341.886 87.4976 343.119 88.6131C343.119 88.6131 343.256 88.7305 343.275 88.75L343.275 88.7696ZM91.4149 100.238C92.628 99.083 92.6867 97.1651 91.5323 95.9518C90.9453 95.3255 90.1235 95.0124 89.3213 95.0124C88.5778 95.0124 87.8146 95.2864 87.2276 95.8539L87.1298 95.9518C85.9167 97.1064 85.9167 98.9851 87.0711 100.198C88.2255 101.412 90.2017 101.412 91.4149 100.257L91.4149 100.238ZM379.982 126.794C379.493 126.794 379.004 126.912 378.534 127.166C377.067 127.968 376.519 129.808 377.302 131.276C377.321 131.315 377.419 131.491 377.439 131.53C378.3 132.939 380.1 133.37 381.548 132.548C382.976 131.726 383.465 129.867 382.663 128.418L379.982 129.827L382.643 128.379C382.095 127.362 381.039 126.794 379.963 126.794L379.982 126.794ZM53.3579 141.276C53.3579 141.276 53.2601 141.452 53.2406 141.491C52.497 142.979 53.1232 144.72 54.5906 145.483C56.0581 146.247 57.8974 145.64 58.6996 144.172C59.5018 142.705 58.954 140.845 57.4669 140.063C56.9973 139.808 56.5082 139.691 56.019 139.691C54.9429 139.691 53.9058 140.258 53.3384 141.276L53.3579 141.276ZM396.868 180.592C396.34 179.848 395.498 179.418 394.579 179.418C394.344 179.418 394.09 179.457 393.835 179.516C392.29 179.907 391.37 181.531 391.761 183.077C392.133 184.624 393.698 185.563 395.244 185.191C395.968 185.015 396.536 184.584 396.927 183.997C397.592 184.956 398.766 185.485 399.979 185.269C401.623 184.956 402.719 183.371 402.405 181.727C402.405 181.688 402.366 181.512 402.347 181.492C402.034 180.103 400.801 179.183 399.431 179.183C399.216 179.183 399.001 179.203 398.786 179.242C397.964 179.418 397.279 179.927 396.868 180.612L396.868 180.592ZM41.3636 196.052C41.5984 194.408 40.4831 192.902 38.8396 192.647C38.683 192.628 38.5265 192.608 38.37 192.608C36.922 192.608 35.6307 193.665 35.3763 195.152L35.3763 195.191C35.0632 196.835 36.1394 198.42 37.7829 198.733C39.4265 199.047 41.0115 197.951 41.3245 196.307C41.3245 196.268 41.3636 196.092 41.3636 196.052ZM403.208 234.84C401.623 234.84 400.292 236.112 400.175 237.717C400.057 239.38 401.31 240.848 402.973 240.966C404.656 241.103 406.104 239.831 406.221 238.167L406.221 238.03C406.358 236.367 405.086 234.977 403.423 234.84C403.345 234.84 403.286 234.84 403.208 234.84ZM37.1373 251.514L34.124 251.846C34.3001 253.51 35.8068 254.704 37.4699 254.528C39.1331 254.351 40.3462 252.845 40.1505 251.181C40.1505 251.142 40.131 250.966 40.1114 250.927C39.8766 249.42 38.6048 248.363 37.1177 248.363C36.9807 248.363 36.8438 248.363 36.6872 248.383C35.0437 248.617 33.8892 250.144 34.0849 251.788L37.0982 251.494L37.1373 251.514ZM79.4401 350.166C78.7749 350.714 78.4031 351.497 78.364 352.299C78.227 351.947 78.0509 351.634 77.7965 351.34C77.1704 350.616 76.2703 350.244 75.3898 350.244C74.6463 350.244 73.8832 350.499 73.2962 351.027C71.9657 352.182 71.8287 354.217 73.0027 355.528C73.0027 355.528 73.1006 355.626 73.1006 355.646C74.2745 356.957 76.2508 357.016 77.5617 355.861C78.227 355.274 78.5596 354.472 78.6183 353.65C78.7357 353.924 78.8727 354.178 79.0684 354.432C79.0684 354.452 79.2053 354.589 79.2053 354.609C80.3011 355.861 82.1403 355.939 83.4121 354.863C84.6644 353.787 84.8014 351.849 83.7252 350.558C83.1187 349.834 82.2577 349.462 81.3772 349.462C80.6924 349.462 80.0075 349.697 79.4401 350.166ZM126.517 390.206C127.065 389.306 127.065 388.21 126.615 387.31C126.752 387.173 126.889 387.017 127.006 386.84C127.887 385.51 127.456 383.69 126.126 382.809C125.637 382.476 125.089 382.32 124.541 382.32C123.602 382.32 122.702 382.77 122.154 383.592C121.606 384.433 121.528 385.431 121.9 386.292C121.665 386.488 121.45 386.723 121.293 386.997C120.412 388.426 120.882 390.304 122.31 391.165L122.428 391.244C123.856 392.124 125.656 391.615 126.537 390.187L126.517 390.206ZM175.042 412.105L175.786 409.17L175.101 412.125C175.218 412.144 175.316 412.144 175.434 412.164C175.081 414.082 176.334 415.902 178.251 416.274C178.329 416.274 178.466 416.313 178.564 416.313C180.501 416.528 182.223 415.139 182.438 413.201C182.654 411.303 181.304 409.581 179.406 409.326C179.229 409.307 179.073 409.287 178.897 409.287C178.877 409.287 178.858 409.287 178.819 409.287C178.897 407.839 177.938 406.508 176.471 406.176C176.451 406.176 176.275 406.136 176.255 406.136C176.06 406.097 175.844 406.078 175.649 406.078C174.24 406.078 172.988 407.076 172.675 408.504C172.342 410.148 173.399 411.753 175.042 412.086L175.042 412.105ZM248.554 60.7845C250.08 60.8823 251.489 59.669 251.587 58.0838C251.684 56.4986 250.471 55.1287 248.886 55.0309L248.534 57.8881L248.789 55.0309C248.789 55.0309 248.612 55.0309 248.515 55.0309C247.047 55.0309 245.795 56.1464 245.658 57.6532C245.521 59.2384 246.675 60.6279 248.26 60.7845C248.28 60.7845 248.495 60.7845 248.515 60.804L248.554 60.7845ZM179.856 61.2933C178.329 61.7238 177.527 63.2894 177.958 64.8159C178.388 66.3423 180.071 67.2034 181.577 66.7925C183.104 66.3619 183.945 64.7963 183.534 63.2699C183.182 61.9978 182.008 61.1563 180.736 61.1563C180.482 61.1563 180.227 61.1955 179.993 61.2542C179.993 61.2542 179.875 61.2737 179.875 61.2933L179.856 61.2933ZM316.782 77.8495C317.526 76.4405 316.998 74.6988 315.589 73.9551L315.413 73.8572C315.002 73.642 314.571 73.5441 314.141 73.5441C313.123 73.5441 312.145 74.1312 311.617 75.1097C310.873 76.5188 311.499 78.2801 312.889 79.0237C314.278 79.7674 316.019 79.239 316.782 77.8299L316.782 77.8495ZM120.471 94.7972C121.763 93.8774 122.076 92.0965 121.176 90.7853C120.608 89.9829 119.728 89.5719 118.828 89.5719C118.26 89.5719 117.673 89.7481 117.184 90.1003L117.047 90.1982C115.756 91.118 115.501 92.8597 116.421 94.1513C117.341 95.443 119.199 95.717 120.491 94.7972L120.471 94.7972ZM363.546 122.156C363.546 122.156 363.664 122.313 363.683 122.332C364.662 123.585 366.462 123.819 367.714 122.861C368.966 121.902 369.201 120.082 368.242 118.829L365.855 120.453L368.164 118.751C367.597 117.988 366.736 117.596 365.855 117.596C365.268 117.596 364.662 117.772 364.153 118.164C362.881 119.103 362.607 120.904 363.546 122.195L363.546 122.156ZM70.4004 144.329C71.7505 145.151 73.5506 144.681 74.392 143.35C75.2334 142 74.842 140.239 73.4919 139.378C73.0223 139.084 72.4745 138.927 71.9657 138.927C71.007 138.927 70.0874 139.397 69.5395 140.278C69.5395 140.278 69.4416 140.454 69.4221 140.474C68.6003 141.824 69.0699 143.507 70.4004 144.329ZM48.0163 208.675C49.562 208.929 51.0491 207.814 51.3426 206.268C51.6361 204.702 50.599 203.215 49.0337 202.921C48.8577 202.882 48.6815 202.882 48.5055 202.882C47.1358 202.882 45.9422 203.861 45.6879 205.231C45.6879 205.27 45.6487 205.466 45.6487 205.485C45.4139 207.031 46.4901 208.401 48.0358 208.675L48.0163 208.675ZM50.423 271.025C50.2273 271.025 50.0121 271.045 49.8164 271.084C48.2706 271.416 47.2727 272.943 47.6054 274.509L47.6445 274.685C47.9772 276.231 49.5033 277.131 51.0491 276.798C52.5949 276.466 53.5732 274.841 53.2406 273.295C52.9471 271.945 51.7535 271.025 50.4425 271.025L50.423 271.025ZM74.255 338.424L74.3333 338.522C75.1942 339.853 76.9747 340.225 78.3052 339.344C79.6358 338.483 80.0075 336.702 79.1271 335.371L79.0097 335.195C78.4618 334.373 77.5422 333.943 76.6226 333.943C76.0747 333.943 75.5073 334.099 75.0181 334.432C73.7071 335.332 73.355 337.113 74.255 338.424ZM190.793 410.54C191.067 408.974 189.932 407.487 188.367 407.213C188.211 407.193 188.034 407.174 187.878 407.174C186.508 407.174 185.295 408.172 185.041 409.561C184.923 410.207 185.041 410.833 185.334 411.362C185.197 411.655 185.08 411.949 185.021 412.281C184.767 414.023 185.98 415.647 187.741 415.902C187.76 415.902 187.897 415.921 187.917 415.921C189.639 416.117 191.185 414.884 191.4 413.162C191.517 412.281 191.243 411.44 190.715 410.775C190.715 410.696 190.754 410.618 190.774 410.54L190.793 410.54ZM258.865 74.3074L259.139 74.3465C260.607 74.5226 261.957 73.4072 262.113 71.9198C262.27 70.4325 261.174 69.1017 259.687 68.9452L259.55 68.9452C259.433 68.906 259.315 68.9061 259.198 68.9061C257.848 68.9061 256.693 69.9041 256.517 71.274C256.322 72.7613 257.378 74.1116 258.865 74.3074ZM181.832 78.4562C181.48 77.282 180.404 76.5187 179.23 76.5187C178.975 76.5187 178.721 76.5579 178.447 76.6362L178.212 76.7145C176.784 77.1646 176.06 78.6715 176.51 80.1001C176.96 81.5287 178.564 82.2919 179.993 81.8418C181.421 81.4113 182.243 79.9044 181.812 78.4562L181.832 78.4562ZM337.425 96.4019L336.975 96.0692C336.094 95.443 335.097 95.1299 334.099 95.1299C332.533 95.1299 330.988 95.8931 329.99 97.2826C328.366 99.5527 328.953 102.782 331.222 104.406C333.433 106.109 336.623 105.717 338.325 103.506C340.047 101.294 339.636 98.1045 337.425 96.4019ZM110.707 120.747L110.884 120.571C111.979 119.553 112.038 117.831 111.021 116.735C110.492 116.168 109.768 115.874 109.025 115.874C108.359 115.874 107.694 116.109 107.166 116.598L107.049 116.696C105.933 117.694 105.835 119.416 106.833 120.532C107.831 121.647 109.553 121.745 110.668 120.747L110.707 120.747ZM385.598 162.607C385.167 161.55 384.15 160.924 383.093 160.924C382.741 160.924 382.408 160.983 382.056 161.12C380.667 161.687 380.002 163.273 380.569 164.662L380.647 164.858C381.215 166.247 382.8 166.893 384.189 166.326C385.578 165.758 386.224 164.153 385.657 162.783L385.578 162.607L385.598 162.607ZM66.5654 183.528C66.2718 183.43 65.9784 183.371 65.6849 183.371C64.5696 183.371 63.513 184.076 63.1217 185.191L63.0434 185.426C62.5738 186.854 63.376 188.322 64.8044 188.772C66.2327 189.242 67.7785 188.381 68.2481 186.952C68.7373 185.543 67.9937 183.997 66.5654 183.488L66.5654 183.528ZM396.105 240.32C394.677 240.32 393.464 241.455 393.405 242.903L393.405 243.099C393.327 244.606 394.461 245.878 395.968 245.956C397.436 246.034 398.747 244.88 398.825 243.373L398.825 243.177C398.903 241.67 397.768 240.398 396.262 240.32C396.222 240.32 396.164 240.32 396.125 240.32L396.105 240.32ZM61.0867 266.035L61.0476 265.761C60.8324 264.41 59.6779 263.471 58.367 263.471C58.23 263.471 58.093 263.471 57.9365 263.51C56.4494 263.745 55.432 265.135 55.6668 266.602L55.6668 266.72C55.882 268.207 57.2517 269.264 58.7192 269.068C60.2063 268.872 61.2628 267.522 61.0672 266.035L61.0867 266.035ZM84.7427 343.043C85.584 344.276 87.2668 344.608 88.519 343.767C89.7713 342.925 90.0843 341.242 89.243 339.99L89.1256 339.814C88.5973 339.031 87.7559 338.62 86.8754 338.62C86.3471 338.62 85.8188 338.776 85.3492 339.09C84.097 339.931 83.7839 341.614 84.6253 342.867L84.7427 343.043ZM303.34 388.563C302.929 388.563 302.499 388.66 302.107 388.856L302.01 388.895C302.01 388.895 301.814 388.954 301.716 388.993C299.975 389.854 299.27 391.968 300.151 393.709C301.012 395.451 303.125 396.156 304.866 395.275L304.905 395.275C306.647 394.394 307.332 392.281 306.451 390.539C306.099 389.815 305.492 389.306 304.808 388.974C304.358 388.68 303.849 388.523 303.32 388.523L303.34 388.563ZM144.401 393.475C143.716 394.805 144.245 396.449 145.575 397.134L145.79 397.232C147.121 397.897 148.686 397.33 149.351 395.98C150.017 394.629 149.41 392.966 148.06 392.3C147.669 392.105 147.238 392.007 146.827 392.007C145.849 392.007 144.89 392.535 144.421 393.475L144.401 393.475ZM215.604 84.4838C215.799 85.8732 217.071 86.8713 218.48 86.6756L218.715 86.6364C220.104 86.4407 221.102 85.1687 220.906 83.7597C220.73 82.4681 219.634 81.5483 218.382 81.5483C218.265 81.5483 218.147 81.5482 218.05 81.5678L217.815 81.607C216.426 81.8027 215.428 83.0747 215.623 84.4838L215.604 84.4838ZM308.623 99.1417L308.799 99.22C310.071 99.8462 311.597 99.3178 312.223 98.0458C312.849 96.7737 312.321 95.2473 311.049 94.621L310.795 94.5036C310.443 94.347 310.091 94.2688 309.719 94.2688C308.76 94.2688 307.84 94.8167 307.39 95.7561C306.803 97.0282 307.351 98.5546 308.643 99.1417L308.623 99.1417ZM133.542 120.101C134.676 119.279 134.95 117.675 134.109 116.539C133.6 115.854 132.837 115.483 132.035 115.483C131.507 115.483 130.998 115.639 130.548 115.972L130.352 116.109C129.217 116.931 128.963 118.536 129.785 119.671C130.607 120.806 132.211 121.06 133.346 120.238L133.522 120.101L133.542 120.101ZM373.154 162.333L373.251 162.509C373.877 163.762 375.423 164.271 376.675 163.644C377.928 163.018 378.456 161.472 377.81 160.22L377.693 159.985C377.243 159.104 376.343 158.615 375.423 158.615C375.032 158.615 374.621 158.713 374.249 158.909C372.997 159.554 372.508 161.1 373.154 162.353L373.154 162.333ZM77.4835 189.418C77.2096 189.32 76.916 189.281 76.6421 189.281C75.5855 189.281 74.6072 189.947 74.2354 190.984L74.1767 191.16C73.6876 192.471 74.3528 193.958 75.6638 194.448C76.9748 194.937 78.4618 194.272 78.951 192.96L79.0488 192.686C79.5184 191.356 78.814 189.888 77.4835 189.418ZM388.787 251.67L388.748 252.101C388.611 254.214 390.196 256.034 392.309 256.171C394.481 256.348 396.242 254.704 396.379 252.61L396.379 252.355C396.379 252.355 396.379 252.199 396.379 252.101C396.849 252.766 397.592 253.236 398.453 253.314C400.038 253.451 401.427 252.297 401.584 250.711L398.747 250.281L401.603 250.633C401.799 249.048 400.664 247.619 399.099 247.424C398.981 247.424 398.864 247.404 398.747 247.404C397.318 247.404 396.066 248.48 395.89 249.929C395.89 249.929 395.89 250.007 395.89 250.066C395.283 249.028 394.207 248.304 392.935 248.187C392.818 248.187 392.7 248.187 392.583 248.187C390.626 248.187 388.963 249.674 388.787 251.67ZM72.1418 283.55C71.907 282.337 70.8309 281.495 69.6373 281.495C69.4612 281.495 69.3047 281.495 69.1286 281.554C67.7394 281.828 66.8588 283.178 67.1328 284.568L67.1719 284.802C67.4458 286.192 68.7959 287.072 70.1852 286.799C71.5744 286.525 72.4549 285.174 72.181 283.785L72.1418 283.55ZM117.008 361.282C115.853 360.147 114.347 359.579 112.84 359.579C111.334 359.579 109.768 360.166 108.614 361.36C106.305 363.709 106.344 367.466 108.673 369.756L109.025 370.108C111.334 372.437 115.11 372.437 117.419 370.108C119.747 367.779 119.747 364.022 117.419 361.713L117.008 361.302L117.008 361.282ZM286.904 396.332C286.591 396.332 286.278 396.391 285.965 396.508L285.75 396.606C285.75 396.606 285.593 396.723 285.495 396.762L285.3 396.273C284.713 396.508 284.224 396.88 283.852 397.35C283.187 397.819 282.736 398.563 282.619 399.346C282.404 400.05 282.404 400.813 282.697 401.557C283.382 403.279 285.319 404.14 287.041 403.455L287.119 403.455C288.548 402.868 289.33 401.459 289.193 400.011C289.507 399.385 289.565 398.661 289.291 397.956C288.9 396.958 287.941 396.332 286.904 396.332ZM192.143 407.917C191.889 409.307 192.809 410.638 194.198 410.892L194.433 410.931C195.822 411.166 197.152 410.246 197.387 408.857C197.642 407.467 196.702 406.136 195.313 405.902L195.098 405.862C194.941 405.843 194.785 405.823 194.628 405.823C193.415 405.823 192.339 406.684 192.124 407.917L192.143 407.917ZM234.348 93.9361L234.035 93.9361C232.724 94.0535 231.727 95.2081 231.844 96.5389C231.942 97.8501 233.135 98.8481 234.427 98.7307L234.642 98.7307C235.953 98.6329 236.97 97.5174 236.892 96.1866C236.814 94.9146 235.757 93.9361 234.505 93.9361C234.466 93.9361 234.407 93.9361 234.368 93.9361L234.348 93.9361ZM336.545 121.647C336.545 121.647 336.368 121.491 336.29 121.432L336.094 121.275C335.664 120.943 335.155 120.786 334.647 120.786C333.923 120.786 333.218 121.119 332.749 121.725C331.946 122.782 332.142 124.27 333.199 125.092L333.336 125.189C334.275 125.972 335.684 125.933 336.564 125.052C337.503 124.113 337.503 122.606 336.564 121.667L336.545 121.647ZM134.716 130.884L134.559 131.002C133.503 131.804 133.287 133.311 134.09 134.348C134.892 135.405 136.379 135.601 137.435 134.818L137.69 134.622C138.727 133.8 138.883 132.293 138.061 131.256C137.592 130.669 136.888 130.356 136.183 130.356C135.655 130.356 135.127 130.532 134.696 130.884L134.716 130.884ZM387.183 210.241C387.046 210.241 386.909 210.241 386.752 210.28C385.441 210.515 384.58 211.748 384.815 213.059L384.854 213.274C385.07 214.585 386.302 215.466 387.594 215.27C388.905 215.074 389.785 213.842 389.589 212.53L389.531 212.217C389.315 211.063 388.318 210.241 387.183 210.241ZM78.2857 220.593C78.0118 221.885 78.814 223.157 80.1054 223.45C81.3968 223.724 82.6686 222.922 82.9621 221.63L83.0208 221.415C83.3339 220.124 82.5317 218.832 81.2403 218.538C81.0642 218.499 80.8685 218.48 80.6924 218.48C79.6163 218.48 78.6183 219.223 78.364 220.319L78.3053 220.613L78.2857 220.593ZM89.2234 325.899C89.7908 327.093 91.2192 327.602 92.4128 327.034C93.6063 326.467 94.115 325.038 93.5476 323.845L93.4302 323.61C93.0193 322.749 92.1584 322.22 91.2583 322.22C90.9257 322.22 90.5735 322.299 90.2409 322.455C89.0473 323.023 88.519 324.432 89.0864 325.645L89.2038 325.899L89.2234 325.899ZM357.892 347.877L358.029 347.7C358.029 347.7 358.107 347.524 358.146 347.446C357.931 348.229 358.009 349.051 358.361 349.775C358.518 350.421 358.87 351.047 359.398 351.536C360.827 352.847 363.057 352.769 364.368 351.34L364.407 351.301C365.718 349.873 365.62 347.661 364.192 346.35C363.527 345.724 362.666 345.43 361.824 345.43C360.905 345.43 360.005 345.802 359.3 346.487L358.85 346.115C358.694 346.291 358.557 346.487 358.439 346.702C358.596 345.841 358.283 344.921 357.539 344.354C357.109 344.041 356.6 343.884 356.111 343.884C355.387 343.884 354.663 344.217 354.194 344.843L354.017 345.078C353.235 346.154 353.489 347.642 354.546 348.425C355.622 349.207 357.109 348.953 357.892 347.896L357.892 347.877ZM166.472 395.588L166.237 395.49C165.924 395.353 165.592 395.295 165.279 395.295C164.359 395.295 163.478 395.823 163.087 396.723C162.559 397.937 163.107 399.346 164.32 399.874L164.555 399.972C165.768 400.5 167.177 399.952 167.705 398.739C168.233 397.526 167.685 396.117 166.472 395.588ZM224.976 108.555L224.683 108.594C223.469 108.79 222.628 109.925 222.824 111.158C223.019 112.371 224.154 113.213 225.387 113.017L225.68 112.978C226.894 112.782 227.735 111.647 227.539 110.414C227.363 109.318 226.424 108.535 225.328 108.535C225.211 108.535 225.093 108.535 224.976 108.555ZM336.192 138.477C337.151 139.26 338.56 139.123 339.343 138.184C340.125 137.225 340.008 135.816 339.049 135.033L338.834 134.857C338.423 134.505 337.914 134.329 337.405 134.329C336.76 134.329 336.134 134.603 335.703 135.131C334.901 136.07 335.038 137.479 335.977 138.282L336.212 138.477L336.192 138.477ZM388.611 241.161L388.611 240.868C388.552 239.654 387.574 238.715 386.361 238.715C386.341 238.715 386.302 238.715 386.283 238.715C385.05 238.754 384.091 239.791 384.13 241.024L384.13 241.318C384.189 242.551 385.206 243.49 386.459 243.471C387.691 243.431 388.65 242.394 388.611 241.161ZM84.9579 275.82L84.9579 276.074C85.0557 277.307 86.1515 278.227 87.3646 278.149C88.5973 278.07 89.5169 276.994 89.4386 275.761L89.4386 275.428C89.3017 274.274 88.3429 273.393 87.1885 273.393C87.1298 273.393 87.0515 273.393 86.9928 273.393C85.7601 273.491 84.8601 274.587 84.9579 275.82ZM350.319 348.659L350.143 348.894C349.4 349.873 349.595 351.282 350.574 352.025C351.552 352.769 352.961 352.573 353.704 351.595L353.88 351.36C354.624 350.382 354.428 348.972 353.45 348.229C353.039 347.916 352.569 347.779 352.1 347.779C351.435 347.779 350.75 348.092 350.319 348.659ZM138.316 380.265L138.551 380.461C139.509 381.243 140.918 381.087 141.701 380.128C142.484 379.169 142.327 377.76 141.368 376.977L141.153 376.801C140.742 376.468 140.233 376.292 139.744 376.292C139.099 376.292 138.453 376.566 138.022 377.114C137.24 378.073 137.377 379.482 138.335 380.265L138.316 380.265ZM192.261 131.98C192.006 131.98 191.752 132.019 191.498 132.117L191.185 132.235C190.128 132.646 189.58 133.859 190.011 134.916C190.422 135.992 191.635 136.501 192.691 136.09L193.004 135.972C194.061 135.561 194.609 134.348 194.178 133.291C193.865 132.469 193.083 131.98 192.241 131.98L192.261 131.98ZM320.461 134.25C320.148 134.094 319.815 133.996 319.482 133.996C318.739 133.996 318.035 134.387 317.643 135.092C317.095 136.109 317.487 137.362 318.485 137.89L318.759 138.047C319.776 138.595 321.028 138.223 321.576 137.225C322.124 136.227 321.752 134.955 320.754 134.407L320.461 134.25ZM106.07 226.21L106.168 225.936C106.52 224.84 105.933 223.666 104.857 223.313C104.642 223.235 104.427 223.216 104.211 223.216C103.35 223.216 102.529 223.764 102.235 224.644L102.118 224.977C101.766 226.073 102.392 227.227 103.468 227.58C104.564 227.912 105.718 227.325 106.07 226.229L106.07 226.21ZM382.976 242.512C382.976 242.512 382.917 242.512 382.878 242.512C381.743 242.57 380.843 243.529 380.902 244.684L380.902 245.017C380.98 246.152 381.958 247.071 383.093 246.993C384.228 246.934 385.128 245.976 385.07 244.821L385.07 244.488C384.991 243.373 384.091 242.512 382.976 242.512ZM122.408 353.121C123.347 352.475 123.602 351.184 122.937 350.244L122.76 349.99C122.35 349.403 121.704 349.09 121.039 349.09C120.628 349.09 120.236 349.207 119.865 349.442C118.925 350.088 118.671 351.38 119.317 352.319L119.512 352.593C120.158 353.532 121.449 353.787 122.389 353.121L122.408 353.121ZM349.517 355.313L349.732 355.039C350.437 354.139 350.28 352.828 349.38 352.123C349.008 351.83 348.558 351.693 348.108 351.693C347.482 351.693 346.876 351.967 346.465 352.495L346.269 352.749C345.565 353.65 345.702 354.961 346.602 355.665C347.502 356.37 348.793 356.233 349.517 355.333L349.517 355.313ZM274.342 137.479L274.695 137.518C275.79 137.616 276.593 136.834 276.69 135.796C276.788 134.74 275.947 133.8 274.89 133.702L274.675 133.702C274.675 133.702 274.558 133.683 274.499 133.683C273.521 133.683 272.679 134.426 272.601 135.424C272.503 136.481 273.286 137.401 274.323 137.499L274.342 137.479ZM143.834 180.553C143.266 180.553 142.699 180.788 142.288 181.238L142.17 181.375C141.466 182.177 141.603 183.312 142.405 184.017C143.208 184.721 144.46 184.565 145.164 183.782L145.282 183.645C145.986 182.843 145.849 181.708 145.047 181.003C144.695 180.69 144.264 180.553 143.834 180.553ZM376.421 221.122C376.265 221.122 376.108 221.122 375.952 221.18C374.934 221.435 374.308 222.472 374.562 223.509L374.641 223.822C374.875 224.859 375.912 225.486 376.949 225.251C377.986 225.016 378.613 223.979 378.378 222.942L378.28 222.57C378.065 221.709 377.282 221.122 376.421 221.122ZM110.864 317.504L110.962 317.817C111.255 318.835 112.312 319.422 113.329 319.128C114.347 318.835 114.934 317.778 114.64 316.76L114.543 316.388C114.288 315.566 113.525 315.018 112.703 315.018C112.527 315.018 112.331 315.038 112.155 315.097C111.138 315.39 110.57 316.467 110.864 317.484L110.864 317.504ZM345.33 358.992L345.565 358.718C346.23 357.896 346.113 356.703 345.291 356.018C344.939 355.724 344.508 355.587 344.078 355.587C343.53 355.587 342.962 355.822 342.591 356.292L342.356 356.566C341.69 357.388 341.808 358.581 342.63 359.266C343.451 359.932 344.665 359.814 345.33 358.992ZM214.899 408.563C215.975 408.7 216.915 407.976 217.052 406.919C217.189 405.862 216.465 404.904 215.408 404.767L215.075 404.727C215.075 404.727 214.899 404.708 214.801 404.708C213.862 404.708 213.04 405.393 212.904 406.352C212.747 407.389 213.471 408.367 214.528 408.524L214.899 408.583L214.899 408.563ZM204.255 161.903L205.018 161.609C206.916 160.885 207.875 158.772 207.151 156.873C206.584 155.405 205.194 154.505 203.707 154.505C203.277 154.505 202.827 154.584 202.396 154.74L201.633 155.034C199.735 155.758 198.776 157.891 199.5 159.789C200.224 161.687 202.357 162.646 204.236 161.922L204.255 161.903ZM350.202 181.101C349.85 180.729 349.38 180.533 348.911 180.533C348.48 180.533 348.069 180.69 347.737 180.983C347.013 181.629 346.973 182.745 347.619 183.469L347.874 183.743C348.519 184.467 349.635 184.526 350.358 183.86C351.082 183.214 351.141 182.099 350.476 181.375L350.202 181.081L350.202 181.101ZM117.849 283.041C119.786 283.139 121.547 281.612 121.665 279.616L121.704 278.853C121.841 276.857 120.315 275.135 118.319 274.998C118.241 274.998 118.162 274.998 118.084 274.998C116.186 274.998 114.601 276.466 114.464 278.383L114.406 279.244C114.308 281.241 115.834 282.963 117.83 283.061L117.849 283.041ZM359.516 328.404L359.34 328.776C358.909 329.657 359.281 330.694 360.161 331.125C361.042 331.555 362.079 331.183 362.509 330.322L362.666 329.99C363.096 329.128 362.744 328.072 361.883 327.641C361.629 327.524 361.355 327.465 361.101 327.465C360.455 327.465 359.848 327.817 359.535 328.444L359.516 328.404ZM197.837 399.072L197.485 398.954C197.309 398.896 197.113 398.876 196.937 398.876C196.194 398.876 195.509 399.346 195.274 400.089C194.981 401.009 195.47 402.007 196.389 402.301L196.761 402.418C197.681 402.712 198.679 402.203 198.972 401.283C199.266 400.363 198.757 399.365 197.837 399.072ZM272.19 163.077L272.601 163.077C273.462 163.136 274.225 162.47 274.284 161.59C274.323 160.709 273.658 159.965 272.777 159.907L272.347 159.907C272.347 159.907 272.288 159.887 272.268 159.887C271.427 159.887 270.723 160.552 270.684 161.394C270.644 162.275 271.31 163.018 272.19 163.057L272.19 163.077ZM138.061 240.75C137.866 240.672 137.67 240.633 137.475 240.633C136.848 240.633 136.242 241.024 135.987 241.651L135.831 242.042C135.518 242.864 135.909 243.784 136.731 244.116C137.553 244.449 138.472 244.038 138.805 243.216L138.962 242.825C139.275 242.003 138.883 241.083 138.061 240.75ZM373.995 269.655C373.154 269.655 372.449 270.321 372.41 271.162L372.41 271.554C372.332 272.434 372.997 273.178 373.877 273.237C374.797 273.295 375.521 272.63 375.56 271.749L375.56 271.319C375.619 270.438 374.954 269.694 374.073 269.655C374.054 269.655 374.014 269.655 373.995 269.655ZM336.975 366.37L337.249 366.057C337.836 365.392 337.758 364.394 337.112 363.807C336.818 363.533 336.427 363.415 336.055 363.415C335.605 363.415 335.175 363.591 334.862 363.963L334.588 364.276C334.001 364.942 334.079 365.94 334.725 366.527C335.39 367.114 336.388 367.036 336.975 366.39L336.975 366.37ZM181.988 390.128L181.636 389.932C181.382 389.776 181.108 389.717 180.834 389.717C180.286 389.717 179.758 389.991 179.464 390.5C179.014 391.263 179.269 392.242 180.032 392.672L180.403 392.888C181.167 393.338 182.145 393.064 182.575 392.3C183.025 391.537 182.751 390.559 181.988 390.128ZM339.362 192.119C338.814 191.708 338.169 191.512 337.523 191.512C336.584 191.512 335.664 191.943 335.057 192.745C334.04 194.095 334.333 196.033 335.684 197.031L336.466 197.618C337.836 198.636 339.753 198.342 340.751 196.992C341.769 195.641 341.475 193.704 340.125 192.706L339.343 192.119L339.362 192.119ZM171.833 212.746L172.146 212.393C172.675 211.806 172.616 210.886 172.029 210.378C171.755 210.143 171.422 210.025 171.07 210.025C170.679 210.025 170.288 210.182 169.994 210.515L169.701 210.847C169.172 211.434 169.211 212.335 169.798 212.863C170.385 213.391 171.285 213.352 171.814 212.765L171.833 212.746ZM341.612 359.579C342.082 358.953 341.964 358.053 341.338 357.564C341.084 357.368 340.771 357.27 340.477 357.27C340.047 357.27 339.616 357.466 339.343 357.838L339.069 358.19C338.677 358.699 338.697 359.384 339.069 359.893C338.971 359.971 338.853 360.01 338.775 360.127L338.521 360.421C337.895 361.165 337.973 362.26 338.716 362.887C339.46 363.513 340.556 363.435 341.182 362.691L341.436 362.397C342.043 361.693 341.964 360.636 341.299 359.99C341.299 359.99 341.338 359.971 341.358 359.951L341.651 359.579L341.612 359.579ZM166.942 378.093C167.49 378.66 168.409 378.66 168.977 378.093C169.544 377.545 169.544 376.625 168.977 376.057L168.683 375.764L167.646 376.742L166.707 377.819L166.942 378.073L166.942 378.093ZM219.145 194.056C218.989 194.056 218.832 194.076 218.695 194.135L218.245 194.311C217.6 194.565 217.267 195.309 217.521 195.955C217.776 196.6 218.519 196.933 219.165 196.679L219.615 196.503C220.28 196.248 220.593 195.504 220.339 194.859C220.143 194.35 219.654 194.037 219.145 194.037L219.145 194.056ZM370.14 267.326C370.845 267.268 371.373 266.661 371.314 265.956L371.275 265.467C371.216 264.802 370.669 264.293 370.003 264.293C369.964 264.293 369.945 264.293 369.905 264.293C369.201 264.352 368.673 264.958 368.731 265.663L368.771 266.152C368.829 266.857 369.495 267.385 370.14 267.326ZM158.332 358.033L158.567 358.464C158.9 359.071 159.683 359.305 160.289 358.953C160.896 358.601 161.13 357.838 160.778 357.231L160.543 356.82C160.309 356.389 159.878 356.155 159.428 356.155C159.213 356.155 159.017 356.213 158.822 356.311C158.195 356.644 157.98 357.427 158.313 358.033L158.332 358.033ZM328.62 373.729L328.972 373.376C329.461 372.867 329.461 372.065 328.972 371.576C328.718 371.341 328.405 371.204 328.072 371.204C327.74 371.204 327.407 371.321 327.172 371.576L326.839 371.909C326.35 372.398 326.35 373.22 326.839 373.709C327.329 374.198 328.15 374.198 328.64 373.709L328.62 373.729ZM275.106 198.166C275.712 198.166 276.221 197.677 276.221 197.05C276.221 196.424 275.732 195.935 275.106 195.935L274.597 195.935C273.99 195.935 273.482 196.424 273.482 197.05C273.482 197.677 273.971 198.166 274.597 198.166L275.106 198.166ZM158.274 335.665C158.88 335.547 159.272 334.96 159.135 334.354L159.037 333.845C158.919 333.316 158.469 332.945 157.941 332.945C157.863 332.945 157.785 332.945 157.726 332.964C157.119 333.082 156.728 333.669 156.865 334.275L156.963 334.784C157.08 335.391 157.667 335.782 158.274 335.645L158.274 335.665ZM349.791 342.123L349.517 342.573C349.204 343.101 349.4 343.786 349.928 344.1C350.456 344.413 351.141 344.217 351.454 343.689L351.709 343.258C352.022 342.73 351.846 342.045 351.317 341.732C351.141 341.634 350.945 341.575 350.75 341.575C350.378 341.575 350.006 341.771 349.791 342.123ZM324.413 377.408L324.805 377.055C325.255 376.644 325.274 375.94 324.863 375.49C324.648 375.255 324.355 375.138 324.041 375.138C323.768 375.138 323.494 375.235 323.278 375.431L322.907 375.764C322.457 376.175 322.417 376.879 322.828 377.329C323.239 377.78 323.944 377.819 324.394 377.408L324.413 377.408ZM330.714 223.235C330.968 222.785 330.812 222.198 330.361 221.944L329.872 221.67C329.716 221.591 329.559 221.552 329.403 221.552C329.07 221.552 328.737 221.728 328.581 222.041C328.327 222.491 328.483 223.079 328.933 223.333L329.403 223.607C329.853 223.861 330.44 223.705 330.694 223.255L330.714 223.235ZM166.179 308.286C165.689 308.286 165.279 308.658 165.239 309.147L165.181 309.695C165.122 310.224 165.513 310.674 166.042 310.733C166.531 310.772 167.02 310.4 167.079 309.872L167.137 309.343C167.196 308.815 166.805 308.345 166.296 308.306C166.257 308.306 166.237 308.306 166.198 308.306L166.179 308.286ZM365.366 276.446C365.796 276.329 366.051 275.898 365.933 275.487L365.777 274.92C365.679 274.567 365.366 274.332 365.014 274.332C364.936 274.332 364.877 274.332 364.799 274.352C364.368 274.469 364.133 274.9 364.251 275.331L364.407 275.878C364.525 276.309 364.955 276.563 365.366 276.446ZM181.538 285.018L181.049 286.211C180.677 287.112 181.108 288.149 182.008 288.521C182.888 288.893 183.945 288.462 184.317 287.562L184.806 286.368C185.178 285.468 184.747 284.431 183.847 284.059C183.632 283.961 183.397 283.922 183.162 283.922C182.478 283.922 181.812 284.333 181.538 284.998L181.538 285.018ZM208.481 266.876L208.071 267.346C207.836 267.6 207.875 268.011 208.129 268.227C208.384 268.461 208.795 268.422 209.029 268.168L209.421 267.718C209.655 267.463 209.636 267.052 209.362 266.818C209.245 266.72 209.088 266.661 208.951 266.661C208.775 266.661 208.599 266.739 208.481 266.876ZM356.072 340.049L356.365 339.501C356.522 339.187 356.405 338.816 356.111 338.639C356.013 338.581 355.915 338.561 355.818 338.561C355.583 338.561 355.368 338.679 355.25 338.894L354.957 339.422C354.8 339.735 354.898 340.107 355.211 340.283C355.524 340.44 355.896 340.342 356.072 340.029L356.072 340.049ZM357.246 278.657C357.383 278.873 357.696 278.931 357.892 278.775C358.107 278.638 358.166 278.344 358.009 278.129L357.657 277.601C357.559 277.464 357.422 277.385 357.265 277.385C357.168 277.385 357.089 277.405 356.992 277.464C356.776 277.601 356.718 277.894 356.874 278.109L357.226 278.638L357.246 278.657ZM361.922 285.663C362.157 285.546 362.235 285.253 362.118 285.037L361.824 284.47C361.746 284.313 361.57 284.215 361.414 284.215C361.335 284.215 361.257 284.215 361.198 284.274C360.964 284.391 360.885 284.685 361.003 284.92L361.296 285.487C361.414 285.722 361.707 285.8 361.922 285.683L361.922 285.663ZM196.957 368.053C197.192 367.955 197.309 367.681 197.211 367.427L196.976 366.84C196.898 366.664 196.722 366.546 196.546 366.546C196.487 366.546 196.429 366.546 196.37 366.585C196.135 366.683 196.018 366.957 196.115 367.192L196.37 367.799C196.468 368.034 196.742 368.151 196.996 368.053L196.957 368.053Z" fill="url(#paint0_linear_145_252)"/>
<defs>
<linearGradient id="paint0_linear_145_252" x1="262.196" y1="44.9979" x2="191.954" y2="438.328" gradientUnits="userSpaceOnUse">
<stop stop-color="#34FFD3"/>
<stop offset="0.38369" stop-color="#00CCAB"/>
<stop offset="1" stop-color="#DEA5E3"/>
</linearGradient>
</defs>
</svg>
