<svg width="720" height="720" viewBox="0 0 720 720" fill="none" xmlns="http://www.w3.org/2000/svg">
<g filter="url(#filter0_d_509_9744)">
<rect x="282" y="282" width="156" height="156" rx="15" fill="url(#paint0_linear_509_9744)"/>
</g>
<rect x="262.5" y="263.5" width="194" height="194" rx="18.5" stroke="url(#paint1_linear_509_9744)" stroke-width="3"/>
<path d="M391.035 374.767C387.073 374.261 383.371 375.342 380.476 377.463C374.584 381.781 367.639 384.423 360.331 384.423H359.229C359.154 384.423 359.078 384.423 359.003 384.423C346.063 384.327 335.436 373.707 335.341 360.76C335.341 360.685 335.341 360.609 335.341 360.534V359.432C335.341 359.357 335.341 359.282 335.341 359.207C335.436 346.253 346.077 335.626 359.024 335.551C359.092 335.551 359.154 335.551 359.222 335.551H360.331C367.557 335.551 374.523 338.014 380.291 342.373C382.741 344.228 385.793 345.322 389.098 345.322C397.748 345.322 404.652 337.829 403.667 328.982C402.934 322.365 397.631 316.966 391.021 316.124C386.696 315.57 382.693 316.911 379.696 319.422C375.002 323.364 369.22 325.779 363.095 325.779H361.35C353.392 325.779 345.317 323.774 339.084 318.827C339.056 318.799 339.022 318.786 338.988 318.765C338.714 318.567 338.434 318.389 338.153 318.211C338.078 318.163 338.002 318.108 337.927 318.06C337.174 317.609 336.381 317.232 335.553 316.925C335.491 316.897 335.423 316.883 335.354 316.856C335.005 316.733 334.649 316.617 334.294 316.521C334.198 316.493 334.095 316.473 333.999 316.446C333.671 316.363 333.342 316.295 333.014 316.233C332.877 316.213 332.74 316.192 332.603 316.172C332.446 316.151 332.289 316.117 332.131 316.097C332.022 316.083 331.919 316.09 331.81 316.076C331.509 316.049 331.201 316.035 330.893 316.021C330.681 316.021 330.475 316.008 330.263 316.008C329.955 316.008 329.64 316.035 329.326 316.055C329.127 316.069 328.929 316.076 328.737 316.103C328.669 316.11 328.594 316.11 328.525 316.117C327.622 316.233 326.746 316.439 325.897 316.719C325.836 316.74 325.767 316.767 325.706 316.788C325.329 316.918 324.953 317.061 324.59 317.226C324.467 317.28 324.351 317.335 324.235 317.39C323.934 317.534 323.639 317.684 323.352 317.848C323.215 317.924 323.078 317.999 322.941 318.074C322.64 318.252 322.353 318.451 322.072 318.649L321.231 319.285C321.094 319.395 320.957 319.504 320.82 319.621C320.628 319.792 320.444 319.97 320.259 320.148C320.129 320.278 319.992 320.408 319.862 320.544C319.677 320.736 319.506 320.928 319.335 321.126C319.212 321.27 319.096 321.42 318.979 321.564C318.822 321.762 318.665 321.961 318.514 322.166C318.357 322.385 318.213 322.611 318.069 322.844C317.919 323.083 317.775 323.323 317.638 323.569C317.474 323.856 317.323 324.151 317.18 324.459C317.111 324.595 317.056 324.739 316.995 324.883C316.865 325.191 316.742 325.499 316.625 325.82C316.584 325.95 316.536 326.073 316.495 326.203C316.372 326.58 316.27 326.956 316.181 327.346C316.16 327.421 316.139 327.497 316.126 327.579C316.023 328.044 315.941 328.51 315.893 328.989C315.893 329.009 315.893 329.023 315.893 329.043C315.859 329.351 315.852 329.666 315.838 329.974C315.832 330.2 315.804 330.426 315.804 330.644C315.804 330.644 315.804 330.658 315.804 330.665C315.804 331.144 315.832 331.623 315.879 332.088C315.893 332.232 315.914 332.376 315.934 332.513C315.975 332.848 316.03 333.183 316.092 333.512C316.126 333.669 316.153 333.826 316.187 333.984C316.27 334.326 316.358 334.661 316.461 334.99C316.495 335.106 316.53 335.229 316.564 335.346C316.707 335.763 316.865 336.167 317.043 336.57C317.118 336.735 317.2 336.899 317.282 337.063C317.399 337.303 317.515 337.535 317.645 337.768C317.748 337.96 317.857 338.144 317.973 338.329C318.09 338.521 318.213 338.699 318.336 338.883C318.466 339.082 318.596 339.273 318.74 339.465L318.753 339.479C323.194 345.863 325.576 353.452 325.576 361.232V361.622C325.576 368.527 322.846 374.966 318.747 380.515C318.706 380.57 318.665 380.632 318.623 380.693C318.507 380.851 318.398 381.015 318.288 381.179C318.179 381.343 318.076 381.501 317.973 381.665C317.864 381.843 317.761 382.014 317.665 382.199C317.577 382.356 317.488 382.513 317.405 382.678C317.303 382.876 317.207 383.075 317.111 383.28C317.043 383.424 316.981 383.574 316.92 383.725C316.824 383.95 316.735 384.176 316.653 384.409C316.605 384.546 316.557 384.676 316.516 384.813C316.434 385.059 316.358 385.305 316.297 385.558C316.263 385.688 316.228 385.825 316.201 385.962C316.139 386.215 316.085 386.469 316.044 386.722C316.016 386.879 315.996 387.043 315.968 387.201C315.948 387.351 315.914 387.495 315.9 387.646C315.893 387.714 315.9 387.776 315.886 387.844C315.838 388.289 315.811 388.74 315.811 389.192C315.811 389.226 315.811 389.267 315.811 389.302C315.811 389.308 315.811 389.315 315.811 389.322C315.811 389.589 315.838 389.856 315.852 390.123C315.866 390.383 315.866 390.65 315.893 390.903C315.921 391.17 315.975 391.423 316.016 391.683C316.057 391.936 316.085 392.203 316.139 392.449C316.194 392.702 316.276 392.949 316.345 393.202C316.413 393.448 316.468 393.701 316.55 393.941C316.632 394.187 316.735 394.42 316.831 394.659C316.92 394.892 317.002 395.138 317.104 395.364C317.207 395.59 317.33 395.809 317.446 396.028C317.563 396.254 317.672 396.493 317.802 396.712C317.925 396.924 318.076 397.123 318.206 397.335C318.343 397.547 318.48 397.766 318.63 397.978C318.781 398.184 318.945 398.368 319.102 398.56C319.26 398.752 319.41 398.957 319.581 399.142C319.746 399.326 319.93 399.491 320.102 399.668C320.279 399.846 320.451 400.038 320.642 400.209C320.82 400.373 321.018 400.517 321.203 400.668C321.402 400.832 321.6 401.003 321.812 401.16C322.011 401.304 322.223 401.427 322.428 401.564C322.64 401.708 322.852 401.858 323.071 401.988C323.29 402.118 323.516 402.221 323.742 402.337C323.968 402.454 324.187 402.584 324.419 402.686C324.645 402.789 324.885 402.871 325.117 402.96C325.364 403.056 325.596 403.158 325.85 403.247C326.089 403.329 326.335 403.384 326.582 403.453C326.835 403.521 327.081 403.603 327.341 403.658C327.594 403.713 327.854 403.74 328.108 403.781C328.368 403.822 328.628 403.877 328.888 403.904C329.148 403.932 329.408 403.932 329.668 403.945C329.935 403.959 330.195 403.986 330.468 403.986C330.475 403.986 330.482 403.986 330.489 403.986C330.523 403.986 330.564 403.986 330.598 403.986C331.057 403.986 331.502 403.952 331.947 403.911C332.015 403.911 332.077 403.911 332.145 403.897C332.296 403.884 332.439 403.849 332.59 403.829C332.747 403.808 332.911 403.781 333.069 403.754C333.322 403.706 333.575 403.651 333.828 403.596C333.965 403.562 334.095 403.535 334.232 403.5C334.485 403.432 334.732 403.357 334.978 403.282C335.115 403.24 335.252 403.193 335.388 403.145C335.621 403.063 335.847 402.974 336.066 402.878C336.216 402.816 336.367 402.748 336.511 402.686C336.716 402.59 336.914 402.495 337.113 402.399C337.277 402.317 337.434 402.228 337.592 402.139C337.77 402.036 337.948 401.933 338.119 401.831C338.283 401.728 338.447 401.626 338.605 401.516C338.769 401.407 338.933 401.297 339.09 401.181C339.145 401.14 339.207 401.099 339.268 401.058C344.818 396.952 351.257 394.228 358.162 394.228H360.344C367.57 394.228 374.537 396.692 380.305 401.051C382.755 402.905 385.807 404 389.112 404C397.761 404 404.666 396.507 403.68 387.659C402.948 381.042 397.645 375.643 391.035 374.801V374.767Z" fill="#003038"/>
<path d="M359.789 374.651C367.887 374.651 374.453 368.086 374.453 359.987C374.453 351.888 367.887 345.323 359.789 345.323C351.69 345.323 345.124 351.888 345.124 359.987C345.124 368.086 351.69 374.651 359.789 374.651Z" fill="#003038"/>
<defs>
<filter id="filter0_d_509_9744" x="0" y="0" width="720" height="720" filterUnits="userSpaceOnUse" color-interpolation-filters="sRGB">
<feFlood flood-opacity="0" result="BackgroundImageFix"/>
<feColorMatrix in="SourceAlpha" type="matrix" values="0 0 0 0 0 0 0 0 0 0 0 0 0 0 0 0 0 0 127 0" result="hardAlpha"/>
<feMorphology radius="32" operator="dilate" in="SourceAlpha" result="effect1_dropShadow_509_9744"/>
<feOffset/>
<feGaussianBlur stdDeviation="125"/>
<feComposite in2="hardAlpha" operator="out"/>
<feColorMatrix type="matrix" values="0 0 0 0 0.203922 0 0 0 0 1 0 0 0 0 0.827451 0 0 0 0.5 0"/>
<feBlend mode="normal" in2="BackgroundImageFix" result="effect1_dropShadow_509_9744"/>
<feBlend mode="normal" in="SourceGraphic" in2="effect1_dropShadow_509_9744" result="shape"/>
</filter>
<linearGradient id="paint0_linear_509_9744" x1="471.553" y1="301.609" x2="282" y2="375.251" gradientUnits="userSpaceOnUse">
<stop stop-color="#34FFD3"/>
<stop offset="0.498284" stop-color="#00CCAB"/>
<stop offset="1" stop-color="#DEA5E3"/>
</linearGradient>
<linearGradient id="paint1_linear_509_9744" x1="452.334" y1="265.051" x2="261" y2="396.675" gradientUnits="userSpaceOnUse">
<stop stop-color="#34FFD3"/>
<stop offset="0.71" stop-color="#00CCAB"/>
<stop offset="0.975" stop-color="#DEA5E3"/>
</linearGradient>
</defs>
</svg>
