<svg width="108" height="30" viewBox="0 0 108 30" fill="none" xmlns="http://www.w3.org/2000/svg">
<path d="M25.4034 19.8442C24.0655 19.6732 22.8154 20.0383 21.838 20.7546C19.8485 22.2126 17.5032 23.1045 15.0354 23.1045H14.6634C14.638 23.1045 14.6126 23.1045 14.5872 23.1045C10.2177 23.0722 6.62927 19.486 6.59692 15.1143C6.59692 15.0888 6.59692 15.0634 6.59692 15.038V14.666C6.59692 14.6406 6.59692 14.6152 6.59692 14.5897C6.62927 10.2157 10.2223 6.62722 14.5941 6.6018C14.6172 6.6018 14.638 6.6018 14.6611 6.6018H15.0354C17.4755 6.6018 19.8277 7.43364 21.7756 8.90552C22.6028 9.53171 23.6334 9.90142 24.7494 9.90142C27.6701 9.90142 30.0016 7.37125 29.6688 4.38357C29.4216 2.14917 27.6308 0.326058 25.3987 0.0418471C23.9384 -0.145316 22.5867 0.307573 21.5746 1.15558C19.9895 2.48652 18.037 3.30218 15.9689 3.30218H15.3797C12.6924 3.30218 9.96586 2.62516 7.86085 0.954556C7.85161 0.945314 7.84006 0.940692 7.8285 0.93376C7.73608 0.866751 7.64134 0.806674 7.5466 0.746597C7.52119 0.730423 7.49577 0.711937 7.47035 0.695763C7.21618 0.54326 6.94814 0.416173 6.66855 0.312194C6.64776 0.302951 6.62465 0.29833 6.60154 0.289087C6.4837 0.247496 6.36355 0.208214 6.24339 0.175865C6.21104 0.166623 6.17638 0.159691 6.14403 0.150448C6.03312 0.12272 5.92221 0.0996135 5.8113 0.0788176C5.76509 0.0718856 5.71887 0.0649537 5.67266 0.0580217C5.61952 0.0510897 5.56637 0.0395364 5.51323 0.0326045C5.47626 0.0279832 5.4416 0.0302938 5.40462 0.0256725C5.30296 0.0164299 5.19898 0.0118086 5.095 0.00718726C5.02337 0.00718726 4.95405 0.00256594 4.88242 0.00256594C4.77844 0.00256594 4.67215 0.0118086 4.56586 0.0187405C4.49885 0.0233619 4.43184 0.0256725 4.36714 0.0349151C4.34403 0.0372258 4.31862 0.0372258 4.29551 0.0395364C3.9905 0.0788176 3.69474 0.148137 3.40822 0.242874C3.38742 0.249806 3.36432 0.259049 3.34352 0.265981C3.21643 0.309883 3.08935 0.358407 2.96688 0.413863C2.92529 0.432348 2.88601 0.450833 2.84673 0.469318C2.74506 0.517842 2.6457 0.568677 2.54865 0.624132C2.50244 0.64955 2.45623 0.674967 2.41001 0.700384C2.30835 0.760461 2.2113 0.82747 2.11656 0.894479L1.83235 1.10937C1.78614 1.14634 1.73992 1.18331 1.69371 1.22259C1.62901 1.28036 1.56662 1.34044 1.50424 1.40051C1.46033 1.44442 1.41412 1.48832 1.37022 1.53453C1.30783 1.59923 1.25006 1.66393 1.1923 1.73094C1.15071 1.77946 1.11143 1.8303 1.07214 1.87882C1.019 1.94583 0.965854 2.01284 0.91502 2.08216C0.861875 2.1561 0.813351 2.23235 0.764827 2.31091C0.713993 2.39178 0.665469 2.47266 0.619256 2.55584C0.5638 2.65289 0.512966 2.75225 0.464442 2.85623C0.441335 2.90244 0.42285 2.95096 0.402054 2.99949C0.358152 3.10347 0.31656 3.20745 0.277279 3.31605C0.263415 3.35995 0.24724 3.40154 0.233376 3.44544C0.191784 3.57253 0.157125 3.69962 0.127086 3.83132C0.120154 3.85674 0.113222 3.88216 0.108601 3.90989C0.073941 4.06701 0.0462131 4.22413 0.0300385 4.38588C0.0300385 4.39281 0.0300385 4.39743 0.0300385 4.40437C0.0184852 4.50835 0.0161746 4.61464 0.0115533 4.71862C0.00924262 4.79487 0 4.87112 0 4.94506C0 4.94506 0 4.94968 0 4.95199C0 5.11374 0.00924262 5.27548 0.0254172 5.43261C0.0300385 5.48113 0.0369705 5.52965 0.0439025 5.57587C0.0577664 5.68909 0.0762516 5.80231 0.0970476 5.91322C0.108601 5.96637 0.117843 6.01951 0.129397 6.07266C0.157125 6.18819 0.187163 6.30141 0.221823 6.41233C0.233376 6.45161 0.24493 6.4932 0.256483 6.53248C0.305007 6.67343 0.358152 6.80976 0.418229 6.94609C0.443646 7.00154 0.471374 7.057 0.499102 7.11245C0.538383 7.19333 0.577664 7.27189 0.621567 7.35045C0.656226 7.41515 0.693197 7.47754 0.732478 7.53993C0.771759 7.60463 0.813351 7.6647 0.854943 7.72709C0.898845 7.7941 0.942748 7.8588 0.991271 7.9235L0.995893 7.92812C2.49551 10.084 3.29962 12.6465 3.29962 15.2737V15.4054C3.29962 17.7369 2.37767 19.9112 0.993582 21.7851C0.979718 21.8036 0.965854 21.8244 0.95199 21.8452C0.912709 21.8983 0.875739 21.9538 0.838768 22.0093C0.801798 22.0647 0.767138 22.1179 0.732478 22.1733C0.695508 22.2334 0.660848 22.2912 0.628498 22.3535C0.59846 22.4067 0.568421 22.4598 0.540694 22.5153C0.506034 22.5823 0.473685 22.6493 0.441335 22.7186C0.418229 22.7672 0.397433 22.818 0.376637 22.8688C0.344288 22.9451 0.314249 23.0213 0.286521 23.0999C0.270347 23.1461 0.254172 23.19 0.240308 23.2362C0.21258 23.3194 0.187163 23.4026 0.166367 23.4881C0.154814 23.532 0.143261 23.5782 0.134018 23.6244C0.113222 23.7099 0.0947369 23.7954 0.080873 23.8809C0.0716303 23.934 0.0646984 23.9895 0.0554557 24.0426C0.0485238 24.0935 0.0369705 24.142 0.0323492 24.1928C0.0300385 24.2159 0.0323492 24.2367 0.0277279 24.2598C0.0115533 24.41 0.00231066 24.5625 0.00231066 24.715C0.00231066 24.7266 0.00231066 24.7405 0.00231066 24.752C0.00231066 24.7543 0.00231066 24.7566 0.00231066 24.7589C0.00231066 24.8491 0.0115533 24.9392 0.0161746 25.0293C0.0207959 25.1171 0.0207959 25.2072 0.0300385 25.2927C0.0392812 25.3828 0.0577664 25.4683 0.0716303 25.5561C0.0854943 25.6416 0.0947369 25.7317 0.113222 25.8149C0.131707 25.9004 0.159435 25.9836 0.182542 26.0691C0.205648 26.1523 0.224134 26.2378 0.251862 26.3186C0.279589 26.4018 0.314249 26.4804 0.346598 26.5612C0.376637 26.6398 0.404365 26.723 0.439025 26.7992C0.473685 26.8755 0.515276 26.9494 0.554558 27.0234C0.593839 27.0996 0.630809 27.1805 0.674712 27.2544C0.716303 27.3261 0.767138 27.3931 0.81104 27.4647C0.857253 27.5363 0.903467 27.6103 0.954301 27.6819C1.00514 27.7512 1.06059 27.8136 1.11374 27.8783C1.16688 27.943 1.21772 28.0123 1.27548 28.0747C1.33094 28.1371 1.39333 28.1926 1.45109 28.2526C1.51117 28.3127 1.56894 28.3774 1.63363 28.4352C1.69371 28.4906 1.76072 28.5392 1.82311 28.59C1.89012 28.6455 1.95713 28.7032 2.02876 28.7564C2.09577 28.8049 2.1674 28.8465 2.23672 28.8927C2.30835 28.9412 2.37998 28.9921 2.45392 29.036C2.52786 29.0799 2.60411 29.1145 2.68036 29.1538C2.75661 29.1931 2.83055 29.237 2.90912 29.2716C2.98537 29.3063 3.06624 29.334 3.1448 29.3641C3.22799 29.3964 3.30655 29.4311 3.39204 29.4611C3.47292 29.4888 3.5561 29.5073 3.63928 29.5304C3.72478 29.5535 3.80796 29.5813 3.89577 29.5998C3.98126 29.6182 4.06907 29.6275 4.15456 29.6414C4.24236 29.6552 4.33017 29.6737 4.41797 29.6829C4.50578 29.6922 4.59358 29.6922 4.68139 29.6968C4.7715 29.7014 4.85931 29.7107 4.95174 29.7107C4.95405 29.7107 4.95636 29.7107 4.95867 29.7107C4.97022 29.7107 4.98409 29.7107 4.99564 29.7107C5.15045 29.7107 5.30065 29.6991 5.45084 29.6853C5.47394 29.6853 5.49474 29.6853 5.51785 29.6806C5.56868 29.676 5.61721 29.6645 5.66804 29.6575C5.72118 29.6506 5.77664 29.6414 5.82979 29.6321C5.91528 29.6159 6.00077 29.5974 6.08627 29.579C6.13248 29.5674 6.17638 29.5582 6.2226 29.5466C6.30809 29.5235 6.39127 29.4981 6.47446 29.4727C6.52067 29.4588 6.56688 29.4426 6.6131 29.4265C6.69166 29.3987 6.76791 29.3687 6.84185 29.3363C6.89269 29.3155 6.94352 29.2924 6.99205 29.2716C7.06137 29.2393 7.12837 29.2069 7.19538 29.1746C7.25084 29.1469 7.30398 29.1168 7.35713 29.0868C7.41721 29.0521 7.47728 29.0175 7.53505 28.9828C7.59051 28.9482 7.64596 28.9135 7.69911 28.8765C7.75456 28.8396 7.81002 28.8026 7.86316 28.7633C7.88165 28.7494 7.90244 28.7356 7.92324 28.7217C9.79718 27.3353 11.9715 26.4157 14.303 26.4157H15.0401C17.4801 26.4157 19.8324 27.2475 21.7802 28.7194C22.6075 29.3456 23.638 29.7153 24.7541 29.7153C27.6747 29.7153 30.0062 27.1851 29.6734 24.1974C29.4262 21.963 27.6354 20.1399 25.4034 19.8557V19.8442Z" fill="#34FFD3"/>
<path d="M14.8529 19.8049C17.5876 19.8049 19.8046 17.5879 19.8046 14.8532C19.8046 12.1184 17.5876 9.90143 14.8529 9.90143C12.1181 9.90143 9.90112 12.1184 9.90112 14.8532C9.90112 17.5879 12.1181 19.8049 14.8529 19.8049Z" fill="#34FFD3"/>
<path d="M42.726 13.141C38.3819 13.141 37.3052 10.2458 37.3052 6.62496C37.3052 3.00416 38.3635 0.148193 42.8184 0.148193H47.8487V1.56H43.3938C40.145 1.56 39.1052 3.10121 39.1052 6.62727C39.1052 10.1533 40.108 11.7315 43.299 11.7315H48.0312V13.1433H42.7237L42.726 13.141Z" fill="#34FFD3"/>
<path d="M63.3252 13.1409V0.000183105H65.0513V13.1409H63.3252Z" fill="#34FFD3"/>
<path d="M57.3876 1.43048C57.0178 0.538566 56.5349 0.000183105 55.5876 0.000183105C54.6402 0.000183105 54.1965 0.520081 53.806 1.43048L48.8682 13.1432H50.6866L52.1331 9.61713L52.653 8.20532L55.1393 2.24614C55.2502 1.98735 55.3611 1.61533 55.5852 1.61533C55.8094 1.61533 55.9388 1.98735 56.0497 2.24614L58.499 8.20532L59.0189 9.61713L60.4861 13.1432H62.3046L57.3852 1.43048H57.3876Z" fill="#34FFD3"/>
<path d="M55.5873 11.498C56.3274 11.498 56.9274 10.898 56.9274 10.1579C56.9274 9.41771 56.3274 8.81769 55.5873 8.81769C54.8471 8.81769 54.2471 9.41771 54.2471 10.1579C54.2471 10.898 54.8471 11.498 55.5873 11.498Z" fill="#34FFD3"/>
<path d="M49.3879 28.0677C49.3879 29.1653 48.7548 29.706 47.8236 29.706C47.1165 29.706 46.6151 29.4819 46.1114 28.6824L39.9697 18.8575C39.8403 18.6333 39.727 18.5409 39.5976 18.5409C39.5237 18.5409 39.3365 18.6149 39.3365 18.9129V29.5581H37.6428V17.9286C37.6428 16.7386 38.5162 16.3851 39.2441 16.3851C40.1938 16.3851 40.6028 16.831 40.9193 17.3347L47.1165 27.2336C47.2089 27.3815 47.2829 27.5502 47.47 27.5502C47.6942 27.5502 47.6942 27.3445 47.6942 27.2336V16.533H49.3879V28.0701V28.0677Z" fill="#34FFD3"/>
<path d="M54.7674 29.5559C51.8283 29.5559 51.2136 27.6403 51.2136 24.6619C51.2136 21.0342 52.3666 19.5807 55.6986 19.5807C58.3235 19.5807 60.1836 20.4357 60.1836 23.4141C60.1836 24.5487 59.8301 25.1448 58.714 25.1448H52.8334C52.8334 26.7461 53.113 28.2896 55.1048 28.2896H59.9248V29.5559H54.7697H54.7674ZM58.0971 23.8809C58.4691 23.8809 58.543 23.6013 58.543 23.3795V23.3055C58.543 21.4454 57.3715 20.8493 55.7148 20.8493C53.686 20.8493 52.8311 21.6303 52.8311 23.8832H58.0971V23.8809Z" fill="#34FFD3"/>
<path d="M65.4658 29.5558C63.0095 29.5558 62.321 28.3843 62.321 26.3925V20.9578H60.8699V19.6916H62.321V16.5283H63.883V19.6916H66.6373V20.9578H63.883V26.2978C63.883 27.8228 64.4791 28.2896 65.9857 28.2896H66.6373V29.5558H65.4658Z" fill="#34FFD3"/>
<path d="M70.8448 27.6587C70.8817 27.7881 70.9557 27.9568 71.0504 27.9568C71.1798 27.9568 71.1983 27.7697 71.2376 27.6772L73.1739 20.4379C73.398 19.6385 74.0103 19.583 74.3454 19.583C74.6804 19.583 75.3136 19.6385 75.5354 20.4379L77.4717 27.6772C77.4902 27.7697 77.5457 27.9568 77.6589 27.9568C77.7513 27.9568 77.8276 27.8089 77.8645 27.6587L79.9118 19.6939H81.4368L79.0545 28.5899C78.8673 29.2785 78.4953 29.669 77.7328 29.669C76.9148 29.669 76.5035 29.2046 76.3742 28.7009L74.5141 21.7596C74.4771 21.6487 74.4401 21.4246 74.3477 21.4246C74.2738 21.4246 74.2183 21.6487 74.1813 21.7596L72.3213 28.7009C72.1919 29.2023 71.8198 29.669 70.9811 29.669C70.2001 29.669 69.8465 29.2785 69.6594 28.5899L67.2771 19.6939H68.8021L70.8494 27.6587H70.8448Z" fill="#34FFD3"/>
<path d="M92.17 24.5879C92.17 28.3288 90.6449 29.669 87.1073 29.669C83.5697 29.669 82.0447 28.3288 82.0447 24.5879C82.0447 20.8469 83.5697 19.583 87.1073 19.583C90.6449 19.583 92.17 20.8677 92.17 24.5879ZM87.1073 28.4028C89.619 28.4028 90.5317 27.3792 90.5317 24.5879C90.5317 21.7966 89.619 20.8469 87.1073 20.8469C84.5956 20.8469 83.6829 21.7966 83.6829 24.5879C83.6829 27.3792 84.5956 28.4028 87.1073 28.4028Z" fill="#34FFD3"/>
<path d="M93.7134 23.2477C93.7134 20.81 94.9034 19.6939 97.3411 19.6939H98.4202V20.9601H97.6207C95.9085 20.9601 95.2754 21.8359 95.2754 23.6405V29.5581H93.7134V23.25V23.2477Z" fill="#34FFD3"/>
<path d="M99.3511 29.5557V16.5306H100.913V29.5557H99.3511ZM105.994 29.5557L102.327 25.9465C102.029 25.6484 101.62 25.0916 101.62 24.4584C101.62 23.8253 101.992 23.3609 102.346 23.0073L105.62 19.6939H107.535L103.536 23.6936C103.367 23.86 103.201 24.0841 103.201 24.4007C103.201 24.7542 103.462 25.0708 103.702 25.3134L108 29.5557H105.99H105.994Z" fill="#34FFD3"/>
</svg>
