<svg width="23" height="25" viewBox="0 0 23 25" fill="none" xmlns="http://www.w3.org/2000/svg">
<path d="M10.7404 11.7217V8.20384L7.69312 9.9628L10.7404 11.7217ZM7.24089 10.741V14.259L10.2882 12.5L7.24089 10.741ZM6.79129 9.44221L10.7378 7.16267V5.09347L4.99816 8.40629L6.79129 9.44221ZM17.3792 8.40629L11.6396 5.09347V7.16267L15.5861 9.44221L17.3792 8.40629ZM10.7404 16.7988V13.2809L7.69312 15.0398L10.7404 16.7988ZM6.34169 10.2231L4.54856 9.18717V15.8155L6.34169 14.7795V10.2205V10.2231ZM5.00079 16.5937L10.7404 19.9065V17.8373L6.79392 15.5578L5.00079 16.5937ZM11.6396 17.84V19.9092L17.3792 16.5963L15.5861 15.5604L11.6396 17.84ZM21.0286 5.26174L12.5388 0.360861C11.7027 -0.120287 10.6747 -0.120287 9.83856 0.360861L1.35142 5.26174C0.515328 5.74289 0 6.63683 0 7.59912V17.4009C0 18.3658 0.515328 19.2571 1.35142 19.7383L9.84119 24.6391C10.6773 25.1203 11.7053 25.1203 12.5414 24.6391L21.0312 19.7383C21.8673 19.2571 22.3826 18.3632 22.3826 17.4009V7.59912C22.3826 6.6342 21.8673 5.74289 21.0312 5.26174H21.0286ZM19.8401 16.9749C20.0557 17.0985 20.1294 17.3746 20.0058 17.5902C19.9216 17.7348 19.7718 17.8163 19.6167 17.8163C19.5404 17.8163 19.4642 17.7979 19.3932 17.7558L18.2836 17.1143L11.6448 20.9477V22.5174C11.6448 22.7671 11.4424 22.967 11.1952 22.967C10.9481 22.967 10.7456 22.7645 10.7456 22.5174V20.9477L4.10685 17.1143L2.99732 17.7558C2.92633 17.7979 2.85008 17.8163 2.77383 17.8163C2.61871 17.8163 2.46621 17.7348 2.38471 17.5902C2.26113 17.3746 2.33475 17.0985 2.55035 16.9749L3.65988 16.3334V8.66659L2.55035 8.02506C2.33475 7.90148 2.26113 7.62541 2.38471 7.40982C2.50828 7.19422 2.78435 7.1206 2.99995 7.24418L4.10948 7.88571L10.7483 4.0523V2.48265C10.7483 2.23287 10.9507 2.03305 11.1979 2.03305C11.445 2.03305 11.6475 2.2355 11.6475 2.48265V4.0523L18.2863 7.88571L19.3958 7.24418C19.6114 7.1206 19.8875 7.19422 20.011 7.40982C20.1346 7.62541 20.061 7.90148 19.8454 8.02506L18.7359 8.66659V16.3334L19.8454 16.9749H19.8401ZM11.6396 8.20384V11.7217L14.6869 9.9628L11.6396 8.20384ZM16.0383 14.7795L17.8314 15.8155V9.18717L16.0383 10.2231V14.7822V14.7795ZM11.6396 13.2809V16.7988L14.6869 15.0398L11.6396 13.2809ZM15.1365 14.259V10.741L12.0892 12.5L15.1365 14.259Z" fill="url(#paint0_linear_1641_123)"/>
<defs>
<linearGradient id="paint0_linear_1641_123" x1="1.18052" y1="18.1213" x2="21.7726" y2="6.55795" gradientUnits="userSpaceOnUse">
<stop stop-color="#009EFF"/>
<stop offset="0.13" stop-color="#10A6F3"/>
<stop offset="0.39" stop-color="#3CBBD7"/>
<stop offset="0.74" stop-color="#83DDA9"/>
<stop offset="1" stop-color="#BBF985"/>
</linearGradient>
</defs>
</svg>
