<svg width="36" height="36" viewBox="0 0 36 36" fill="none" xmlns="http://www.w3.org/2000/svg">
<path fill-rule="evenodd" clip-rule="evenodd" d="M23.2991 14.1608L18.1387 9L12.9783 14.1608L14.5287 15.7111L17.0424 13.1973V22.7222H19.235V13.1973L21.7487 15.7111L23.2991 14.1608ZM12 27.0556H25V24.889H12V27.0556Z" fill="url(#paint0_linear_699_4679)"/>
<path fill-rule="evenodd" clip-rule="evenodd" d="M18 35C27.3888 35 35 27.3888 35 18C35 8.61116 27.3888 1 18 1C8.61116 1 1 8.61116 1 18C1 27.3888 8.61116 35 18 35ZM18 36C27.9411 36 36 27.9411 36 18C36 8.05887 27.9411 0 18 0C8.05887 0 0 8.05887 0 18C0 27.9411 8.05887 36 18 36Z" fill="url(#paint1_linear_699_4679)"/>
<defs>
<linearGradient id="paint0_linear_699_4679" x1="20.0573" y1="9" x2="10.5802" y2="26.0875" gradientUnits="userSpaceOnUse">
<stop stop-color="#34FFD3"/>
<stop offset="1" stop-color="#DEA5E3"/>
</linearGradient>
<linearGradient id="paint1_linear_699_4679" x1="22.3125" y1="2.91532e-07" x2="6.96931" y2="38.4227" gradientUnits="userSpaceOnUse">
<stop stop-color="#34FFD3"/>
<stop offset="1" stop-color="#DEA5E3"/>
</linearGradient>
</defs>
</svg>
