<svg width="69" height="69" viewBox="0 0 69 69" fill="none" xmlns="http://www.w3.org/2000/svg">
<rect width="69" height="69" rx="34.5" fill="#003038"/>
<path d="M44.9723 21C40.4807 21 34.4538 24.0815 30.4065 29.3794H27.0514C24.627 29.3794 23.2375 31.189 22.2808 33.1026L21 35.664H24.0237H27.0514L30.1937 38.8063L33.336 41.9486V44.9763V48L35.8974 46.7194C37.811 45.7625 39.6206 44.373 39.6206 41.9486V38.5935C44.9185 34.5462 48 28.5193 48 24.0277V21H44.9723ZM39.6206 27.2846C40.7776 27.2846 41.7154 28.2224 41.7154 29.3794C41.7154 30.5364 40.7776 31.4743 39.6206 31.4743C38.4636 31.4743 37.5257 30.5364 37.5257 29.3794C37.5257 28.2224 38.4636 27.2846 39.6206 27.2846ZM26.004 39.8537L24.9566 40.9012C23.4437 42.4141 22.8617 46.1383 22.8617 46.1383C22.8617 46.1383 26.4188 45.7235 28.0988 44.0434L29.1463 42.996L26.004 39.8537Z" fill="url(#paint0_linear_831_4951)"/>
<defs>
<linearGradient id="paint0_linear_831_4951" x1="37.7343" y1="21" x2="26.227" y2="49.817" gradientUnits="userSpaceOnUse">
<stop stop-color="#34FFD3"/>
<stop offset="1" stop-color="#DEA5E3"/>
</linearGradient>
</defs>
</svg>
