<svg width="21" height="20" viewBox="0 0 21 20" fill="none" xmlns="http://www.w3.org/2000/svg">
<path d="M18.7701 8.63144L5.64038 1.13925C5.36356 0.984178 5.04607 0.917065 4.73017 0.946835C4.41427 0.976605 4.11491 1.10185 3.87193 1.30591C3.62894 1.50996 3.45384 1.78316 3.36992 2.08916C3.28599 2.39517 3.29722 2.71947 3.4021 3.01894L5.75992 10.0002L3.4021 16.9814C3.31921 17.217 3.29396 17.4689 3.32848 17.7162C3.363 17.9635 3.45627 18.1989 3.60049 18.4027C3.7447 18.6065 3.93567 18.7728 4.15737 18.8876C4.37908 19.0025 4.62508 19.0625 4.87476 19.0627C5.14326 19.0621 5.40713 18.9927 5.64117 18.8611L5.6482 18.8564L18.7732 11.351C19.0138 11.2147 19.214 11.0171 19.3533 10.7782C19.4926 10.5393 19.566 10.2677 19.566 9.9912C19.566 9.71467 19.4926 9.44309 19.3533 9.2042C19.214 8.96531 19.0138 8.76766 18.7732 8.63144H18.7701ZM5.43648 16.8174L7.42242 10.9377H11.7498C11.9984 10.9377 12.2369 10.8389 12.4127 10.6631C12.5885 10.4873 12.6873 10.2488 12.6873 10.0002C12.6873 9.75155 12.5885 9.51309 12.4127 9.33727C12.2369 9.16146 11.9984 9.06269 11.7498 9.06269H7.42242L5.4357 3.18144L17.3701 9.99159L5.43648 16.8174Z" fill="#34FFD3"/>
</svg>
