<svg width="69" height="69" viewBox="0 0 69 69" fill="none" xmlns="http://www.w3.org/2000/svg">
<rect width="69" height="69" rx="34.5" fill="#003038"/>
<path d="M47.8216 23.6823C47.6885 23.5335 47.5011 23.4405 47.3077 23.4282C47.2352 23.4282 40.1262 23.1492 35.4594 19.1813C35.1995 18.9396 34.8005 18.9396 34.5406 19.1813C29.8738 23.1492 22.7648 23.4282 22.6923 23.4282C22.4989 23.4405 22.3115 23.5335 22.1784 23.6823C22.0455 23.8373 21.985 24.0357 22.0032 24.2403C22.0032 24.2403 22.6681 32.1263 22.9522 35.3873C23.2243 38.605 23.7562 44.6001 34.6977 49.9256C34.8851 50.0248 35.1149 50.0248 35.3023 49.9256C46.2438 44.6001 46.7757 38.605 47.0478 35.3873C47.3319 32.1263 47.9968 24.2403 47.9968 24.2403C48.015 24.0357 47.9545 23.8373 47.8216 23.6823ZM44.0373 35.1146C43.8076 37.799 43.4389 42.2132 35 46.6212V22.6842C38.3852 24.9657 42.3024 25.8956 44.793 26.2738C44.5693 28.8653 44.2247 32.9819 44.0373 35.1146Z" fill="url(#paint0_linear_831_4952)"/>
<defs>
<linearGradient id="paint0_linear_831_4952" x1="38.1146" y1="19" x2="23.2249" y2="50.2729" gradientUnits="userSpaceOnUse">
<stop stop-color="#34FFD3"/>
<stop offset="1" stop-color="#DEA5E3"/>
</linearGradient>
</defs>
</svg>
