<svg width="12" height="15" viewBox="0 0 12 15" fill="none" xmlns="http://www.w3.org/2000/svg">
<path d="M6.25262 0.828671C6.09655 0.737262 5.90329 0.737262 5.74722 0.828671L1.46709 3.33556C1.13736 3.52869 1.13736 4.00532 1.46709 4.19845L5.74722 6.70534C5.90329 6.79675 6.09655 6.79675 6.25262 6.70534L10.5327 4.19845C10.8625 4.00532 10.8625 3.52869 10.5327 3.33556L6.25262 0.828671Z" fill="white"/>
<path d="M0 10.9559C0 11.1334 0.0941241 11.2976 0.247303 11.3874L4.50047 13.8784C4.83379 14.0737 5.25317 13.8333 5.25317 13.447V8.4332C5.25317 8.25569 5.15904 8.09148 5.00586 8.00176L0.752697 5.51068C0.419373 5.31545 0 5.55584 0 5.94212V10.9559Z" fill="white"/>
<path d="M6.99437 8.00176C6.84119 8.09148 6.74707 8.25569 6.74707 8.4332V13.447C6.74707 13.8333 7.16644 14.0737 7.49977 13.8784L11.7529 11.3874C11.9061 11.2976 12.0002 11.1334 12.0002 10.9559V5.94212C12.0002 5.55584 11.5809 5.31545 11.2475 5.51068L6.99437 8.00176Z" fill="white"/>
</svg>
