<svg width="19" height="18" viewBox="0 0 19 18" fill="none" xmlns="http://www.w3.org/2000/svg">
<path d="M8.28886 1.6105C8.47551 1.23676 8.86051 1.00015 9.28233 1.00015C9.70414 1.00015 10.0891 1.23676 10.2758 1.6105C10.8779 2.81664 11.6002 4.26378 11.9772 5.01896C12.1386 5.34231 12.4505 5.56631 12.8114 5.61833C13.6545 5.73935 15.27 5.97127 16.616 6.16487C17.0334 6.22483 17.3802 6.5137 17.5103 6.9102C17.6408 7.30666 17.5319 7.74203 17.23 8.03283C16.256 8.97175 15.0869 10.0982 14.477 10.6861C14.2158 10.9377 14.0968 11.3003 14.1582 11.6554C14.3023 12.4856 14.5784 14.0762 14.8083 15.4018C14.8795 15.8127 14.7089 16.2279 14.3676 16.4729C14.0264 16.718 13.5741 16.7503 13.2008 16.5564C11.9968 15.9305 10.5519 15.1797 9.79775 14.7875C9.47509 14.62 9.08957 14.62 8.7669 14.7875C8.01273 15.1797 6.56779 15.9305 5.36387 16.5564C4.99051 16.7503 4.53821 16.718 4.19702 16.4729C3.8558 16.2279 3.6852 15.8127 3.75634 15.4018C3.98625 14.0762 4.26235 12.4856 4.40638 11.6554C4.46786 11.3003 4.34878 10.9377 4.0876 10.6861C3.47773 10.0982 2.30869 8.97175 1.33461 8.03283C1.0327 7.74203 0.92386 7.30666 1.05432 6.9102C1.1845 6.5137 1.53125 6.22483 1.94863 6.16487C3.29466 5.97127 4.91019 5.73935 5.75327 5.61833C6.11415 5.56631 6.426 5.34231 6.58748 5.01896C6.96441 4.26378 7.68673 2.81664 8.28886 1.6105Z" stroke="white" stroke-width="1.5" stroke-miterlimit="10" stroke-linecap="round" stroke-linejoin="round"/>
</svg>
