<svg width="35" height="35" viewBox="0 0 35 35" fill="none" xmlns="http://www.w3.org/2000/svg">
<path d="M19.25 0V5.27638C25.2 6.15578 29.75 11.2563 29.75 17.4121C29.75 18.995 29.4 20.402 28.875 21.809L33.425 24.4472C34.475 22.3367 35 19.8744 35 17.2362C35 8.26633 28.175 0.879397 19.25 0ZM17.5 29.7236C10.675 29.7236 5.25 24.2714 5.25 17.4121C5.25 11.2563 9.8 6.15578 15.75 5.27638V0C6.825 0.703518 0 8.26633 0 17.4121C0 27.0854 7.875 35 17.5 35C23.275 35 28.35 32.1859 31.675 27.7889L27.125 25.1508C24.85 27.9648 21.35 29.7236 17.5 29.7236Z" fill="white"/>
</svg>
