<svg xmlns="http://www.w3.org/2000/svg" width="1024" height="1024" viewBox="0 0 1024 1024" fill="none">
<path fill-rule="evenodd" clip-rule="evenodd" d="M512 1024C794.77 1024 1024 794.77 1024 512C1024 229.23 794.77 0 512 0C229.23 0 0 229.23 0 512C0 794.77 229.23 1024 512 1024ZM647.524 623.98C697.13 618.104 743.302 595.663 778.572 560.288C799.629 539.273 816.249 514.241 827.446 486.679C860.158 406.148 843.852 310.384 778.536 245.067L717.28 183.803L620.966 280.162L524.615 183.803L463.351 245.067C421.55 286.868 398.067 343.562 398.067 402.678C398.067 461.793 421.55 518.487 463.351 560.288C479.596 576.535 488.723 598.569 488.723 621.544C488.723 644.519 479.596 666.553 463.351 682.799L402.095 744.055L341.634 683.594C307.55 649.509 307.08 593.262 341.562 559.566C351.098 550.239 362.662 543.243 375.35 539.124C388.037 535.006 401.505 533.876 414.702 535.824C388.617 495.454 374.996 448.298 375.537 400.237C336.029 405.001 298.513 420.243 266.877 444.385C235.242 468.526 210.638 500.688 195.615 537.538C162.902 618.069 179.209 713.833 244.525 779.15L305.781 840.414L402.095 744.055L498.446 840.414L559.71 779.15C601.511 737.349 624.994 680.655 624.994 621.539C624.994 562.424 601.511 505.73 559.71 463.929C543.465 447.683 534.338 425.648 534.338 402.673C534.338 379.698 543.465 357.664 559.71 341.418L620.966 280.162L681.427 340.624C715.511 374.708 715.98 430.955 681.499 464.651C671.963 473.978 660.399 480.974 647.711 485.093C635.024 489.212 621.556 490.341 608.359 488.393C634.444 528.763 648.065 575.92 647.524 623.98Z" fill="#3414FC"/>
</svg>