<svg width="14" height="14" viewBox="0 0 14 14" fill="none" xmlns="http://www.w3.org/2000/svg">
<path d="M9.67779 9.4951L9.10255 10.0293L3.99996 4.53415L4.5752 4L9.67779 9.4951Z" fill="white"/>
<path d="M4.55543 9.94359L4.00035 9.38852L9.30284 4.08604L9.85791 4.64111L4.55543 9.94359Z" fill="white"/>
<path d="M13 7C13 3.68629 10.3137 1 7 1C3.68629 1 1 3.68629 1 7C1 10.3137 3.68629 13 7 13V14C3.13401 14 0 10.866 0 7C0 3.13401 3.13401 0 7 0C10.866 0 14 3.13401 14 7C14 10.866 10.866 14 7 14V13C10.3137 13 13 10.3137 13 7Z" fill="white"/>
</svg>
