<svg width="33" height="33" viewBox="0 0 33 33" fill="none" xmlns="http://www.w3.org/2000/svg">
<circle cx="16.5" cy="16.5" r="16.5" fill="white"/>
<path fill-rule="evenodd" clip-rule="evenodd" d="M9.87088 9.87088C13.532 6.20971 19.4679 6.20971 23.1292 9.87088C26.7903 13.532 26.7903 19.4679 23.1292 23.1292C19.4679 26.7903 13.532 26.7903 9.87088 23.1292C9.46407 22.7223 9.46407 22.0628 9.87088 21.6559C10.2777 21.2492 10.9372 21.2492 11.344 21.6559C14.1916 24.5035 18.8084 24.5035 21.6559 21.6559C24.5035 18.8084 24.5035 14.1916 21.6559 11.344C18.8084 8.49644 14.1916 8.49644 11.344 11.344C10.9372 11.7508 10.2777 11.7508 9.87088 11.344C9.46407 10.9372 9.46407 10.2777 9.87088 9.87088ZM15.7634 12.6384C16.1702 12.2316 16.8298 12.2316 17.2366 12.6384L19.183 14.5849L19.2066 14.6084C19.3925 14.7943 19.5735 14.9753 19.7144 15.1411C19.869 15.3233 20.0352 15.5545 20.1332 15.8563C20.2692 16.2747 20.2692 16.7253 20.1332 17.1438C20.0352 17.4456 19.869 17.6767 19.7144 17.8589C19.5735 18.0247 19.3925 18.2057 19.2066 18.3916L17.2366 20.3616C16.8298 20.7683 16.1702 20.7683 15.7634 20.3616C15.3567 19.9548 15.3567 19.2952 15.7634 18.8884L17.1102 17.5417H8.16667C7.59138 17.5417 7.125 17.0753 7.125 16.5C7.125 15.9247 7.59138 15.4583 8.16667 15.4583H17.1102L15.7634 14.1116C15.3567 13.7048 15.3567 13.0452 15.7634 12.6384Z" fill="black"/>
</svg>
