<svg width="22" height="22" viewBox="0 0 22 22" fill="none" xmlns="http://www.w3.org/2000/svg">
<path fill-rule="evenodd" clip-rule="evenodd" d="M3.57538 3.57538C7.67589 -0.525127 14.3241 -0.525127 18.4247 3.57538C22.5252 7.67589 22.5252 14.3241 18.4247 18.4247C14.3241 22.5252 7.67589 22.5252 3.57538 18.4247C3.11976 17.969 3.11976 17.2304 3.57538 16.7747C4.03099 16.3191 4.76969 16.3191 5.22529 16.7747C8.41457 19.964 13.5855 19.964 16.7747 16.7747C19.964 13.5855 19.964 8.41457 16.7747 5.22529C13.5855 2.03601 8.41457 2.03601 5.22529 5.22529C4.76969 5.68091 4.03099 5.68091 3.57538 5.22529C3.11976 4.76969 3.11976 4.03099 3.57538 3.57538ZM10.1751 6.67504C10.6306 6.21943 11.3694 6.21943 11.825 6.67504L14.005 8.85508L14.0314 8.88145C14.2396 9.08958 14.4424 9.29235 14.6001 9.47808C14.7732 9.68213 14.9594 9.94102 15.0692 10.279C15.2215 10.7477 15.2215 11.2524 15.0692 11.721C14.9594 12.0591 14.7732 12.3179 14.6001 12.5219C14.4424 12.7077 14.2396 12.9104 14.0314 13.1186L11.825 15.325C11.3694 15.7805 10.6306 15.7805 10.1751 15.325C9.71947 14.8694 9.71947 14.1306 10.1751 13.6751L11.6834 12.1667H1.66667C1.02234 12.1667 0.5 11.6444 0.5 11C0.5 10.3557 1.02234 9.83333 1.66667 9.83333H11.6834L10.1751 8.32496C9.71947 7.86934 9.71947 7.13066 10.1751 6.67504Z" fill="white"/>
</svg>
