<svg width="15" height="15" viewBox="0 0 15 15" fill="none" xmlns="http://www.w3.org/2000/svg">
<path fill-rule="evenodd" clip-rule="evenodd" d="M2.1967 2.1967C5.12563 -0.732232 9.87432 -0.732232 12.8033 2.1967C15.7322 5.12563 15.7322 9.87432 12.8033 12.8033C9.87432 15.7322 5.12563 15.7322 2.1967 12.8033C1.87126 12.4778 1.87126 11.9502 2.1967 11.6247C2.52213 11.2993 3.04977 11.2993 3.3752 11.6247C5.65326 13.9028 9.34674 13.9028 11.6247 11.6247C13.9028 9.34674 13.9028 5.65326 11.6247 3.3752C9.34674 1.09715 5.65326 1.09715 3.3752 3.3752C3.04977 3.70064 2.52213 3.70064 2.1967 3.3752C1.87126 3.04977 1.87126 2.52213 2.1967 2.1967ZM6.91074 4.41074C7.23616 4.0853 7.76382 4.0853 8.08924 4.41074L9.6464 5.96791L9.66524 5.98674C9.81399 6.13541 9.95882 6.28024 10.0715 6.41291C10.1952 6.55866 10.3282 6.74357 10.4066 6.98499C10.5153 7.31974 10.5153 7.68024 10.4066 8.01499C10.3282 8.25649 10.1952 8.44132 10.0715 8.58707C9.95882 8.71974 9.81399 8.86457 9.66524 9.01324L8.08924 10.5892C7.76382 10.9147 7.23616 10.9147 6.91074 10.5892C6.58532 10.2638 6.58532 9.73615 6.91074 9.41074L7.98816 8.33332H0.833332C0.373099 8.33332 0 7.96024 0 7.49999C0 7.03974 0.373099 6.66666 0.833332 6.66666H7.98816L6.91074 5.58925C6.58532 5.26381 6.58532 4.73618 6.91074 4.41074Z" fill="#010A19"/>
</svg>
