<svg width="20" height="20" viewBox="0 0 20 20" fill="none" xmlns="http://www.w3.org/2000/svg">
<path d="M14.875 4H1.75C1.45163 4 1.16548 4.11853 0.954505 4.3295C0.743526 4.54048 0.625 4.82663 0.625 5.125V18.25C0.625 18.5484 0.743526 18.8345 0.954505 19.0455C1.16548 19.2565 1.45163 19.375 1.75 19.375H14.875C15.1734 19.375 15.4595 19.2565 15.6705 19.0455C15.8815 18.8345 16 18.5484 16 18.25V5.125C16 4.82663 15.8815 4.54048 15.6705 4.3295C15.4595 4.11853 15.1734 4 14.875 4ZM13.75 17.125H2.875V6.25H13.75V17.125ZM19.375 1.75V14.875C19.375 15.1734 19.2565 15.4595 19.0455 15.6705C18.8345 15.8815 18.5484 16 18.25 16C17.9516 16 17.6655 15.8815 17.4545 15.6705C17.2435 15.4595 17.125 15.1734 17.125 14.875V2.875H5.125C4.82663 2.875 4.54048 2.75647 4.3295 2.5455C4.11853 2.33452 4 2.04837 4 1.75C4 1.45163 4.11853 1.16548 4.3295 0.954505C4.54048 0.743526 4.82663 0.625 5.125 0.625H18.25C18.5484 0.625 18.8345 0.743526 19.0455 0.954505C19.2565 1.16548 19.375 1.45163 19.375 1.75Z" fill="#5D717D"/>
</svg>
