<svg width="33" height="33" viewBox="0 0 33 33" fill="none" xmlns="http://www.w3.org/2000/svg">
<circle cx="16.5" cy="16.5" r="16.5" fill="#5865F2"/>
<path d="M24.4705 8.98253C23.0045 8.30989 21.4325 7.81432 19.7889 7.53049C19.759 7.52501 19.7291 7.5387 19.7136 7.56608C19.5115 7.92566 19.2875 8.39476 19.1307 8.76348C17.3629 8.49881 15.6041 8.49881 13.8726 8.76348C13.7157 8.38657 13.4836 7.92566 13.2806 7.56608C13.2651 7.53961 13.2352 7.52592 13.2053 7.53049C11.5626 7.81341 9.99058 8.30898 8.52373 8.98253C8.51103 8.988 8.50015 8.99714 8.49292 9.00899C5.51117 13.4637 4.69434 17.8089 5.09505 22.1002C5.09686 22.1212 5.10865 22.1412 5.12496 22.154C7.09224 23.5987 8.99789 24.4758 10.8681 25.0572C10.8981 25.0663 10.9298 25.0553 10.9488 25.0307C11.3912 24.4265 11.7856 23.7895 12.1237 23.1196C12.1437 23.0804 12.1247 23.0338 12.0839 23.0183C11.4583 22.781 10.8627 22.4917 10.2897 22.1631C10.2444 22.1367 10.2408 22.0719 10.2825 22.0408C10.4031 21.9505 10.5237 21.8565 10.6388 21.7616C10.6596 21.7442 10.6886 21.7406 10.7131 21.7515C14.4772 23.4701 18.5523 23.4701 22.272 21.7515C22.2965 21.7397 22.3255 21.7433 22.3472 21.7606C22.4624 21.8556 22.583 21.9505 22.7045 22.0408C22.7462 22.0719 22.7434 22.1367 22.6981 22.1631C22.1252 22.4981 21.5295 22.781 20.9031 23.0174C20.8623 23.0329 20.8441 23.0804 20.8641 23.1196C21.2095 23.7886 21.6039 24.4256 22.0381 25.0298C22.0562 25.0553 22.0889 25.0663 22.1188 25.0572C23.9981 24.4758 25.9038 23.5987 27.871 22.154C27.8883 22.1412 27.8992 22.1221 27.901 22.1011C28.3805 17.1398 27.0977 12.8303 24.5004 9.0099C24.494 8.99714 24.4832 8.988 24.4705 8.98253ZM12.6859 19.4872C11.5526 19.4872 10.6188 18.4468 10.6188 17.1691C10.6188 15.8913 11.5345 14.8509 12.6859 14.8509C13.8463 14.8509 14.771 15.9005 14.7528 17.1691C14.7528 18.4468 13.8372 19.4872 12.6859 19.4872ZM20.3283 19.4872C19.1951 19.4872 18.2613 18.4468 18.2613 17.1691C18.2613 15.8913 19.1769 14.8509 20.3283 14.8509C21.4887 14.8509 22.4134 15.9005 22.3953 17.1691C22.3953 18.4468 21.4887 19.4872 20.3283 19.4872Z" fill="white"/>
</svg>
