<svg width="30" height="24" viewBox="0 0 30 24" fill="none" xmlns="http://www.w3.org/2000/svg">
<path d="M25.3963 2.19459C23.4842 1.31724 21.4337 0.670842 19.2899 0.300625C19.2508 0.29348 19.2118 0.311336 19.1917 0.347049C18.928 0.816068 18.6359 1.42794 18.4314 1.90887C16.1255 1.56366 13.8315 1.56366 11.5729 1.90887C11.3683 1.41725 11.0656 0.816068 10.8007 0.347049C10.7806 0.312528 10.7416 0.294672 10.7026 0.300625C8.55989 0.669659 6.50945 1.31605 4.59617 2.19459C4.57961 2.20173 4.56541 2.21364 4.55599 2.22911C0.66674 8.03956 -0.398688 13.7072 0.123975 19.3046C0.12634 19.3319 0.141712 19.3581 0.162998 19.3748C2.72901 21.2592 5.21463 22.4032 7.6541 23.1615C7.69314 23.1734 7.73451 23.1591 7.75935 23.127C8.33641 22.339 8.8508 21.508 9.29185 20.6342C9.31787 20.5831 9.29303 20.5224 9.23983 20.5021C8.42391 20.1926 7.647 19.8152 6.89966 19.3867C6.84055 19.3522 6.83582 19.2676 6.8902 19.2272C7.04747 19.1093 7.20477 18.9867 7.35494 18.8629C7.38211 18.8403 7.41997 18.8355 7.45192 18.8498C12.3616 21.0914 17.6769 21.0914 22.5287 18.8498C22.5606 18.8343 22.5985 18.8391 22.6268 18.8617C22.7771 18.9855 22.9343 19.1093 23.0928 19.2272C23.1472 19.2676 23.1436 19.3522 23.0845 19.3867C22.3372 19.8236 21.5602 20.1926 20.7431 20.5009C20.6899 20.5212 20.6663 20.5831 20.6923 20.6342C21.1428 21.5068 21.6572 22.3377 22.2236 23.1258C22.2473 23.1591 22.2898 23.1734 22.3289 23.1615C24.7802 22.4032 27.2658 21.2592 29.8318 19.3748C29.8543 19.3581 29.8685 19.3331 29.8708 19.3057C30.4964 12.8346 28.8231 7.21342 25.4353 2.23029C25.427 2.21364 25.4128 2.20173 25.3963 2.19459ZM10.025 15.8963C8.54687 15.8963 7.32892 14.5393 7.32892 12.8727C7.32892 11.2061 8.52325 9.84903 10.025 9.84903C11.5386 9.84903 12.7448 11.218 12.7211 12.8727C12.7211 14.5393 11.5268 15.8963 10.025 15.8963ZM19.9934 15.8963C18.5153 15.8963 17.2974 14.5393 17.2974 12.8727C17.2974 11.2061 18.4917 9.84903 19.9934 9.84903C21.507 9.84903 22.7132 11.218 22.6896 12.8727C22.6896 14.5393 21.507 15.8963 19.9934 15.8963Z" fill="white"/>
</svg>
