<svg width="10" height="12" viewBox="0 0 10 12" fill="none" xmlns="http://www.w3.org/2000/svg">
<path d="M6.60275 12C6.41587 11.999 6.23133 11.9565 6.06143 11.8753C5.89153 11.7941 5.74016 11.6761 5.61738 11.5292C5.44775 11.359 5.37117 11.2902 5.18505 11.2902C4.99893 11.2902 4.92236 11.359 4.75219 11.5292C4.62993 11.6768 4.47862 11.7953 4.30854 11.8764C4.13846 11.9576 3.9536 11.9996 3.76655 11.9996C3.57951 11.9996 3.39465 11.9576 3.22457 11.8764C3.05449 11.7953 2.90317 11.6768 2.78092 11.5292C2.61128 11.3584 2.53418 11.2896 2.34753 11.2896C2.23847 11.2855 2.13204 11.3252 2.05027 11.4006C1.91215 11.5178 1.74488 11.5916 1.56802 11.6133C1.39117 11.635 1.21204 11.6037 1.0516 11.5231C0.894037 11.4449 0.761123 11.3214 0.668446 11.1672C0.575768 11.013 0.527167 10.8345 0.528341 10.6525V0.970425C0.528623 0.713143 0.626758 0.466482 0.801218 0.284555C0.975678 0.102629 1.21222 0.000293534 1.45894 0H8.90372C9.15044 0.000293534 9.38698 0.102629 9.56144 0.284555C9.7359 0.466482 9.83403 0.713143 9.83432 0.970425V10.6492C9.83543 10.8308 9.78697 11.009 9.6946 11.1629C9.60223 11.3169 9.46975 11.4403 9.31265 11.5187C9.15208 11.5996 8.97273 11.6312 8.79558 11.6097C8.61843 11.5882 8.45083 11.5145 8.31239 11.3972C8.23174 11.3236 8.12698 11.2853 8.01992 11.2902C7.83327 11.2902 7.75722 11.359 7.58706 11.5292C7.46446 11.6761 7.31327 11.794 7.14355 11.8752C6.97383 11.9564 6.78947 11.9989 6.60275 12ZM5.18505 10.4584C5.37186 10.4594 5.55631 10.502 5.72612 10.5831C5.89594 10.6643 6.04722 10.7823 6.16989 10.9292C6.34006 11.0994 6.4161 11.1682 6.60275 11.1682C6.7894 11.1682 6.86491 11.0994 7.03455 10.9292C7.15732 10.7823 7.3087 10.6643 7.4786 10.5831C7.6485 10.5019 7.83303 10.4594 8.01992 10.4584C8.3077 10.4532 8.58778 10.5555 8.8096 10.7468C8.83075 10.7662 8.85691 10.7786 8.88482 10.7825C8.91273 10.7865 8.94113 10.7818 8.96647 10.7689C8.98848 10.7588 9.007 10.7419 9.01954 10.7205C9.03209 10.6991 9.03806 10.6742 9.03666 10.6492V0.970425C9.03666 0.933658 9.02265 0.898396 8.99772 0.872397C8.97279 0.846399 8.93898 0.831793 8.90372 0.831793H1.45894C1.42368 0.831793 1.38987 0.846399 1.36493 0.872397C1.34 0.898396 1.326 0.933658 1.326 0.970425V10.6514C1.32465 10.6766 1.33069 10.7017 1.34332 10.7233C1.35595 10.7449 1.37457 10.762 1.39672 10.7723C1.42177 10.7846 1.4497 10.7891 1.47716 10.7853C1.50462 10.7815 1.53042 10.7694 1.55147 10.7506C1.77495 10.5563 2.05817 10.4525 2.34912 10.4584C2.53601 10.4596 2.72053 10.5021 2.89049 10.5831C3.06045 10.6642 3.21196 10.782 3.33502 10.9287C3.50519 11.0994 3.58176 11.1682 3.76895 11.1682C3.95613 11.1682 4.03164 11.0994 4.20128 10.9292C4.32387 10.7825 4.47499 10.6646 4.6446 10.5835C4.81421 10.5023 4.99844 10.4597 5.18505 10.4584Z" fill="#5D717D"/>
<path d="M7.30843 3.04981H4.38369C4.27792 3.04981 4.17647 3.00599 4.10168 2.928C4.02688 2.85 3.98486 2.74422 3.98486 2.63391C3.98486 2.52361 4.02688 2.41783 4.10168 2.33983C4.17647 2.26184 4.27792 2.21802 4.38369 2.21802H7.30843C7.4142 2.21802 7.51564 2.26184 7.59044 2.33983C7.66523 2.41783 7.70725 2.52361 7.70725 2.63391C7.70725 2.74422 7.66523 2.85 7.59044 2.928C7.51564 3.00599 7.4142 3.04981 7.30843 3.04981Z" fill="#5D717D"/>
<path d="M7.30843 5.82252H4.38369C4.27792 5.82252 4.17647 5.7787 4.10168 5.7007C4.02688 5.62271 3.98486 5.51692 3.98486 5.40662C3.98486 5.29632 4.02688 5.19053 4.10168 5.11254C4.17647 5.03454 4.27792 4.99072 4.38369 4.99072H7.30843C7.4142 4.99072 7.51564 5.03454 7.59044 5.11254C7.66523 5.19053 7.70725 5.29632 7.70725 5.40662C7.70725 5.51692 7.66523 5.62271 7.59044 5.7007C7.51564 5.7787 7.4142 5.82252 7.30843 5.82252Z" fill="#5D717D"/>
<path d="M7.30843 8.59522H4.38369C4.27792 8.59522 4.17647 8.5514 4.10168 8.47341C4.02688 8.39541 3.98486 8.28963 3.98486 8.17932C3.98486 8.06902 4.02688 7.96324 4.10168 7.88524C4.17647 7.80725 4.27792 7.76343 4.38369 7.76343H7.30843C7.4142 7.76343 7.51564 7.80725 7.59044 7.88524C7.66523 7.96324 7.70725 8.06902 7.70725 8.17932C7.70725 8.28963 7.66523 8.39541 7.59044 8.47341C7.51564 8.5514 7.4142 8.59522 7.30843 8.59522Z" fill="#5D717D"/>
<path d="M3.05374 5.96111C3.34743 5.96111 3.58551 5.71284 3.58551 5.40658C3.58551 5.10032 3.34743 4.85205 3.05374 4.85205C2.76005 4.85205 2.52197 5.10032 2.52197 5.40658C2.52197 5.71284 2.76005 5.96111 3.05374 5.96111Z" fill="#5D717D"/>
<path d="M3.05374 3.18865C3.34743 3.18865 3.58551 2.94038 3.58551 2.63412C3.58551 2.32786 3.34743 2.07959 3.05374 2.07959C2.76005 2.07959 2.52197 2.32786 2.52197 2.63412C2.52197 2.94038 2.76005 3.18865 3.05374 3.18865Z" fill="#5D717D"/>
<path d="M3.05374 8.73381C3.34743 8.73381 3.58551 8.48554 3.58551 8.17928C3.58551 7.87303 3.34743 7.62476 3.05374 7.62476C2.76005 7.62476 2.52197 7.87303 2.52197 8.17928C2.52197 8.48554 2.76005 8.73381 3.05374 8.73381Z" fill="#5D717D"/>
</svg>
