<svg width="13" height="13" viewBox="0 0 13 13" fill="none" xmlns="http://www.w3.org/2000/svg">
<path d="M4.74863 8.31458L4.53948 9.51667C4.51097 9.68102 4.58066 9.84663 4.71969 9.94471C4.85894 10.0426 5.04384 10.0557 5.19598 9.97853L6.31284 9.41437L7.42969 9.97864C7.49577 10.0118 7.56818 10.0285 7.63982 10.0285C7.73364 10.0285 7.82724 10.0001 7.90621 9.94482C8.04535 9.84674 8.11525 9.68113 8.08652 9.51678L7.87759 8.31469L8.77688 7.46104C8.89986 7.34447 8.94366 7.17051 8.89091 7.01218C8.83794 6.85397 8.69617 6.73814 8.52601 6.71383L7.27985 6.535L6.71858 5.44335C6.64245 5.29433 6.48475 5.19995 6.31273 5.19995C6.14104 5.19995 5.98344 5.29433 5.90666 5.44335L5.34594 6.535L4.09977 6.71372C3.92928 6.73803 3.78818 6.85386 3.7351 7.01208C3.68202 7.1704 3.7257 7.34457 3.8489 7.46094L4.74863 8.31458Z" fill="white"/>
<path d="M11.3545 1.38203H10.0116V0.627221C10.0116 0.280802 9.73449 0 9.39251 0H9.29435C8.95248 0 8.67547 0.280802 8.67547 0.627221V1.38203H3.93727V0.627221C3.93727 0.280802 3.66016 0 3.31839 0H3.22013C2.87825 0 2.60124 0.280802 2.60124 0.627221V1.38203H1.27395C0.571601 1.38203 0 1.96103 0 2.67293V11.7091C0 12.4206 0.571601 13 1.27395 13H11.3546C12.0569 13 12.6286 12.4207 12.6286 11.7091V2.67293C12.6285 1.96103 12.0568 1.38203 11.3545 1.38203ZM11.1883 11.5407H1.44016V4.50658H11.1883V11.5407Z" fill="white"/>
</svg>