<svg width="7" height="7" viewBox="0 0 7 7" fill="none" xmlns="http://www.w3.org/2000/svg">
<g clip-path="url(#clip0_1876_1382)">
<path d="M4.15625 1.3125C4.15625 1.19168 4.05832 1.09375 3.9375 1.09375H1.75C1.62918 1.09375 1.53125 1.19168 1.53125 1.3125V3.0625C1.53125 3.18332 1.62918 3.28125 1.75 3.28125H3.9375C4.05832 3.28125 4.15625 3.18332 4.15625 3.0625V1.3125ZM3.71875 2.84375H1.96875V1.53125H3.71875V2.84375Z" fill="#5D717D"/>
<path d="M6.66556 1.55112L5.79317 1.11362C5.68486 1.05935 5.55501 1.10347 5.50096 1.21145C5.44692 1.31954 5.49136 1.45093 5.59945 1.50497L5.93169 1.67094C5.92281 1.69472 5.91131 1.71988 5.91131 1.7468C5.91131 2.03161 6.125 2.27216 6.34375 2.36273V5.02805C6.34375 5.14864 6.24559 5.2468 6.125 5.2468C6.00441 5.2468 5.90625 5.14864 5.90625 5.02805V3.27805C5.90625 2.74989 5.46875 2.30804 5.03125 2.20641V0.871801C5.03125 0.389334 4.64916 0 4.1667 0H1.5417C1.05923 0 0.65625 0.389334 0.65625 0.871801V5.76782L0.339664 5.92612C0.265535 5.96318 0.21875 6.03891 0.21875 6.1218V6.77805C0.21875 6.89886 0.327141 7 0.447945 7H5.26045C5.38125 7 5.46875 6.89886 5.46875 6.77805V6.1218C5.46875 6.03891 5.42197 5.96318 5.34784 5.92612L5.03125 5.76782V2.66212C5.25 2.7527 5.46875 2.99324 5.46875 3.27805V5.02805C5.46875 5.38993 5.76312 5.6843 6.125 5.6843C6.48688 5.6843 6.78125 5.38993 6.78125 5.02805V1.7468C6.78125 1.66391 6.73969 1.58818 6.66556 1.55112ZM5.03125 6.5625H0.65625V6.25702L0.972836 6.09872C1.04696 6.06166 1.09375 5.98593 1.09375 5.90304V0.871787C1.09375 0.630506 1.3004 0.4375 1.5417 0.4375H4.1667C4.40798 0.4375 4.59375 0.630506 4.59375 0.871801V5.90305C4.59375 5.98594 4.64053 6.06167 4.71466 6.09874L5.03125 6.25702V6.5625Z" fill="#5D717D"/>
</g>
<defs>
<clipPath id="clip0_1876_1382">
<rect width="7" height="7" fill="white"/>
</clipPath>
</defs>
</svg>
