<svg width="26" height="26" viewBox="0 0 26 26" fill="none" xmlns="http://www.w3.org/2000/svg">
<path d="M12.8284 25.1317C19.758 25.1317 25.3755 19.7024 25.3755 13.0052C25.3755 6.30788 19.758 0.878662 12.8284 0.878662C5.89879 0.878662 0.28125 6.30788 0.28125 13.0052C0.28125 19.7024 5.89879 25.1317 12.8284 25.1317Z" fill="#5D717D"/>
<path d="M12.8284 23.8146C19.0051 23.8146 24.0122 18.9753 24.0122 13.0057C24.0122 7.0361 19.0051 2.19678 12.8284 2.19678C6.65171 2.19678 1.64453 7.0361 1.64453 13.0057C1.64453 18.9753 6.65171 23.8146 12.8284 23.8146Z" fill="url(#paint0_linear_1577_2)"/>
<path d="M8.48 18V15.6H11.36V9.728L8.48 10.48V8.08L14.08 6.64V15.6H16.48V18H8.48Z" fill="white"/>
<defs>
<linearGradient id="paint0_linear_1577_2" x1="12.8284" y1="2.14309" x2="12.8284" y2="23.4769" gradientUnits="userSpaceOnUse">
<stop stop-color="#009EFF"/>
</linearGradient>
</defs>
</svg>
