<svg width="64" height="64" viewBox="0 0 64 64" fill="none" xmlns="http://www.w3.org/2000/svg">
<rect x="1" y="1" width="62" height="62" rx="5" fill="#0B1320" stroke="url(#paint0_linear_1848_1760)"/>
<path fill-rule="evenodd" clip-rule="evenodd" d="M23.8023 24.9748C23.622 24.8085 23.4543 24.627 23.3011 24.4317C22.5867 23.5201 22.2427 22.3724 22.338 21.2181C22.4332 20.0639 22.9607 18.9881 23.815 18.206C24.6693 17.4239 25.7873 16.9931 26.9455 16.9998C28.4371 17.0061 29.8811 17.5254 31.035 18.4707C31.6153 18.9461 32.1044 19.5147 32.4854 20.1483C32.8689 19.5105 33.3619 18.9387 33.9471 18.4615C35.107 17.5157 36.5578 16.9993 38.0545 16.9998C39.198 17.014 40.2952 17.454 41.1317 18.2339C41.9682 19.0137 42.4839 20.0774 42.5781 21.2172C42.6724 22.3569 42.3383 23.4909 41.6412 24.3975C41.4811 24.6059 41.3043 24.7988 41.1135 24.9748H44.0999C45.7016 24.9748 46.9999 26.2732 46.9999 27.8748V30.7748C46.9999 32.3764 45.7016 33.6748 44.0999 33.6748H20.9C19.2984 33.6748 18 32.3764 18 30.7748V27.8748C18 26.2732 19.2984 24.9748 20.9 24.9748H23.8023ZM38.0545 19.8997C37.2266 19.9047 36.4259 20.1964 35.7888 20.7251C35.1517 21.2538 34.7175 21.9869 34.56 22.7997L34.328 23.9597L38.301 23.2637C38.7122 23.1882 39.081 22.9634 39.3367 22.6326C39.5924 22.3018 39.7169 21.8882 39.6863 21.4712C39.6558 21.0542 39.4723 20.6632 39.1711 20.3732C38.87 20.0832 38.4723 19.9146 38.0545 19.8997ZM31.0506 35.125V46H23.8006C22.8392 46 21.9172 45.618 21.2374 44.9382C20.5576 44.2584 20.1757 43.3364 20.1757 42.375V35.0525C20.4135 35.106 20.6569 35.1303 20.9006 35.125H31.0506ZM44.8244 42.375V35.0525C44.5865 35.106 44.3431 35.1303 44.0994 35.125H33.9494V46H41.1994C41.6754 46 42.1468 45.9062 42.5866 45.724C43.0264 45.5418 43.426 45.2748 43.7626 44.9382C44.0992 44.6016 44.3663 44.202 44.5484 43.7622C44.7306 43.3224 44.8244 42.851 44.8244 42.375ZM25.8288 20.3732C26.13 20.0832 26.5276 19.9146 26.9455 19.8998C27.7734 19.9048 28.574 20.1965 29.2111 20.7252C29.8482 21.2539 30.2824 21.987 30.4399 22.7998L30.7154 23.9308L26.699 23.2638C26.2877 23.1883 25.9189 22.9635 25.6632 22.6327C25.4075 22.3019 25.283 21.8883 25.3136 21.4713C25.3442 21.0543 25.5276 20.6633 25.8288 20.3732Z" fill="url(#paint1_linear_1848_1760)"/>
<defs>
<linearGradient id="paint0_linear_1848_1760" x1="1" y1="32" x2="63" y2="32" gradientUnits="userSpaceOnUse">
<stop stop-color="#BBF985"/>
<stop offset="1" stop-color="#009EFF"/>
</linearGradient>
<linearGradient id="paint1_linear_1848_1760" x1="32.5" y1="16.9998" x2="32.5" y2="45.9998" gradientUnits="userSpaceOnUse">
<stop stop-color="#009EFF"/>
<stop offset="1" stop-color="#BBF985"/>
</linearGradient>
</defs>
</svg>
