<svg width="34" height="34" viewBox="0 0 34 34" fill="none" xmlns="http://www.w3.org/2000/svg">
<circle cx="17" cy="17" r="17" fill="#F7F7F7"/>
<path d="M27.6256 17.255C27.6256 16.5089 27.5601 15.8005 27.4479 15.1111H16.8848V19.3705H22.9329C22.6618 20.7683 21.8672 21.9489 20.6894 22.7516V25.585H24.2977C26.4103 23.6111 27.6256 20.7022 27.6256 17.255Z" fill="#4285F4"/>
<path d="M16.8847 28.3334C19.9134 28.3334 22.4467 27.3134 24.2976 25.5851L20.6893 22.7517C19.6797 23.4317 18.3991 23.8473 16.8847 23.8473C13.9588 23.8473 11.4816 21.8545 10.5935 19.1628H6.87305V22.0812C8.71459 25.7834 12.5005 28.3334 16.8847 28.3334Z" fill="#34A853"/>
<path d="M10.5934 19.1628C10.3597 18.4828 10.2381 17.7556 10.2381 17.0001C10.2381 16.2445 10.369 15.5173 10.5934 14.8373V11.9189H6.87288C6.10635 13.4489 5.66699 15.1678 5.66699 17.0001C5.66699 18.8323 6.10635 20.5512 6.87288 22.0812L10.5934 19.1628Z" fill="#FBBC05"/>
<path d="M16.8847 10.1529C18.5393 10.1529 20.0163 10.729 21.1848 11.8529L24.3818 8.62286C22.4467 6.79064 19.9134 5.66675 16.8847 5.66675C12.5005 5.66675 8.71459 8.21675 6.87305 11.919L10.5935 14.8373C11.4816 12.1456 13.9588 10.1529 16.8847 10.1529Z" fill="#EA4335"/>
</svg>
