<svg width="34" height="34" viewBox="0 0 34 34" fill="none" xmlns="http://www.w3.org/2000/svg">
<circle cx="17" cy="17" r="17" fill="#F7F7F7"/>
<path d="M27.625 17.255C27.625 16.5089 27.5595 15.8005 27.4474 15.1111H16.8842V19.3705H22.9323C22.6612 20.7683 21.8666 21.9489 20.6888 22.7516V25.585H24.2971C26.4097 23.6111 27.625 20.7022 27.625 17.255Z" fill="#010A19"/>
<path d="M16.8842 28.3334C19.9129 28.3334 22.4462 27.3134 24.2971 25.5851L20.6888 22.7517C19.6792 23.4317 18.3986 23.8473 16.8842 23.8473C13.9583 23.8473 11.4811 21.8545 10.593 19.1628H6.87253V22.0812C8.71407 25.7834 12.5 28.3334 16.8842 28.3334Z" fill="#010A19"/>
<path d="M10.593 19.1628C10.3593 18.4828 10.2378 17.7556 10.2378 17.0001C10.2378 16.2445 10.3687 15.5173 10.593 14.8373V11.9189H6.87254C6.10601 13.4489 5.66666 15.1678 5.66666 17.0001C5.66666 18.8323 6.10601 20.5512 6.87254 22.0812L10.593 19.1628Z" fill="#010A19"/>
<path d="M16.8842 10.1529C18.5388 10.1529 20.0157 10.729 21.1842 11.8529L24.3812 8.62286C22.4462 6.79064 19.9129 5.66675 16.8842 5.66675C12.5 5.66675 8.71407 8.21675 6.87253 11.919L10.593 14.8373C11.4811 12.1456 13.9583 10.1529 16.8842 10.1529Z" fill="#010A19"/>
</svg>
