<svg width="14" height="13" viewBox="0 0 14 13" fill="none" xmlns="http://www.w3.org/2000/svg">
<path d="M13.2222 0.734166V10.2646C13.2222 10.6503 12.9243 10.9793 12.5389 10.9976C10.2691 11.1057 8.46506 11.9549 7.68494 12.7465C7.58322 12.85 7.46722 12.9305 7.34557 13V1.71667C7.34557 1.58109 7.41609 1.45592 7.53544 1.39193C8.85097 0.68586 10.6779 0.0876864 12.4517 0.000419566C12.6396 -0.00610341 12.8483 0.0635337 12.9939 0.202279C13.1397 0.340848 13.2222 0.533011 13.2222 0.734166ZM5.86927 1.71279C5.86927 1.57722 5.79857 1.45187 5.67904 1.38787C4.36405 0.683569 2.54096 0.0875101 0.770769 0.000419566C0.564149 -0.00610341 0.373749 0.0635337 0.228128 0.202279C0.0825067 0.340672 0 0.533011 0 0.734166V10.2646C0 10.6503 0.297941 10.9793 0.683325 10.9978C2.95403 11.1059 4.75789 11.9551 5.53695 12.7467C5.63673 12.848 5.75044 12.9275 5.86927 12.9963V1.71279Z" fill="white"/>
</svg>
