<svg width="18" height="15" viewBox="0 0 18 15" fill="none" xmlns="http://www.w3.org/2000/svg">
<path fill-rule="evenodd" clip-rule="evenodd" d="M12.8033 12.8033C9.87438 15.7322 5.12568 15.7322 2.19669 12.8033C-0.732225 9.87437 -0.732225 5.12568 2.19669 2.19668C5.12568 -0.73223 9.87438 -0.73223 12.8033 2.19668C13.1287 2.52218 13.1287 3.04977 12.8033 3.37527C12.4779 3.70068 11.9502 3.70068 11.6248 3.37527C9.34674 1.09719 5.65327 1.09719 3.37527 3.37527C1.09719 5.65326 1.09719 9.34674 3.37527 11.6248C5.65327 13.9029 9.34674 13.9029 11.6248 11.6248C11.9502 11.2994 12.4779 11.2994 12.8033 11.6248C13.1287 11.9502 13.1287 12.4779 12.8033 12.8033Z" fill="white"/>
<path fill-rule="evenodd" clip-rule="evenodd" d="M13.9108 4.41058C14.2362 4.08515 14.7638 4.08515 15.0893 4.41058L16.6464 5.96775L16.6653 5.98659C16.814 6.13525 16.9588 6.28009 17.0715 6.41275C17.1952 6.5585 17.3282 6.74342 17.4066 6.98483C17.5153 7.31958 17.5153 7.68008 17.4066 8.01483C17.3282 8.25633 17.1952 8.44116 17.0715 8.58691C16.9588 8.71958 16.814 8.86441 16.6653 9.01308L15.0893 10.5891C14.7638 10.9145 14.2362 10.9145 13.9108 10.5891C13.5853 10.2637 13.5853 9.736 13.9108 9.41058L14.9882 8.33316H7.83336C7.37312 8.33316 7.00002 7.96008 7.00002 7.49983C7.00002 7.03958 7.37312 6.6665 7.83336 6.6665L14.9882 6.6665L13.9108 5.58909C13.5853 5.26365 13.5853 4.73602 13.9108 4.41058Z" fill="white"/>
</svg>
