<svg width="46" height="46" viewBox="0 0 46 46" fill="none" xmlns="http://www.w3.org/2000/svg">
<rect x="1" y="1" width="44.5364" height="44.5364" rx="5" fill="#0B1320" stroke="url(#paint0_linear_2406_194)" stroke-width="0.5"/>
<g filter="url(#filter0_d_2406_194)">
<path d="M22.5568 22.7217V19.2038L19.5616 20.9628L22.5568 22.7217ZM19.1171 21.741V25.259L22.1123 23.5L19.1171 21.741ZM18.6752 20.4422L22.5542 18.1627V16.0935L16.9127 19.4063L18.6752 20.4422ZM29.0821 19.4063L23.4406 16.0935V18.1627L27.3196 20.4422L29.0821 19.4063ZM22.5568 27.7988V24.2809L19.5616 26.0398L22.5568 27.7988ZM18.2333 21.2231L16.4708 20.1872V26.8155L18.2333 25.7795V21.2205V21.2231ZM16.9153 27.5937L22.5568 30.9065V28.8373L18.6778 26.5578L16.9153 27.5937ZM23.4406 28.84V30.9092L29.0821 27.5963L27.3196 26.5604L23.4406 28.84ZM32.6691 16.2617L24.3244 11.3609C23.5026 10.8797 22.4922 10.8797 21.6704 11.3609L13.3283 16.2617C12.5065 16.7429 12 17.6368 12 18.5991V28.4009C12 29.3658 12.5065 30.2571 13.3283 30.7383L21.673 35.6391C22.4948 36.1203 23.5052 36.1203 24.327 35.6391L32.6717 30.7383C33.4935 30.2571 34 29.3632 34 28.4009V18.5991C34 17.6342 33.4935 16.7429 32.6717 16.2617H32.6691ZM31.501 27.9749C31.7129 28.0985 31.7853 28.3746 31.6638 28.5902C31.5811 28.7348 31.4338 28.8163 31.2813 28.8163C31.2064 28.8163 31.1314 28.7979 31.0617 28.7558L29.9711 28.1143L23.4458 31.9477V33.5174C23.4458 33.7671 23.2468 33.967 23.0039 33.967C22.761 33.967 22.562 33.7645 22.562 33.5174V31.9477L16.0367 28.1143L14.9461 28.7558C14.8763 28.7979 14.8014 28.8163 14.7264 28.8163C14.5739 28.8163 14.4241 28.7348 14.3439 28.5902C14.2225 28.3746 14.2948 28.0985 14.5068 27.9749L15.5973 27.3334V19.6666L14.5068 19.0251C14.2948 18.9015 14.2225 18.6254 14.3439 18.4098C14.4654 18.1942 14.7368 18.1206 14.9487 18.2442L16.0392 18.8857L22.5645 15.0523V13.4826C22.5645 13.2329 22.7635 13.033 23.0065 13.033C23.2494 13.033 23.4484 13.2355 23.4484 13.4826V15.0523L29.9737 18.8857L31.0643 18.2442C31.2762 18.1206 31.5475 18.1942 31.669 18.4098C31.7904 18.6254 31.7181 18.9015 31.5062 19.0251L30.4156 19.6666V27.3334L31.5062 27.9749H31.501ZM23.4406 19.2038V22.7217L26.4358 20.9628L23.4406 19.2038ZM27.7641 25.7795L29.5266 26.8155V20.1872L27.7641 21.2231V25.7822V25.7795ZM23.4406 24.2809V27.7988L26.4358 26.0398L23.4406 24.2809ZM26.8777 25.259V21.741L23.8825 23.5L26.8777 25.259Z" fill="url(#paint1_linear_2406_194)"/>
<path d="M22.5568 22.7217V19.2038L19.5616 20.9628L22.5568 22.7217ZM19.1171 21.741V25.259L22.1123 23.5L19.1171 21.741ZM18.6752 20.4422L22.5542 18.1627V16.0935L16.9127 19.4063L18.6752 20.4422ZM29.0821 19.4063L23.4406 16.0935V18.1627L27.3196 20.4422L29.0821 19.4063ZM22.5568 27.7988V24.2809L19.5616 26.0398L22.5568 27.7988ZM18.2333 21.2231L16.4708 20.1872V26.8155L18.2333 25.7795V21.2205V21.2231ZM16.9153 27.5937L22.5568 30.9065V28.8373L18.6778 26.5578L16.9153 27.5937ZM23.4406 28.84V30.9092L29.0821 27.5963L27.3196 26.5604L23.4406 28.84ZM32.6691 16.2617L24.3244 11.3609C23.5026 10.8797 22.4922 10.8797 21.6704 11.3609L13.3283 16.2617C12.5065 16.7429 12 17.6368 12 18.5991V28.4009C12 29.3658 12.5065 30.2571 13.3283 30.7383L21.673 35.6391C22.4948 36.1203 23.5052 36.1203 24.327 35.6391L32.6717 30.7383C33.4935 30.2571 34 29.3632 34 28.4009V18.5991C34 17.6342 33.4935 16.7429 32.6717 16.2617H32.6691ZM31.501 27.9749C31.7129 28.0985 31.7853 28.3746 31.6638 28.5902C31.5811 28.7348 31.4338 28.8163 31.2813 28.8163C31.2064 28.8163 31.1314 28.7979 31.0617 28.7558L29.9711 28.1143L23.4458 31.9477V33.5174C23.4458 33.7671 23.2468 33.967 23.0039 33.967C22.761 33.967 22.562 33.7645 22.562 33.5174V31.9477L16.0367 28.1143L14.9461 28.7558C14.8763 28.7979 14.8014 28.8163 14.7264 28.8163C14.5739 28.8163 14.4241 28.7348 14.3439 28.5902C14.2225 28.3746 14.2948 28.0985 14.5068 27.9749L15.5973 27.3334V19.6666L14.5068 19.0251C14.2948 18.9015 14.2225 18.6254 14.3439 18.4098C14.4654 18.1942 14.7368 18.1206 14.9487 18.2442L16.0392 18.8857L22.5645 15.0523V13.4826C22.5645 13.2329 22.7635 13.033 23.0065 13.033C23.2494 13.033 23.4484 13.2355 23.4484 13.4826V15.0523L29.9737 18.8857L31.0643 18.2442C31.2762 18.1206 31.5475 18.1942 31.669 18.4098C31.7904 18.6254 31.7181 18.9015 31.5062 19.0251L30.4156 19.6666V27.3334L31.5062 27.9749H31.501ZM23.4406 19.2038V22.7217L26.4358 20.9628L23.4406 19.2038ZM27.7641 25.7795L29.5266 26.8155V20.1872L27.7641 21.2231V25.7822V25.7795ZM23.4406 24.2809V27.7988L26.4358 26.0398L23.4406 24.2809ZM26.8777 25.259V21.741L23.8825 23.5L26.8777 25.259Z" fill="url(#paint2_linear_2406_194)" fill-opacity="0.4"/>
</g>
<defs>
<filter id="filter0_d_2406_194" x="4" y="3" width="38" height="41" filterUnits="userSpaceOnUse" color-interpolation-filters="sRGB">
<feFlood flood-opacity="0" result="BackgroundImageFix"/>
<feColorMatrix in="SourceAlpha" type="matrix" values="0 0 0 0 0 0 0 0 0 0 0 0 0 0 0 0 0 0 127 0" result="hardAlpha"/>
<feOffset/>
<feGaussianBlur stdDeviation="4"/>
<feComposite in2="hardAlpha" operator="out"/>
<feColorMatrix type="matrix" values="0 0 0 0 0 0 0 0 0 0.619608 0 0 0 0 1 0 0 0 0.6 0"/>
<feBlend mode="normal" in2="BackgroundImageFix" result="effect1_dropShadow_2406_194"/>
<feBlend mode="normal" in="SourceGraphic" in2="effect1_dropShadow_2406_194" result="shape"/>
</filter>
<linearGradient id="paint0_linear_2406_194" x1="1" y1="23.2682" x2="45.5364" y2="23.2682" gradientUnits="userSpaceOnUse">
<stop stop-color="#BBF985"/>
<stop offset="1" stop-color="#009EFF"/>
</linearGradient>
<linearGradient id="paint1_linear_2406_194" x1="22.922" y1="26.4459" x2="23.078" y2="26.4459" gradientUnits="userSpaceOnUse">
<stop stop-color="#DFF3FF"/>
<stop offset="1" stop-color="#9EDAFF"/>
</linearGradient>
<linearGradient id="paint2_linear_2406_194" x1="21.5177" y1="23.4204" x2="22.922" y2="23.4204" gradientUnits="userSpaceOnUse">
<stop offset="0.975755" stop-opacity="0"/>
<stop offset="1"/>
</linearGradient>
</defs>
</svg>
