<svg width="77" height="86" viewBox="0 0 77 86" fill="none" xmlns="http://www.w3.org/2000/svg">
<g filter="url(#filter0_d_1848_1769)">
<path d="M37.2711 40.8209V30.9708L28.9663 35.8958L37.2711 40.8209ZM27.7338 38.0749V47.9251L36.0386 43L27.7338 38.0749ZM26.5085 34.4382L37.264 28.0555V22.2617L21.6216 31.5376L26.5085 34.4382ZM55.364 31.5376L39.7217 22.2617V28.0555L50.4772 34.4382L55.364 31.5376ZM37.2711 55.0366V45.1865L28.9663 50.1115L37.2711 55.0366ZM25.2832 36.6247L20.3963 33.7241V52.2833L25.2832 49.3827V36.6173V36.6247ZM21.6288 54.4624L37.2711 63.7383V57.9445L26.5157 51.5618L21.6288 54.4624ZM39.7217 57.9519V63.7457L55.364 54.4697L50.4772 51.5692L39.7217 57.9519ZM65.3098 22.7329L42.1723 9.01041C39.8937 7.6632 37.092 7.6632 34.8133 9.01041L11.6831 22.7329C9.40444 24.0801 8 26.5831 8 29.2775V56.7225C8 59.4243 9.40444 61.9199 11.6831 63.2671L34.8205 76.9896C37.0991 78.3368 39.9009 78.3368 42.1795 76.9896L65.3169 63.2671C67.5956 61.9199 69 59.4169 69 56.7225V29.2775C69 26.5757 67.5956 24.0801 65.3169 22.7329H65.3098ZM62.071 55.5298C62.6585 55.8758 62.8592 56.6488 62.5224 57.2525C62.2931 57.6574 61.8846 57.8856 61.4619 57.8856C61.2541 57.8856 61.0463 57.8341 60.8528 57.7163L57.829 55.92L39.7361 66.6536V71.0486C39.7361 71.748 39.1843 72.3075 38.5107 72.3075C37.8372 72.3075 37.2854 71.7406 37.2854 71.0486V66.6536L19.1925 55.92L16.1687 57.7163C15.9752 57.8341 15.7674 57.8856 15.5596 57.8856C15.1368 57.8856 14.7212 57.6574 14.4991 57.2525C14.1623 56.6488 14.363 55.8758 14.9505 55.5298L17.9744 53.7336V32.2664L14.9505 30.4702C14.363 30.1242 14.1623 29.3512 14.4991 28.7475C14.8359 28.1438 15.5883 27.9377 16.1758 28.2837L19.1997 30.08L37.2926 19.3464V14.9514C37.2926 14.252 37.8444 13.6925 38.5179 13.6925C39.1915 13.6925 39.7432 14.2594 39.7432 14.9514V19.3464L57.8361 30.08L60.86 28.2837C61.4475 27.9377 62.1999 28.1438 62.5367 28.7475C62.8735 29.3512 62.6729 30.1242 62.0853 30.4702L59.0614 32.2664V53.7336L62.0853 55.5298H62.071ZM39.7217 30.9708V40.8209L48.0266 35.8958L39.7217 30.9708ZM51.7096 49.3827L56.5965 52.2833V33.7241L51.7096 36.6247V49.3901V49.3827ZM39.7217 45.1865V55.0366L48.0266 50.1115L39.7217 45.1865ZM49.2519 47.9251V38.0749L40.947 43L49.2519 47.9251Z" fill="url(#paint0_linear_1848_1769)"/>
<path d="M37.2711 40.8209V30.9708L28.9663 35.8958L37.2711 40.8209ZM27.7338 38.0749V47.9251L36.0386 43L27.7338 38.0749ZM26.5085 34.4382L37.264 28.0555V22.2617L21.6216 31.5376L26.5085 34.4382ZM55.364 31.5376L39.7217 22.2617V28.0555L50.4772 34.4382L55.364 31.5376ZM37.2711 55.0366V45.1865L28.9663 50.1115L37.2711 55.0366ZM25.2832 36.6247L20.3963 33.7241V52.2833L25.2832 49.3827V36.6173V36.6247ZM21.6288 54.4624L37.2711 63.7383V57.9445L26.5157 51.5618L21.6288 54.4624ZM39.7217 57.9519V63.7457L55.364 54.4697L50.4772 51.5692L39.7217 57.9519ZM65.3098 22.7329L42.1723 9.01041C39.8937 7.6632 37.092 7.6632 34.8133 9.01041L11.6831 22.7329C9.40444 24.0801 8 26.5831 8 29.2775V56.7225C8 59.4243 9.40444 61.9199 11.6831 63.2671L34.8205 76.9896C37.0991 78.3368 39.9009 78.3368 42.1795 76.9896L65.3169 63.2671C67.5956 61.9199 69 59.4169 69 56.7225V29.2775C69 26.5757 67.5956 24.0801 65.3169 22.7329H65.3098ZM62.071 55.5298C62.6585 55.8758 62.8592 56.6488 62.5224 57.2525C62.2931 57.6574 61.8846 57.8856 61.4619 57.8856C61.2541 57.8856 61.0463 57.8341 60.8528 57.7163L57.829 55.92L39.7361 66.6536V71.0486C39.7361 71.748 39.1843 72.3075 38.5107 72.3075C37.8372 72.3075 37.2854 71.7406 37.2854 71.0486V66.6536L19.1925 55.92L16.1687 57.7163C15.9752 57.8341 15.7674 57.8856 15.5596 57.8856C15.1368 57.8856 14.7212 57.6574 14.4991 57.2525C14.1623 56.6488 14.363 55.8758 14.9505 55.5298L17.9744 53.7336V32.2664L14.9505 30.4702C14.363 30.1242 14.1623 29.3512 14.4991 28.7475C14.8359 28.1438 15.5883 27.9377 16.1758 28.2837L19.1997 30.08L37.2926 19.3464V14.9514C37.2926 14.252 37.8444 13.6925 38.5179 13.6925C39.1915 13.6925 39.7432 14.2594 39.7432 14.9514V19.3464L57.8361 30.08L60.86 28.2837C61.4475 27.9377 62.1999 28.1438 62.5367 28.7475C62.8735 29.3512 62.6729 30.1242 62.0853 30.4702L59.0614 32.2664V53.7336L62.0853 55.5298H62.071ZM39.7217 30.9708V40.8209L48.0266 35.8958L39.7217 30.9708ZM51.7096 49.3827L56.5965 52.2833V33.7241L51.7096 36.6247V49.3901V49.3827ZM39.7217 45.1865V55.0366L48.0266 50.1115L39.7217 45.1865ZM49.2519 47.9251V38.0749L40.947 43L49.2519 47.9251Z" fill="url(#paint1_linear_1848_1769)" fill-opacity="0.4"/>
</g>
<defs>
<filter id="filter0_d_1848_1769" x="0" y="0" width="77" height="86" filterUnits="userSpaceOnUse" color-interpolation-filters="sRGB">
<feFlood flood-opacity="0" result="BackgroundImageFix"/>
<feColorMatrix in="SourceAlpha" type="matrix" values="0 0 0 0 0 0 0 0 0 0 0 0 0 0 0 0 0 0 127 0" result="hardAlpha"/>
<feOffset/>
<feGaussianBlur stdDeviation="4"/>
<feComposite in2="hardAlpha" operator="out"/>
<feColorMatrix type="matrix" values="0 0 0 0 0 0 0 0 0 0.619608 0 0 0 0 1 0 0 0 0.6 0"/>
<feBlend mode="normal" in2="BackgroundImageFix" result="effect1_dropShadow_1848_1769"/>
<feBlend mode="normal" in="SourceGraphic" in2="effect1_dropShadow_1848_1769" result="shape"/>
</filter>
<linearGradient id="paint0_linear_1848_1769" x1="38.2837" y1="51.2484" x2="38.7163" y2="51.2484" gradientUnits="userSpaceOnUse">
<stop stop-color="#DFF3FF"/>
<stop offset="1" stop-color="#9EDAFF"/>
</linearGradient>
<linearGradient id="paint1_linear_1848_1769" x1="34.3901" y1="42.7771" x2="38.2837" y2="42.7771" gradientUnits="userSpaceOnUse">
<stop offset="0.975755" stop-opacity="0"/>
<stop offset="1"/>
</linearGradient>
</defs>
</svg>
