<svg width="13" height="13" viewBox="0 0 13 13" fill="none" xmlns="http://www.w3.org/2000/svg">
<path d="M12.6554 0H3.69772C3.50746 0 3.35315 0.171246 3.35315 0.382398V11.8529C3.35189 12.2678 3.22786 12.6709 3 13H11.2774C12.2283 12.9989 12.999 12.1436 13 11.0881V0.382398C13 0.171246 12.8457 0 12.6554 0ZM10.5883 9.94109H5.76489C5.57463 9.94109 5.42032 9.76999 5.42032 9.55884C5.42032 9.34768 5.57463 9.17644 5.76489 9.17644H10.5883C10.7785 9.17644 10.9328 9.34768 10.9328 9.55884C10.9328 9.76999 10.7785 9.94109 10.5883 9.94109ZM10.5883 7.64698H5.76489C5.57463 7.64698 5.42032 7.47588 5.42032 7.26473C5.42032 7.05357 5.57463 6.88233 5.76489 6.88233H10.5883C10.7785 6.88233 10.9328 7.05357 10.9328 7.26473C10.9328 7.47588 10.7785 7.64698 10.5883 7.64698ZM10.5883 5.35288H5.76489C5.57463 5.35288 5.42032 5.18177 5.42032 4.97062C5.42032 4.75946 5.57463 4.58822 5.76489 4.58822H10.5883C10.7785 4.58822 10.9328 4.75946 10.9328 4.97062C10.9328 5.18177 10.7785 5.35288 10.5883 5.35288ZM10.5883 3.05877H5.76489C5.57463 3.05877 5.42032 2.88766 5.42032 2.67651C5.42032 2.46536 5.57463 2.29411 5.76489 2.29411H10.5883C10.7785 2.29411 10.9328 2.46536 10.9328 2.67651C10.9328 2.88766 10.7785 3.05877 10.5883 3.05877Z" fill="white"/>
<path d="M2.49994 1H0.500061C0.223938 1 0 1.179 0 1.3999V11.8C0 12.4627 0.671631 13 1.5 13C2.32837 13 3 12.4627 3 11.8V1.3999C3 1.179 2.77606 1 2.49994 1Z" fill="white"/>
</svg>
