<svg width="12" height="11" viewBox="0 0 12 11" fill="none" xmlns="http://www.w3.org/2000/svg">
<path d="M0.936035 5.78125C1.03842 5.80429 1.14362 5.81478 1.24854 5.8125H5.62354V10.5H2.49854C2.08437 10.4999 1.68696 10.3358 1.39404 10.043C1.10102 9.74995 0.936035 9.3519 0.936035 8.9375V5.78125ZM11.563 8.9375C11.563 9.14269 11.5224 9.34656 11.4438 9.53613C11.3653 9.72551 11.2499 9.898 11.105 10.043C10.96 10.1879 10.7875 10.3024 10.5981 10.3809C10.4086 10.4594 10.2056 10.5 10.0005 10.5H6.87549V5.8125H11.2505C11.3555 5.81481 11.4605 5.80432 11.563 5.78125V8.9375ZM10.1245 0C10.5389 3.62278e-08 10.937 0.164984 11.23 0.458008C11.5228 0.751002 11.687 1.14825 11.687 1.5625V4.71875C11.5846 4.69574 11.4794 4.68519 11.3745 4.6875H6.99951V0H10.1245ZM5.63916 0.015625C5.61609 0.118124 5.6056 0.223088 5.60791 0.328125V4.70312H0.92041V1.57812C0.920417 1.16374 1.0854 0.76665 1.37842 0.473633C1.67144 0.180615 2.06852 0.0156314 2.48291 0.015625H5.63916Z" fill="url(#paint0_linear_3346_510)"/>
<defs>
<linearGradient id="paint0_linear_3346_510" x1="6.30371" y1="-2.81015e-07" x2="15.4995" y2="10.5" gradientUnits="userSpaceOnUse">
<stop stop-color="#009EFF"/>
<stop offset="1" stop-color="#BBF985"/>
</linearGradient>
</defs>
</svg>
