<svg width="15" height="15" viewBox="0 0 15 15" fill="none" xmlns="http://www.w3.org/2000/svg">
<path d="M6.21584 10.8311C6.60633 11.2216 6.60637 11.8547 6.21594 12.2452L4.16902 14.2927C3.77851 14.6833 3.14527 14.6834 2.75471 14.2928L0.707206 12.2453C0.316643 11.8547 0.316688 11.2215 0.707306 10.831L2.75481 8.78405C3.14535 8.39362 3.77844 8.39367 4.16892 8.78416L6.21584 10.8311ZM15 14C15 14.5523 14.5523 15 14 15H9.07715C8.52486 15 8.07715 14.5523 8.07715 14V9.07715C8.07715 8.52486 8.52486 8.07715 9.07715 8.07715H14C14.5523 8.07715 15 8.52486 15 9.07715V14ZM6.92285 5.92285C6.92285 6.47514 6.47514 6.92285 5.92285 6.92285H1C0.447715 6.92285 0 6.47514 0 5.92285V1C0 0.447715 0.447715 0 1 0H5.92285C6.47514 0 6.92285 0.447715 6.92285 1V5.92285ZM14.2928 2.75471C14.6834 3.14527 14.6833 3.77851 14.2927 4.16902L12.2452 6.21595C11.8547 6.60638 11.2216 6.60633 10.8311 6.21584L8.78416 4.16892C8.39367 3.77844 8.39363 3.14535 8.78406 2.75481L10.831 0.707306C11.2215 0.316687 11.8547 0.316643 12.2453 0.707206L14.2928 2.75471Z" fill="url(#paint0_linear_2307_187)"/>
<defs>
<linearGradient id="paint0_linear_2307_187" x1="11.5387" y1="8.07691" x2="0.261864" y2="3.80822" gradientUnits="userSpaceOnUse">
<stop stop-color="#BBF985"/>
<stop offset="1" stop-color="#009EFF"/>
</linearGradient>
</defs>
</svg>
