<svg width="8" height="8" viewBox="0 0 8 8" fill="none" xmlns="http://www.w3.org/2000/svg">
<path d="M7.6 0.4H6.4V0H1.6V0.4H0.4C0.16 0.4 0 0.56 0 0.8V1.76C0 2.68 0.68 3.44 1.6 3.56V3.6C1.6 4.76 2.4 5.72 3.48 5.96L3.2 6.8H2.28C2.12 6.8 1.96 6.92 1.92 7.08L1.6 8H6.4L6.08 7.08C6.04 6.92 5.88 6.8 5.72 6.8H4.8L4.52 5.96C5.6 5.72 6.4 4.76 6.4 3.6V3.56C7.32 3.44 8 2.68 8 1.76V0.8C8 0.56 7.84 0.4 7.6 0.4ZM1.6 2.76C1.16 2.64 0.8 2.24 0.8 1.76V1.2H1.6V2.76ZM4.8 4L4 3.56L3.2 4L3.4 3.2L2.8 2.4H3.64L4 1.6L4.36 2.4H5.2L4.6 3.2L4.8 4ZM7.2 1.76C7.2 2.24 6.84 2.68 6.4 2.76V1.2H7.2V1.76Z" fill="#B3B3B3"/>
</svg>
