<svg width="13" height="13" viewBox="0 0 13 13" fill="none" xmlns="http://www.w3.org/2000/svg">
<path fill-rule="evenodd" clip-rule="evenodd" d="M2.50053 3.43755C2.4228 3.36585 2.35049 3.28763 2.28447 3.2034C1.97651 2.81048 1.82824 2.31579 1.86931 1.81826C1.91037 1.32073 2.13775 0.857042 2.50596 0.519933C2.87417 0.182824 3.35607 -0.0028541 3.85529 3.3307e-05C4.49823 0.00271347 5.12066 0.226581 5.61802 0.634028C5.86813 0.838927 6.07895 1.08397 6.24317 1.35707C6.40846 1.08219 6.62095 0.835745 6.87318 0.630055C7.37311 0.222368 7.99848 -0.00019165 8.64356 1.23831e-07C9.13647 0.00613277 9.60939 0.195796 9.96995 0.531943C10.3305 0.868091 10.5528 1.32658 10.5934 1.81785C10.634 2.30912 10.49 2.79789 10.1896 3.18868C10.1205 3.27851 10.0443 3.36167 9.96205 3.43755H11.2499C11.9403 3.43755 12.4999 3.99719 12.4999 4.68754V5.93753C12.4999 6.62788 11.9403 7.18752 11.2499 7.18752H1.24999C0.55964 7.18752 0 6.62788 0 5.93753V4.68754C0 3.99719 0.55964 3.43755 1.24999 3.43755H2.50053ZM8.64356 1.24999C8.28671 1.25214 7.94163 1.37786 7.66701 1.60575C7.3924 1.83364 7.20522 2.14964 7.13732 2.49998L7.03733 2.99998L8.74981 2.69998C8.92706 2.66741 9.08604 2.57053 9.19625 2.42794C9.30645 2.28534 9.36012 2.10707 9.34695 1.92734C9.33378 1.7476 9.2547 1.57906 9.12488 1.45405C8.99507 1.32904 8.82367 1.25638 8.64356 1.24999ZM5.62435 7.81247V12.4999H2.49938C2.08498 12.4999 1.68756 12.3353 1.39453 12.0423C1.10151 11.7493 0.93689 11.3518 0.93689 10.9374V7.78122C1.0394 7.80429 1.14434 7.81478 1.24939 7.81247H5.62435ZM11.5631 10.9374V7.78122C11.4606 7.80429 11.3556 7.81478 11.2506 7.81247H6.87561V12.4999H10.0006C10.2058 12.4999 10.409 12.4595 10.5985 12.381C10.7881 12.3025 10.9603 12.1874 11.1054 12.0423C11.2505 11.8972 11.3656 11.725 11.4441 11.5354C11.5227 11.3458 11.5631 11.1426 11.5631 10.9374ZM3.37397 1.45408C3.50378 1.32908 3.67518 1.25641 3.85529 1.25002C4.21214 1.25217 4.55722 1.37789 4.83184 1.60578C5.10645 1.83368 5.29363 2.14967 5.36153 2.50001L5.48027 2.98751L3.74904 2.70001C3.57179 2.66744 3.41281 2.57057 3.3026 2.42797C3.1924 2.28537 3.13873 2.10711 3.1519 1.92737C3.16507 1.74763 3.24415 1.57909 3.37397 1.45408Z" fill="white"/>
</svg>
