<svg width="23" height="23" viewBox="0 0 23 23" fill="none" xmlns="http://www.w3.org/2000/svg">
<path d="M0 11.078C0 4.95933 4.95982 0 11.0778 0C17.1962 0 22.156 4.95938 22.156 11.078C22.156 17.196 17.1962 22.1558 11.0778 22.1558C4.95982 22.1558 0 17.196 0 11.078Z" fill="#5D717D"/>
<path d="M19.1234 7.6876C18.6614 7.68863 18.1993 7.69001 17.7373 7.69104C16.698 5.36106 14.6583 3.67782 12.0817 3.27418C9.21094 2.82446 6.46335 4.15782 4.82503 6.5033C4.09733 7.54493 5.80758 8.52016 6.52908 7.48723C8.776 4.2704 13.5738 4.56111 15.5453 7.69649C15.1184 7.69747 14.6916 7.69854 14.2647 7.69953C14.1453 7.69988 14.0604 7.75298 14.008 7.828C13.9222 7.9199 13.8896 8.05449 13.9794 8.19355C14.7923 9.45506 15.6052 10.7165 16.4183 11.9779C16.555 12.1898 16.8498 12.1881 16.9853 11.9758C17.7918 10.7104 18.5985 9.44497 19.405 8.17953C19.5385 7.97032 19.3628 7.68698 19.1234 7.6876Z" fill="#DFF3FF"/>
<path d="M15.6451 14.6126C13.4156 17.805 8.67403 17.5434 6.67445 14.4765C7.08354 14.4755 7.49263 14.4744 7.90176 14.4734C8.02081 14.4731 8.10552 14.4203 8.15813 14.3455C8.24404 14.2536 8.27682 14.119 8.18697 13.9795C7.37425 12.7181 6.5613 11.4565 5.74839 10.1953C5.61192 9.98316 5.31693 9.98491 5.18149 10.1974C4.37488 11.4626 3.56809 12.728 2.76135 13.9935C2.62797 14.2029 2.80369 14.4861 3.04304 14.4854C3.51947 14.4842 3.99585 14.483 4.47228 14.4819C5.52159 16.7735 7.54353 18.4264 10.0928 18.8257C12.9636 19.2755 15.7112 17.9423 17.3491 15.5966C18.0767 14.5548 16.3665 13.5796 15.6451 14.6126Z" fill="#DFF3FF"/>
</svg>
