<svg width="148" height="46" viewBox="0 0 148 46" fill="none" xmlns="http://www.w3.org/2000/svg">
<path d="M23 0.25H125.75V45.75H23C10.4355 45.75 0.25 35.5645 0.25 23C0.25 10.4355 10.4355 0.25 23 0.25Z" fill="#0B1320" stroke="#009EFF" stroke-width="0.5"/>
<circle cx="125" cy="23" r="22.75" fill="url(#paint0_radial_3306_359)" stroke="#009EFF" stroke-width="0.5"/>
<path d="M137.069 24.8581H134.262C134.202 23.4375 133.885 22.0395 133.327 20.7319L135.728 19.1312C135.829 19.0635 135.916 18.9765 135.984 18.8752C136.052 18.7738 136.099 18.6601 136.123 18.5405C136.147 18.4209 136.147 18.2978 136.123 18.1782C136.099 18.0586 136.052 17.9448 135.985 17.8434C135.917 17.7419 135.83 17.6548 135.729 17.587C135.627 17.5191 135.514 17.4719 135.394 17.448C135.275 17.4242 135.151 17.4241 135.032 17.4478C134.912 17.4715 134.798 17.5185 134.697 17.5862L132.446 19.0866C132.331 18.9093 132.216 18.731 132.091 18.5611C131.711 18.059 131.173 17.6992 130.564 17.5397C130.564 17.5007 130.57 17.4645 130.57 17.4255C130.569 16.6223 130.395 15.8287 130.058 15.0994C129.722 14.37 129.231 13.7224 128.62 13.2009L129.548 11.3439C129.603 11.2348 129.635 11.116 129.644 10.9943C129.653 10.8726 129.637 10.7505 129.599 10.6347C129.56 10.519 129.499 10.4121 129.419 10.32C129.339 10.2278 129.242 10.1524 129.133 10.0979C129.023 10.0434 128.905 10.0109 128.783 10.0023C128.661 9.99371 128.539 10.0092 128.423 10.0478C128.308 10.0864 128.201 10.1475 128.109 10.2274C128.016 10.3074 127.941 10.4047 127.886 10.5138L127.023 12.2418C125.725 11.7292 124.282 11.7292 122.984 12.2418L122.121 10.5157C122.01 10.2953 121.817 10.1277 121.584 10.0497C121.468 10.011 121.346 9.99557 121.224 10.0042C121.102 10.0128 120.984 10.0452 120.875 10.0997C120.654 10.2098 120.486 10.4029 120.408 10.6366C120.33 10.8703 120.348 11.1254 120.459 11.3458L121.387 13.2028C120.774 13.7236 120.281 14.3714 119.943 15.1013C119.605 15.8311 119.429 16.6257 119.428 17.4302C119.428 17.4692 119.433 17.5054 119.433 17.5444C118.824 17.7039 118.287 18.0636 117.907 18.5657C117.782 18.7356 117.667 18.9139 117.551 19.0912L115.301 17.5862C115.199 17.5185 115.086 17.4715 114.966 17.4478C114.846 17.4241 114.723 17.4242 114.604 17.448C114.484 17.4719 114.37 17.5191 114.269 17.587C114.168 17.6548 114.081 17.7419 114.013 17.8434C113.945 17.9448 113.898 18.0586 113.875 18.1782C113.851 18.2978 113.851 18.4209 113.875 18.5405C113.923 18.782 114.065 18.9945 114.27 19.1312L116.671 20.7319C116.113 22.0395 115.796 23.4375 115.735 24.8581H112.928C112.682 24.8581 112.446 24.9559 112.272 25.1301C112.098 25.3042 112 25.5403 112 25.7866C112 26.0328 112.098 26.269 112.272 26.4431C112.446 26.6173 112.682 26.7151 112.928 26.7151H115.794C115.917 27.856 116.209 28.9723 116.659 30.0279L114.129 32.5581C114.04 32.6437 113.97 32.7462 113.921 32.8595C113.872 32.9727 113.847 33.0946 113.846 33.2179C113.845 33.3412 113.868 33.4634 113.915 33.5775C113.961 33.6916 114.03 33.7953 114.118 33.8825C114.205 33.9697 114.308 34.0386 114.422 34.0853C114.537 34.132 114.659 34.1555 114.782 34.1544C114.905 34.1533 115.027 34.1277 115.141 34.079C115.254 34.0304 115.356 33.9597 115.442 33.871L117.577 31.7354C118.36 33.0099 119.449 34.0679 120.745 34.8129C122.041 35.5579 123.504 35.966 124.999 36C126.495 35.9673 127.958 35.5599 129.256 34.8153C130.554 34.0706 131.644 33.0123 132.427 31.7373L134.562 33.8728C134.737 34.042 134.972 34.1355 135.215 34.1334C135.459 34.1313 135.692 34.0337 135.864 33.8615C136.036 33.6894 136.134 33.4565 136.136 33.213C136.138 32.9696 136.044 32.7351 135.875 32.5599L133.345 30.0298C133.793 28.9733 134.083 27.8563 134.204 26.7151H137.069C137.316 26.7151 137.552 26.6173 137.726 26.4431C137.9 26.269 137.998 26.0328 137.998 25.7866C137.998 25.5403 137.9 25.3042 137.726 25.1301C137.552 24.9559 137.316 24.8581 137.069 24.8581ZM124.999 13.7162C125.984 13.7162 126.929 14.1075 127.625 14.804C128.322 15.5005 128.713 16.4452 128.713 17.4302H121.285C121.285 16.4452 121.676 15.5005 122.373 14.804C123.069 14.1075 124.014 13.7162 124.999 13.7162ZM117.571 25.3957C117.556 23.34 118.196 21.333 119.399 19.666C119.497 19.5448 119.622 19.4477 119.763 19.3821C119.904 19.3164 120.059 19.2839 120.214 19.2872H124.07V34.0669C120.412 33.5265 117.571 29.8478 117.571 25.3957ZM125.927 34.0669V19.2872H129.783C129.939 19.2839 130.094 19.3164 130.235 19.3821C130.376 19.4477 130.501 19.5448 130.599 19.666C131.802 21.333 132.442 23.34 132.427 25.3957C132.427 29.8478 129.586 33.5265 125.927 34.0669Z" fill="url(#paint1_linear_3306_359)"/>
<path d="M15.9131 27V18.6H19.3931C21.0611 18.6 22.1771 19.704 22.1771 21.156C22.1771 22.392 21.3731 23.364 20.1131 23.64L22.3931 27H20.7971L18.5771 23.712H17.2451V27H15.9131ZM17.2451 22.524H19.3931C20.2331 22.524 20.8091 21.924 20.8091 21.156C20.8091 20.376 20.2331 19.788 19.3931 19.788H17.2451V22.524ZM22.8098 23.94C22.8098 22.128 24.1898 20.748 26.0018 20.748C27.9698 20.748 29.3858 22.356 29.1578 24.36H24.0818C24.2618 25.332 25.0418 26.028 26.0978 26.028C26.9018 26.028 27.5618 25.608 27.9098 24.936L28.9658 25.404C28.4378 26.412 27.4058 27.12 26.0618 27.12C24.2138 27.12 22.8098 25.74 22.8098 23.94ZM24.1178 23.376H27.8858C27.6818 22.488 26.9738 21.84 26.0018 21.84C25.0658 21.84 24.3338 22.476 24.1178 23.376ZM30.374 29.4V20.868H31.634V21.78C32.138 21.144 32.906 20.748 33.818 20.748C35.534 20.748 36.842 22.128 36.842 23.94C36.842 25.74 35.534 27.12 33.818 27.12C32.906 27.12 32.138 26.724 31.634 26.088V29.4H30.374ZM31.634 23.94C31.634 25.092 32.474 25.956 33.59 25.956C34.694 25.956 35.534 25.092 35.534 23.94C35.534 22.776 34.694 21.912 33.59 21.912C32.474 21.912 31.634 22.776 31.634 23.94ZM37.716 23.94C37.716 22.128 39.12 20.748 40.968 20.748C42.816 20.748 44.22 22.128 44.22 23.94C44.22 25.74 42.816 27.12 40.968 27.12C39.12 27.12 37.716 25.74 37.716 23.94ZM39.012 23.94C39.012 25.092 39.864 25.956 40.968 25.956C42.084 25.956 42.924 25.092 42.924 23.94C42.924 22.776 42.084 21.912 40.968 21.912C39.864 21.912 39.012 22.776 39.012 23.94ZM45.3975 27V20.868H46.6575V21.744C47.1855 21.012 48.0735 20.592 49.0575 20.82V22.02C47.7135 21.648 46.6575 22.356 46.6575 23.532V27H45.3975ZM49.5229 21.984V20.868H50.8309V18.876L52.0909 18.48V20.868H53.8189V21.984H52.0909V24.816C52.0909 25.56 52.4029 25.884 53.1469 25.884H53.8189V27H53.1469C51.5629 27 50.8309 26.268 50.8309 24.756V21.984H49.5229ZM58.2328 25.404C58.2328 24.108 59.3368 23.616 60.4888 23.496L61.6768 23.376C62.1208 23.34 62.3488 23.172 62.3488 22.776C62.3488 22.176 61.8328 21.804 61.1128 21.804C60.3928 21.804 59.8168 22.164 59.6608 22.932L58.4128 22.632C58.6408 21.492 59.6848 20.748 61.1128 20.748C62.5288 20.748 63.6088 21.492 63.6088 22.98V27H62.3488V26.088C61.8808 26.724 61.1128 27.12 60.2128 27.12C59.0608 27.12 58.2328 26.46 58.2328 25.404ZM59.4928 25.308C59.4928 25.788 59.8888 26.1 60.4888 26.1C61.5448 26.1 62.3488 25.26 62.3488 24.36V24.12C62.2168 24.24 61.9888 24.288 61.6528 24.324L60.4888 24.468C59.9008 24.54 59.4928 24.816 59.4928 25.308ZM68.5654 27V18.6H72.0694C73.5574 18.6 74.5414 19.584 74.5414 20.868C74.5414 21.648 74.1814 22.308 73.5814 22.704C74.4094 23.064 74.9014 23.82 74.9014 24.744C74.9014 26.04 73.9174 27 72.4294 27H68.5654ZM69.8614 25.848H72.2254C73.0414 25.848 73.5694 25.308 73.5694 24.6C73.5694 23.892 73.0414 23.364 72.2254 23.364H69.8614V25.848ZM69.8614 22.236H71.9614C72.7654 22.236 73.3054 21.696 73.3054 20.988C73.3054 20.28 72.7654 19.752 71.9614 19.752H69.8614V22.236ZM75.9703 20.868H77.2303V24.456C77.2303 25.356 77.8783 25.956 78.7663 25.956C79.6303 25.956 80.2903 25.356 80.2903 24.456V20.868H81.5503V24.456C81.5503 26.04 80.3623 27.12 78.7663 27.12C77.1463 27.12 75.9703 26.04 75.9703 24.456V20.868ZM82.6223 23.868C82.6223 22.104 83.9303 20.748 85.6463 20.748C86.5583 20.748 87.3263 21.132 87.8303 21.768V20.868H89.0903V26.34C89.0903 28.14 87.6863 29.52 85.8383 29.52C84.5063 29.52 83.4623 28.812 82.9583 27.792L84.0983 27.228C84.4223 27.924 85.0343 28.368 85.8383 28.368C86.9423 28.368 87.8303 27.504 87.8303 26.34V25.98C87.3263 26.604 86.5583 26.988 85.6463 26.988C83.9303 26.988 82.6223 25.644 82.6223 23.868ZM83.9183 23.868C83.9183 24.984 84.7703 25.836 85.8743 25.836C86.9903 25.836 87.8303 24.984 87.8303 23.868C87.8303 22.752 86.9903 21.912 85.8743 21.912C84.7703 21.912 83.9183 22.752 83.9183 23.868Z" fill="#0886D3"/>
<defs>
<radialGradient id="paint0_radial_3306_359" cx="0" cy="0" r="1" gradientUnits="userSpaceOnUse" gradientTransform="translate(125.397 22.6034) rotate(34.3803) scale(27.3879)">
<stop offset="0.485577" stop-color="#041E49"/>
<stop offset="1" stop-color="#0175BC"/>
</radialGradient>
<linearGradient id="paint1_linear_3306_359" x1="124.999" y1="10" x2="124.999" y2="36" gradientUnits="userSpaceOnUse">
<stop stop-color="#BBF985"/>
<stop offset="1" stop-color="#009EFF"/>
</linearGradient>
</defs>
</svg>
