<svg width="46" height="46" viewBox="0 0 46 46" fill="none" xmlns="http://www.w3.org/2000/svg">
<circle cx="23" cy="23" r="22.75" fill="url(#paint0_radial_3306_347)" stroke="#009EFF" stroke-width="0.5"/>
<path d="M35.0693 24.8581H32.2624C32.2021 23.4375 31.885 22.0395 31.3265 20.7319L33.7276 19.1312C33.829 19.0635 33.9162 18.9765 33.984 18.8752C34.0518 18.7738 34.099 18.6601 34.1229 18.5405C34.1468 18.4209 34.1469 18.2978 34.1232 18.1782C34.0995 18.0586 34.0525 17.9448 33.9848 17.8434C33.9171 17.7419 33.8301 17.6548 33.7288 17.587C33.6274 17.5191 33.5137 17.4719 33.3941 17.448C33.2746 17.4242 33.1514 17.4241 33.0318 17.4478C32.9122 17.4715 32.7984 17.5185 32.697 17.5862L30.4463 19.0866C30.3312 18.9093 30.216 18.731 30.0907 18.5611C29.7109 18.059 29.1733 17.6992 28.5643 17.5397C28.5643 17.5007 28.5698 17.4645 28.5698 17.4255C28.5694 16.6223 28.3949 15.8287 28.0583 15.0994C27.7217 14.37 27.231 13.7224 26.62 13.2009L27.5485 11.3439C27.603 11.2348 27.6355 11.116 27.6441 10.9943C27.6526 10.8726 27.6372 10.7505 27.5986 10.6347C27.5599 10.519 27.4989 10.4121 27.4189 10.32C27.339 10.2278 27.2416 10.1524 27.1325 10.0979C27.0234 10.0434 26.9046 10.0109 26.7829 10.0023C26.6612 9.99371 26.5391 10.0092 26.4234 10.0478C26.3076 10.0864 26.2007 10.1475 26.1086 10.2274C26.0165 10.3074 25.941 10.4047 25.8865 10.5138L25.023 12.2418C23.7255 11.7292 22.2816 11.7292 20.9841 12.2418L20.1206 10.5157C20.0105 10.2953 19.8174 10.1277 19.5837 10.0497C19.468 10.011 19.3458 9.99557 19.2241 10.0042C19.1024 10.0128 18.9836 10.0452 18.8745 10.0997C18.6541 10.2098 18.4865 10.4029 18.4085 10.6366C18.3305 10.8703 18.3485 11.1254 18.4586 11.3458L19.387 13.2028C18.774 13.7236 18.2814 14.3714 17.9431 15.1013C17.6049 15.8311 17.4291 16.6257 17.4279 17.4302C17.4279 17.4692 17.4326 17.5054 17.4335 17.5444C16.8245 17.7039 16.2868 18.0636 15.9071 18.5657C15.7817 18.7356 15.6666 18.9139 15.5514 19.0912L13.3008 17.5862C13.1993 17.5185 13.0856 17.4715 12.9659 17.4478C12.8463 17.4241 12.7232 17.4242 12.6036 17.448C12.484 17.4719 12.3703 17.5191 12.269 17.587C12.1676 17.6548 12.0806 17.7419 12.013 17.8434C11.9453 17.9448 11.8983 18.0586 11.8746 18.1782C11.8509 18.2978 11.851 18.4209 11.8748 18.5405C11.9231 18.782 12.0653 18.9945 12.2702 19.1312L14.6712 20.7319C14.1127 22.0395 13.7956 23.4375 13.7353 24.8581H10.9285C10.6822 24.8581 10.4461 24.9559 10.2719 25.1301C10.0978 25.3042 10 25.5403 10 25.7866C10 26.0328 10.0978 26.269 10.2719 26.4431C10.4461 26.6173 10.6822 26.7151 10.9285 26.7151H13.7938C13.9174 27.856 14.209 28.9723 14.6592 30.0279L12.129 32.5581C12.0404 32.6437 11.9696 32.7462 11.921 32.8595C11.8723 32.9727 11.8467 33.0946 11.8456 33.2179C11.8445 33.3412 11.868 33.4634 11.9147 33.5775C11.9614 33.6916 12.0303 33.7953 12.1175 33.8825C12.2047 33.9697 12.3084 34.0386 12.4225 34.0853C12.5366 34.132 12.6588 34.1555 12.7821 34.1544C12.9054 34.1533 13.0273 34.1277 13.1405 34.079C13.2538 34.0304 13.3563 33.9597 13.4419 33.871L15.5774 31.7354C16.3595 33.0099 17.4486 34.0679 18.745 34.8129C20.0415 35.5579 21.504 35.966 22.9989 36C24.4947 35.9673 25.9584 35.5599 27.2561 34.8153C28.5537 34.0706 29.6439 33.0123 30.4268 31.7373L32.5623 33.8728C32.7374 34.042 32.972 34.1355 33.2154 34.1334C33.4589 34.1313 33.6918 34.0337 33.8639 33.8615C34.0361 33.6894 34.1337 33.4565 34.1358 33.213C34.1379 32.9696 34.0444 32.7351 33.8752 32.5599L31.3451 30.0298C31.7932 28.9733 32.0826 27.8563 32.2039 26.7151H35.0693C35.3155 26.7151 35.5517 26.6173 35.7258 26.4431C35.8999 26.269 35.9978 26.0328 35.9978 25.7866C35.9978 25.5403 35.8999 25.3042 35.7258 25.1301C35.5517 24.9559 35.3155 24.8581 35.0693 24.8581ZM22.9989 13.7162C23.9839 13.7162 24.9285 14.1075 25.625 14.804C26.3215 15.5005 26.7128 16.4452 26.7128 17.4302H19.2849C19.2849 16.4452 19.6762 15.5005 20.3727 14.804C21.0692 14.1075 22.0139 13.7162 22.9989 13.7162ZM15.5709 25.3957C15.5558 23.34 16.1962 21.333 17.3991 19.666C17.4971 19.5448 17.6215 19.4477 17.7628 19.3821C17.9041 19.3164 18.0586 19.2839 18.2144 19.2872H22.0704V34.0669C18.4121 33.5265 15.5709 29.8478 15.5709 25.3957ZM23.9274 34.0669V19.2872H27.7834C27.9392 19.2839 28.0936 19.3164 28.2349 19.3821C28.3762 19.4477 28.5006 19.5448 28.5986 19.666C29.8016 21.333 30.442 23.34 30.4268 25.3957C30.4268 29.8478 27.5856 33.5265 23.9274 34.0669Z" fill="url(#paint1_linear_3306_347)"/>
<defs>
<radialGradient id="paint0_radial_3306_347" cx="0" cy="0" r="1" gradientUnits="userSpaceOnUse" gradientTransform="translate(23.3966 22.6034) rotate(34.3803) scale(27.3879)">
<stop offset="0.485577" stop-color="#041E49"/>
<stop offset="1" stop-color="#0175BC"/>
</radialGradient>
<linearGradient id="paint1_linear_3306_347" x1="22.9989" y1="10" x2="22.9989" y2="36" gradientUnits="userSpaceOnUse">
<stop stop-color="#BBF985"/>
<stop offset="1" stop-color="#009EFF"/>
</linearGradient>
</defs>
</svg>
