<svg width="15" height="15" viewBox="0 0 15 15" fill="none" xmlns="http://www.w3.org/2000/svg">
<path fill-rule="evenodd" clip-rule="evenodd" d="M7 1.2875C6.0345 2.1845 4.778 2.705 3.4605 2.7535L2.8535 2.1465C2.6585 1.9515 2.3415 1.9515 2.1465 2.1465C1.9515 2.3415 1.9515 2.6585 2.1465 2.8535L2.7535 3.4605C2.705 4.7775 2.1845 6.034 1.2875 7H0.5C0.224 7 0 7.224 0 7.5C0 7.776 0.224 8 0.5 8H1.2875C2.1845 8.9655 2.705 10.222 2.7535 11.5395L2.1465 12.1465C1.9515 12.3415 1.9515 12.6585 2.1465 12.8535C2.3415 13.0485 2.6585 13.0485 2.8535 12.8535L3.4605 12.2465C4.7775 12.295 6.034 12.8155 7 13.7125V14.5C7 14.776 7.224 15 7.5 15C7.776 15 8 14.776 8 14.5V13.7125C8.9655 12.8155 10.222 12.295 11.5395 12.2465L12.1465 12.8535C12.3415 13.0485 12.6585 13.0485 12.8535 12.8535C13.0485 12.6585 13.0485 12.3415 12.8535 12.1465L12.2465 11.5395C12.295 10.2225 12.8155 8.966 13.7125 8H14.5C14.776 8 15 7.776 15 7.5C15 7.224 14.776 7 14.5 7H13.7125C12.8155 6.0345 12.295 4.778 12.2465 3.4605L12.8535 2.8535C13.0485 2.6585 13.0485 2.3415 12.8535 2.1465C12.6585 1.9515 12.3415 1.9515 12.1465 2.1465L11.5395 2.7535C10.2225 2.705 8.966 2.1845 8 1.2875V0.5C8 0.224 7.776 0 7.5 0C7.224 0 7 0.224 7 0.5V1.2875ZM4.3685 11.3385C5.3155 11.5025 6.2145 11.875 7 12.4285V11.2165C6.505 10.784 5.8815 10.5255 5.2255 10.4815L4.3685 11.3385ZM10.6315 11.3385L9.7745 10.4815C9.1185 10.5255 8.495 10.784 8 11.2165V12.4285C8.7855 11.875 9.6845 11.5025 10.6315 11.3385ZM2.5715 8C3.125 8.7855 3.4975 9.6845 3.6615 10.6315L4.5185 9.7745C4.4745 9.1185 4.216 8.495 3.7835 8H2.5715ZM12.4285 8H11.2165C10.784 8.495 10.5255 9.1185 10.4815 9.7745L11.3385 10.6315C11.5025 9.6845 11.875 8.7855 12.4285 8ZM6.0885 9.619L7 8.707V9.9965C6.713 9.8335 6.4065 9.7065 6.0885 9.619ZM8 9.9965V8.707L8.9115 9.619C8.5935 9.7065 8.287 9.8335 8 9.9965ZM5.0035 8H6.293L5.381 8.9115C5.2935 8.5935 5.1665 8.287 5.0035 8ZM8.707 8H9.9965C9.8335 8.287 9.7065 8.5935 9.619 8.9115L8.707 8ZM11.3385 4.3685L10.4815 5.2255C10.5255 5.8815 10.784 6.505 11.2165 7H12.4285C11.875 6.2145 11.5025 5.3155 11.3385 4.3685ZM3.6615 4.3685C3.4975 5.3155 3.125 6.2145 2.5715 7H3.7835C4.216 6.505 4.4745 5.8815 4.5185 5.2255L3.6615 4.3685ZM9.619 6.0885C9.7065 6.4065 9.8335 6.713 9.9965 7H8.707L9.619 6.0885ZM5.381 6.0885L6.293 7H5.0035C5.1665 6.713 5.2935 6.4065 5.381 6.0885ZM7 5.0035V6.293L6.0885 5.381C6.4065 5.2935 6.713 5.1665 7 5.0035ZM8 6.293V5.0035C8.287 5.1665 8.5935 5.2935 8.9115 5.381L8 6.293ZM7 2.5715C6.2145 3.125 5.3155 3.4975 4.3685 3.6615L5.2255 4.5185C5.8815 4.4745 6.505 4.216 7 3.7835V2.5715ZM8 2.5715V3.7835C8.495 4.216 9.1185 4.4745 9.7745 4.5185L10.6315 3.6615C9.6845 3.4975 8.7855 3.125 8 2.5715Z" fill="url(#paint0_linear_1943_242)"/>
<defs>
<linearGradient id="paint0_linear_1943_242" x1="7.5" y1="6.29552e-07" x2="-1.89033" y2="4.61625" gradientUnits="userSpaceOnUse">
<stop stop-color="#BBF985"/>
<stop offset="1" stop-color="#009EFF"/>
</linearGradient>
</defs>
</svg>
