<svg width="26" height="25" viewBox="0 0 26 25" fill="none" xmlns="http://www.w3.org/2000/svg">
<path d="M12.8284 24.253C19.758 24.253 25.3755 18.8238 25.3755 12.1265C25.3755 5.42922 19.758 0 12.8284 0C5.89879 0 0.28125 5.42922 0.28125 12.1265C0.28125 18.8238 5.89879 24.253 12.8284 24.253Z" fill="#5D717D"/>
<path d="M12.8284 22.936C19.0051 22.936 24.0122 18.0967 24.0122 12.1271C24.0122 6.15744 19.0051 1.31812 12.8284 1.31812C6.65171 1.31812 1.64453 6.15744 1.64453 12.1271C1.64453 18.0967 6.65171 22.936 12.8284 22.936Z" fill="url(#paint0_linear_1577_2)"/>
<path d="M8.88 18V15.92L13.536 11.728C13.936 11.36 14.304 10.864 14.304 10.272C14.304 9.52 13.744 9.12 12.96 9.12C12.176 9.12 11.616 9.6 11.616 10.608H8.8C8.8 8.064 10.624 6.64 13.04 6.64C15.488 6.64 17.12 7.968 17.12 10.192C17.12 11.648 16.24 12.816 15.248 13.648L12.928 15.6H17.2V18H8.88Z" fill="white"/>
<defs>
<linearGradient id="paint0_linear_1577_2" x1="12.8284" y1="1.26443" x2="12.8284" y2="22.5982" gradientUnits="userSpaceOnUse">
<stop stop-color="#009EFF"/>
</linearGradient>
</defs>
</svg>
