<svg width="13" height="13" viewBox="0 0 13 13" fill="none" xmlns="http://www.w3.org/2000/svg">
<path fill-rule="evenodd" clip-rule="evenodd" d="M1.9038 1.9038C4.44221 -0.634601 8.55774 -0.634601 11.0962 1.9038C13.6346 4.44221 13.6346 8.55774 11.0962 11.0962C8.55774 13.6346 4.44221 13.6346 1.9038 11.0962C1.62176 10.8141 1.62176 10.3569 1.9038 10.0748C2.18585 9.79274 2.64313 9.79274 2.92518 10.0748C4.89949 12.0491 8.10051 12.0491 10.0748 10.0748C12.0491 8.10051 12.0491 4.89949 10.0748 2.92518C8.10051 0.950862 4.89949 0.950862 2.92518 2.92518C2.64313 3.20723 2.18585 3.20723 1.9038 2.92518C1.62176 2.64313 1.62176 2.18585 1.9038 1.9038ZM5.98931 3.82264C6.27134 3.5406 6.72865 3.5406 7.01067 3.82264L8.36022 5.17219L8.37654 5.18851C8.50546 5.31735 8.63098 5.44288 8.72862 5.55785C8.8358 5.68417 8.95107 5.84443 9.01903 6.05366C9.11328 6.34377 9.11328 6.65621 9.01903 6.94632C8.95107 7.15562 8.8358 7.31581 8.72862 7.44213C8.63098 7.55711 8.50546 7.68263 8.37654 7.81147L7.01067 9.17734C6.72865 9.45936 6.27134 9.45936 5.98931 9.17734C5.70728 8.89531 5.70728 8.438 5.98931 8.15597L6.92307 7.22221H0.722221C0.323353 7.22221 0 6.89887 0 6.49999C0 6.10111 0.323353 5.77777 0.722221 5.77777H6.92307L5.98931 4.84402C5.70728 4.56197 5.70728 4.10469 5.98931 3.82264Z" fill="#5D717D"/>
</svg>
