<svg width="11" height="9" viewBox="0 0 11 9" fill="none" xmlns="http://www.w3.org/2000/svg">
<path fill-rule="evenodd" clip-rule="evenodd" d="M5.23197 9H6.46167C6.61463 9 6.76112 8.93922 6.86924 8.8311C7.40138 8.29896 9.99854 5.70155 10.793 4.90733C11.018 4.68236 11.018 4.31764 10.793 4.09267L6.86924 0.168904C6.76112 0.0607819 6.61463 -5.83895e-06 6.46167 0.000243289C6.21802 0.000243289 5.68788 0.000249128 5.23197 0C4.99904 0 4.78877 0.140503 4.69958 0.35575C4.61065 0.570997 4.65972 0.818884 4.82465 0.983558L8.28603 4.44494C8.31643 4.47533 8.31643 4.52467 8.28603 4.55506L4.82465 8.01644C4.65972 8.18112 4.61065 8.429 4.69958 8.64425C4.78877 8.8595 4.99904 9 5.23197 9ZM0.576263 9H1.80596C1.95868 9 2.10541 8.93922 2.21328 8.8311L6.13705 4.90733C6.36202 4.68236 6.36202 4.31764 6.13705 4.09267L2.21328 0.168904C2.10541 0.0607819 1.95868 -5.83895e-06 1.80596 0.000243289C1.56206 0.000243289 1.03192 0.000249128 0.576263 0C0.343079 0 0.133064 0.140503 0.0438762 0.35575C-0.0453117 0.570997 0.00401565 0.818884 0.168689 0.983558L3.63008 4.44494C3.66047 4.47533 3.66047 4.52467 3.63008 4.55506L0.168689 8.01644C0.00401565 8.18112 -0.0453117 8.429 0.0438762 8.64425C0.133064 8.8595 0.343079 9 0.576263 9Z" fill="#010A19"/>
</svg>
