<svg width="9" height="8" viewBox="0 0 9 8" fill="none" xmlns="http://www.w3.org/2000/svg">
<path d="M0.0290918 2.76494C-0.0299355 2.59078 0.00268945 2.39034 0.111727 2.25705L1.84667 0.13656C1.99564 -0.04552 2.23704 -0.04552 2.386 0.13656C2.53492 0.318533 2.53492 0.613685 2.386 0.795658L1.30205 2.12049H8.61864C8.82925 2.12049 9 2.32915 9 2.5866C9 2.84404 8.82925 3.0527 8.61864 3.0527H0.381393C0.227145 3.0527 0.0881191 2.93909 0.0290918 2.76494ZM8.61861 4.10144H0.381357C0.170754 4.10144 0 4.31009 0 4.56754C0 4.82499 0.170754 5.03364 0.381357 5.03364H7.69795L6.61396 6.35848C6.46508 6.54045 6.46504 6.8356 6.61396 7.01758C6.68844 7.10861 6.78602 7.15413 6.88363 7.15413C6.9812 7.15413 7.07882 7.10861 7.15329 7.01758L8.88827 4.89709C8.99731 4.76382 9.02994 4.56335 8.97091 4.3892C8.91188 4.21505 8.77286 4.10144 8.61861 4.10144Z" fill="white"/>
</svg>
