<svg width="26" height="25" viewBox="0 0 26 25" fill="none" xmlns="http://www.w3.org/2000/svg">
<path d="M12.8284 24.3743C19.758 24.3743 25.3755 18.9451 25.3755 12.2478C25.3755 5.55056 19.758 0.121338 12.8284 0.121338C5.89879 0.121338 0.28125 5.55056 0.28125 12.2478C0.28125 18.9451 5.89879 24.3743 12.8284 24.3743Z" fill="#5D717D"/>
<path d="M12.8284 23.0573C19.0051 23.0573 24.0122 18.218 24.0122 12.2484C24.0122 6.27878 19.0051 1.43945 12.8284 1.43945C6.65171 1.43945 1.64453 6.27878 1.64453 12.2484C1.64453 18.218 6.65171 23.0573 12.8284 23.0573Z" fill="url(#paint0_linear_1577_2)"/>
<path d="M11.136 14.192C11.136 15.2 11.696 15.664 12.496 15.664C13.36 15.664 13.824 15.2 13.824 14.368C13.824 13.568 13.2 13.12 12.112 13.12H10.96V11.04L12.896 9.2H8.88V6.8H16.24V8.88L13.776 11.216C15.312 11.488 16.64 12.656 16.64 14.608C16.64 16.672 14.928 18.16 12.48 18.16C10.064 18.16 8.48 16.912 8.32 14.512L11.136 14.192Z" fill="white"/>
<defs>
<linearGradient id="paint0_linear_1577_2" x1="12.8284" y1="1.38577" x2="12.8284" y2="22.7195" gradientUnits="userSpaceOnUse">
<stop stop-color="#009EFF"/>
</linearGradient>
</defs>
</svg>
