<svg width="18" height="22" viewBox="0 0 18 22" fill="none" xmlns="http://www.w3.org/2000/svg">
<path d="M0.00015244 3.37497C0.000152359 5.23892 4.02956 6.74994 9.00008 6.74994C13.9706 6.74994 18 5.23892 18 3.37497C18 1.51103 13.9706 -1.76131e-07 9.00008 -3.93399e-07C4.02956 -6.10668e-07 0.000152522 1.51103 0.00015244 3.37497Z" fill="white"/>
<path d="M12.375 7.64999L12.375 9.89997C13.725 9.67497 14.85 9.33748 15.75 8.99998L15.75 6.75C14.7375 7.2 13.6125 7.42499 12.375 7.64999Z" fill="white"/>
<path d="M16.875 8.43767C17.55 7.87518 18 7.31268 18 6.75019L18 5.5127C17.6625 5.73769 17.325 6.07519 16.875 6.30019L16.875 8.43767Z" fill="white"/>
<path d="M5.625 9.89978L5.625 7.6498C4.38751 7.4248 3.26252 7.1998 2.25003 6.8623L2.25003 8.99979C3.15002 9.33728 4.27501 9.67478 5.625 9.89978Z" fill="white"/>
<path d="M9.53674e-06 5.5127L9.48265e-06 6.75019C9.45806e-06 7.31268 0.450006 7.87518 1.125 8.43767L1.125 6.30019C0.675004 6.07519 0.337507 5.85019 9.53674e-06 5.5127Z" fill="white"/>
<path d="M9.00002 7.87519C8.21253 7.87519 7.53753 7.87519 6.75004 7.7627L6.75004 10.0127C7.42503 10.1252 8.21253 10.1252 9.00002 10.1252C9.78751 10.1252 10.575 10.1252 11.25 10.0127L11.25 7.7627C10.4625 7.87519 9.78751 7.87519 9.00002 7.87519Z" fill="white"/>
<path d="M0.00015244 14.625C0.000152359 16.4889 4.02956 17.9999 9.00008 17.9999C13.9706 17.9999 18 16.4889 18 14.625C18 12.761 13.9706 11.25 9.00008 11.25C4.02956 11.25 0.000152522 12.761 0.00015244 14.625Z" fill="white"/>
<path d="M12.375 18.9L12.375 21.15C13.725 20.925 14.85 20.5875 15.75 20.25L15.75 18C14.7375 18.45 13.6125 18.675 12.375 18.9Z" fill="white"/>
<path d="M16.875 19.6867C17.55 19.1242 18 18.5617 18 17.9992L18 16.7617C17.6625 16.9867 17.325 17.3242 16.875 17.5492L16.875 19.6867Z" fill="white"/>
<path d="M5.625 21.1498L5.625 18.8998C4.38751 18.6748 3.26252 18.4498 2.25003 18.1123L2.25003 20.2498C3.15002 20.5873 4.27501 20.9248 5.625 21.1498Z" fill="white"/>
<path d="M9.53674e-06 16.7617L9.48265e-06 17.9992C9.45806e-06 18.5617 0.450006 19.1242 1.125 19.6867L1.125 17.5492C0.675004 17.3242 0.337507 17.0992 9.53674e-06 16.7617Z" fill="white"/>
<path d="M9.00002 19.1252C8.21253 19.1252 7.53753 19.1252 6.75004 19.0127L6.75004 21.2627C7.42503 21.3752 8.21253 21.3752 9.00002 21.3752C9.78751 21.3752 10.575 21.3752 11.25 21.2627L11.25 19.0127C10.4625 19.1252 9.78751 19.1252 9.00002 19.1252Z" fill="white"/>
</svg>
