<svg width="12" height="14" viewBox="0 0 12 14" fill="none" xmlns="http://www.w3.org/2000/svg">
<path fill-rule="evenodd" clip-rule="evenodd" d="M6.25262 0.828566C6.09655 0.737158 5.90329 0.737158 5.74722 0.828566L1.46709 3.33546C1.13736 3.52858 1.13736 4.00522 1.46709 4.19834L5.74722 6.70524C5.90329 6.79664 6.09655 6.79664 6.25262 6.70524L10.5327 4.19834C10.8625 4.00522 10.8625 3.52858 10.5327 3.33546L6.25262 0.828566ZM0 10.9558C0 11.1333 0.0941241 11.2975 0.247303 11.3872L4.50047 13.8783C4.83379 14.0736 5.25317 13.8332 5.25317 13.4469V8.4331C5.25317 8.25558 5.15904 8.09137 5.00586 8.00166L0.752697 5.51057C0.419373 5.31535 0 5.55573 0 5.94202V10.9558ZM6.74707 8.4331C6.74707 8.25558 6.84119 8.09137 6.99437 8.00166L11.2475 5.51057C11.5809 5.31535 12.0002 5.55573 12.0002 5.94202V10.9558C12.0002 11.1333 11.9061 11.2975 11.7529 11.3872L7.49977 13.8783C7.16644 14.0736 6.74707 13.8332 6.74707 13.4469V8.4331Z" fill="url(#paint0_linear_1943_249)"/>
<defs>
<linearGradient id="paint0_linear_1943_249" x1="12" y1="7" x2="-0.800442" y2="3.53313" gradientUnits="userSpaceOnUse">
<stop stop-color="#BBF985"/>
<stop offset="1" stop-color="#009EFF"/>
</linearGradient>
</defs>
</svg>
