<svg width="12" height="15" viewBox="0 0 12 15" fill="none" xmlns="http://www.w3.org/2000/svg">
<path d="M6.2528 0.828671C6.09674 0.737262 5.90347 0.737262 5.7474 0.828671L1.46728 3.33556C1.13754 3.52869 1.13754 4.00532 1.46728 4.19845L5.7474 6.70534C5.90347 6.79675 6.09674 6.79675 6.2528 6.70534L10.5329 4.19845C10.8627 4.00532 10.8627 3.52869 10.5329 3.33556L6.2528 0.828671Z" fill="white"/>
<path d="M0 10.9559C0 11.1334 0.0941241 11.2976 0.247303 11.3874L4.50047 13.8784C4.83379 14.0737 5.25317 13.8333 5.25317 13.447V8.4332C5.25317 8.25569 5.15904 8.09148 5.00586 8.00176L0.752697 5.51068C0.419373 5.31545 0 5.55584 0 5.94212V10.9559Z" fill="white"/>
<path d="M6.99413 8.00176C6.84095 8.09148 6.74683 8.25569 6.74683 8.4332V13.447C6.74683 13.8333 7.1662 14.0737 7.49952 13.8784L11.7527 11.3874C11.9059 11.2976 12 11.1334 12 10.9559V5.94212C12 5.55584 11.5806 5.31545 11.2473 5.51068L6.99413 8.00176Z" fill="white"/>
</svg>
