<svg width="17" height="15" viewBox="0 0 17 15" fill="none" xmlns="http://www.w3.org/2000/svg">
<path d="M17 7.28424C17 10.1299 14.685 12.445 11.8393 12.445H10.9286V14.1364C10.9286 14.5208 10.4642 14.7126 10.1928 14.4412L7.28577 11.5342L10.1928 8.62724C10.4642 8.35585 10.9286 8.54831 10.9286 8.93203V10.6235H11.8393C13.6802 10.6235 15.1786 9.12571 15.1786 7.28424C15.1786 5.44278 13.6802 3.94496 11.8393 3.94496C11.3366 3.94496 10.9286 3.53757 10.9286 3.03425C10.9286 2.53093 11.3366 2.12354 11.8393 2.12354C14.685 2.12354 17 4.43857 17 7.28424Z" fill="white"/>
<path d="M9.71427 3.03411L6.80728 5.94111C6.53588 6.2125 6.07142 6.02004 6.07142 5.63632V3.94482H5.16071C3.31985 3.94482 1.82143 5.44264 1.82143 7.28411C1.82143 9.12557 3.31985 10.6234 5.16071 10.6234C5.66342 10.6234 6.07142 11.0308 6.07142 11.5341C6.07142 12.0374 5.66342 12.4448 5.16071 12.4448C2.31503 12.4448 0 10.1298 0 7.28411C0 4.43843 2.31503 2.1234 5.16071 2.1234H6.07142V0.431899C6.07142 0.0475781 6.53588 -0.144279 6.80728 0.127114L9.71427 3.03411Z" fill="white"/>
</svg>
