<svg width="15" height="15" viewBox="0 0 15 15" fill="none" xmlns="http://www.w3.org/2000/svg">
<path d="M8.14294 8.14307H6.10722C5.54507 8.14307 5.08936 8.59878 5.08936 9.16093V13.2324C5.08936 13.7945 5.54507 14.2502 6.10722 14.2502H8.14294C8.70509 14.2502 9.1608 13.7945 9.1608 13.2324V9.16093C9.1608 8.59878 8.70509 8.14307 8.14294 8.14307Z" fill="white"/>
<path d="M3.05358 9.66992H1.01786C0.455712 9.66992 0 10.1256 0 10.6878V13.2324C0 13.7946 0.455712 14.2503 1.01786 14.2503H3.05358C3.61573 14.2503 4.07144 13.7946 4.07144 13.2324V10.6878C4.07144 10.1256 3.61573 9.66992 3.05358 9.66992Z" fill="white"/>
<path d="M13.2323 5.59814H11.1966C10.6344 5.59814 10.1787 6.05386 10.1787 6.616V13.2321C10.1787 13.7942 10.6344 14.25 11.1966 14.25H13.2323C13.7944 14.25 14.2502 13.7942 14.2502 13.2321V6.616C14.2502 6.05386 13.7944 5.59814 13.2323 5.59814Z" fill="white"/>
<path d="M2.0362 7.63395C2.0786 7.63391 2.12082 7.62861 2.16191 7.61818C3.98351 7.15411 5.73619 6.45257 7.37488 5.53156C9.15884 4.52347 10.7888 3.26442 12.2148 1.79296V3.05358C12.2148 3.18856 12.2684 3.31801 12.3639 3.41345C12.4593 3.50889 12.5888 3.56251 12.7237 3.56251C12.8587 3.56251 12.9882 3.50889 13.0836 3.41345C13.179 3.31801 13.2327 3.18856 13.2327 3.05358V0.50893C13.2327 0.373954 13.179 0.244505 13.0836 0.149062C12.9882 0.0536193 12.8587 0 12.7237 0H10.1791C10.0441 0 9.91466 0.0536193 9.81922 0.149062C9.72378 0.244505 9.67016 0.373954 9.67016 0.50893C9.67016 0.643907 9.72378 0.773355 9.81922 0.868798C9.91466 0.964241 10.0441 1.01786 10.1791 1.01786H11.541C10.1706 2.44739 8.59914 3.66947 6.87613 4.64551C5.3151 5.52198 3.64557 6.18931 1.9105 6.63034C1.78889 6.6597 1.68235 6.73282 1.61123 6.83574C1.54011 6.93867 1.50939 7.06418 1.52494 7.18831C1.54049 7.31245 1.60122 7.42651 1.69552 7.50871C1.78983 7.59091 1.91111 7.6355 2.0362 7.63395Z" fill="white"/>
</svg>
