<svg width="12" height="12" viewBox="0 0 12 12" fill="none" xmlns="http://www.w3.org/2000/svg">
<path d="M10.8 4.8V10.2C10.8 10.3591 10.7368 10.5117 10.6243 10.6243C10.5117 10.7368 10.3591 10.8 10.2 10.8H1.8C1.64087 10.8 1.48826 10.7368 1.37574 10.6243C1.26321 10.5117 1.2 10.3591 1.2 10.2V1.8C1.2 1.64087 1.26321 1.48826 1.37574 1.37574C1.48826 1.26321 1.64087 1.2 1.8 1.2H7.2C7.35913 1.2 7.51174 1.13679 7.62426 1.02426C7.73679 0.911742 7.8 0.75913 7.8 0.6C7.8 0.44087 7.73679 0.288258 7.62426 0.175736C7.51174 0.0632141 7.35913 0 7.2 0H1.8C1.32261 0 0.864773 0.189642 0.527208 0.527208C0.189642 0.864773 0 1.32261 0 1.8V10.2C0 10.6774 0.189642 11.1352 0.527208 11.4728C0.864773 11.8104 1.32261 12 1.8 12H10.2C10.6774 12 11.1352 11.8104 11.4728 11.4728C11.8104 11.1352 12 10.6774 12 10.2V4.8C12 4.64087 11.9368 4.48826 11.8243 4.37574C11.7117 4.26321 11.5591 4.2 11.4 4.2C11.2409 4.2 11.0883 4.26321 10.9757 4.37574C10.8632 4.48826 10.8 4.64087 10.8 4.8Z" fill="#5D717D"/>
<path d="M11.4547 0H9.81899C9.67438 0 9.5357 0.0670203 9.43344 0.186317C9.33119 0.305614 9.27374 0.467416 9.27374 0.636127C9.27374 0.804838 9.33119 0.96664 9.43344 1.08594C9.5357 1.20523 9.67438 1.27225 9.81899 1.27225H10.1407L6.16035 5.90962C6.05768 6.02941 6 6.19187 6 6.36127C6 6.53067 6.05768 6.69314 6.16035 6.81292C6.26303 6.93271 6.40228 7 6.54748 7C6.69268 7 6.83194 6.93271 6.93461 6.81292L10.9095 2.16919V2.54451C10.9095 2.71322 10.9669 2.87502 11.0692 2.99432C11.1715 3.11361 11.3101 3.18064 11.4547 3.18064C11.5994 3.18064 11.738 3.11361 11.8403 2.99432C11.9426 2.87502 12 2.71322 12 2.54451V0.636127C12 0.467416 11.9426 0.305614 11.8403 0.186317C11.738 0.0670203 11.5994 0 11.4547 0Z" fill="#5D717D"/>
</svg>
