<!-- public/icons/unknown.svg -->
<svg width="24" height="24" viewBox="0 0 24 24" fill="none" xmlns="http://www.w3.org/2000/svg">
  <!-- White circular background -->
  <circle cx="12" cy="12" r="11" fill="white" stroke="#e5e7eb" stroke-width="1"/>
  <!-- Beautiful question mark -->
  <path d="M9.5 9.5C9.5 7.567 10.567 6 12.5 6C14.433 6 15.5 7.067 15.5 9C15.5 10.2 14.8 11.1 13.8 11.6C13.3 11.85 13 12.1 13 12.5V13.5H11.5V12.5C11.5 11.4 12.1 10.8 12.8 10.4C13.3 10.1 13.5 9.7 13.5 9.2C13.5 8.4 13.1 8 12.5 8C11.9 8 11.5 8.4 11.5 9H9.5V9.5Z" fill="black"/>
  <circle cx="12.25" cy="16.5" r="1" fill="black"/>
</svg>