<svg width="8" height="9" viewBox="0 0 8 9" fill="none" xmlns="http://www.w3.org/2000/svg">
<path d="M3.95508 0C2.64658 0 1.58203 1.06455 1.58203 2.37305C1.58203 3.68155 2.64658 4.74609 3.95508 4.74609C5.26358 4.74609 6.32812 3.68155 6.32812 2.37305C6.32812 1.06455 5.26358 0 3.95508 0Z" fill="#B3B3B3"/>
<path d="M6.90761 6.2964C6.25792 5.63672 5.39664 5.27344 4.48242 5.27344H3.42773C2.51353 5.27344 1.65224 5.63672 1.00255 6.2964C0.356045 6.95283 0 7.81933 0 8.73633C0 8.88195 0.118055 9 0.263672 9H7.64648C7.7921 9 7.91016 8.88195 7.91016 8.73633C7.91016 7.81933 7.55411 6.95283 6.90761 6.2964Z" fill="#B3B3B3"/>
</svg>
