<?xml version="1.0" standalone="no"?>
<!DOCTYPE svg PUBLIC "-//W3C//DTD SVG 20010904//EN"
 "http://www.w3.org/TR/2001/REC-SVG-20010904/DTD/svg10.dtd">
<svg version="1.0" xmlns="http://www.w3.org/2000/svg"
 width="512.000000pt" height="512.000000pt" viewBox="0 0 512.000000 512.000000"
 preserveAspectRatio="xMidYMid meet">

<g transform="translate(0.000000,512.000000) scale(0.100000,-0.100000)"
fill="#FFFFFF" stroke="none">
<path d="M2325 5109 c-591 -60 -1122 -305 -1537 -707 -227 -220 -385 -435
-522 -712 -259 -523 -329 -1104 -204 -1690 50 -235 186 -569 323 -790 135
-217 361 -473 560 -635 368 -299 822 -493 1305 -557 123 -16 509 -16 625 0
459 65 873 233 1230 501 122 92 341 304 440 426 299 368 493 822 557 1305 16
123 16 509 0 625 -65 459 -233 873 -501 1230 -92 122 -304 341 -426 440 -365
297 -826 494 -1295 555 -116 15 -445 21 -555 9z m-656 -1781 c83 -112 244
-329 357 -483 114 -154 257 -347 318 -430 61 -82 134 -180 161 -217 27 -38 52
-68 56 -68 8 0 289 376 878 1177 l156 212 438 0 c348 1 437 -2 431 -11 -5 -7
-66 -91 -136 -185 l-128 -173 -129 0 -130 0 -237 -312 c-131 -172 -299 -394
-375 -493 -75 -99 -176 -232 -224 -295 -48 -63 -188 -249 -312 -412 -124 -164
-228 -298 -232 -298 -3 1 -103 130 -222 288 -119 158 -335 443 -480 633 -145
191 -358 471 -473 623 l-209 276 -131 0 -131 1 -131 177 c-72 97 -130 180
-127 185 2 4 197 7 433 7 l429 0 150 -202z" />
</g>
</svg>
