<svg width="17" height="14" viewBox="0 0 17 14" fill="none" xmlns="http://www.w3.org/2000/svg">
<path d="M13.7941 0.458496H2.7059C1.46657 0.458496 0.458313 1.46676 0.458313 2.70609V11.0971C0.458313 12.3364 1.46657 13.3447 2.7059 13.3447H13.7941C15.0334 13.3447 16.0416 12.3364 16.0416 11.0971V2.70609C16.0416 1.46676 15.0334 0.458496 13.7941 0.458496ZM15.1426 8.25016H11.8461C11.1026 8.25016 10.4976 7.64521 10.4976 6.9016C10.4976 6.15798 11.1025 5.55303 11.8461 5.55303H15.1426V8.25016ZM15.1426 4.654H11.8461C10.6068 4.654 9.59855 5.66226 9.59855 6.9016C9.59855 8.14093 10.6068 9.14919 11.8461 9.14919H15.1426V11.0971C15.1426 11.8407 14.5377 12.4457 13.7941 12.4457H2.7059C1.96232 12.4457 1.35734 11.8407 1.35734 11.0971V2.70609C1.35734 1.9625 1.96229 1.35752 2.7059 1.35752H13.7941C14.5376 1.35752 15.1426 1.96247 15.1426 2.70609V4.654Z" fill="black"/>
<path fill-rule="evenodd" clip-rule="evenodd" d="M2.70592 0H13.7941C15.2865 0 16.5 1.21346 16.5 2.70592V11.0969C16.5 12.5894 15.2865 13.8029 13.7941 13.8029H2.70592C1.21346 13.8029 0 12.5894 0 11.0969V2.70592C0 1.21346 1.21346 0 2.70592 0ZM11.8462 7.79167H14.6843V6.0112H11.8462C11.3557 6.0112 10.9559 6.41095 10.9559 6.90143C10.9559 7.39191 11.3557 7.79167 11.8462 7.79167ZM11.8462 4.19551H14.6843V2.70592C14.6843 2.21545 14.2845 1.81569 13.7941 1.81569H2.70592C2.21544 1.81569 1.81569 2.21546 1.81569 2.70592V11.0969C1.81569 11.5874 2.21546 11.9872 2.70592 11.9872H13.7941C14.2846 11.9872 14.6843 11.5874 14.6843 11.0969V9.60736H11.8462C10.3537 9.60736 9.14023 8.39389 9.14023 6.90143C9.14023 5.40897 10.3537 4.19551 11.8462 4.19551ZM2.70592 0.458333H13.7941C15.0334 0.458333 16.0417 1.46659 16.0417 2.70592V11.0969C16.0417 12.3363 15.0334 13.3445 13.7941 13.3445H2.70592C1.46659 13.3445 0.458333 12.3363 0.458333 11.0969V2.70592C0.458333 1.46659 1.46659 0.458333 2.70592 0.458333ZM15.1426 8.25V5.55287H11.8462C11.1025 5.55287 10.4976 6.15782 10.4976 6.90143C10.4976 7.64505 11.1026 8.25 11.8462 8.25H15.1426ZM15.1426 4.65384V2.70592C15.1426 1.96231 14.5377 1.35736 13.7941 1.35736H2.70592C1.96231 1.35736 1.35736 1.96234 1.35736 2.70592V11.0969C1.35736 11.8406 1.96234 12.4455 2.70592 12.4455H13.7941C14.5377 12.4455 15.1426 11.8405 15.1426 11.0969V9.14903H11.8462C10.6068 9.14903 9.59857 8.14076 9.59857 6.90143C9.59857 5.6621 10.6068 4.65384 11.8462 4.65384H15.1426Z" fill="black"/>
</svg>
