<svg width="10" height="9" viewBox="0 0 10 9" fill="none" xmlns="http://www.w3.org/2000/svg">
<path d="M4.96451 7.00943e-06C4.20267 -0.00113705 3.45361 0.199988 2.79073 0.583672C2.12784 0.967357 1.57388 1.52044 1.18312 2.18872C0.792367 2.857 0.578219 3.61756 0.561665 4.39586C0.54511 5.17416 0.726718 5.9435 1.08869 6.6285L0.581279 8.356C0.559298 8.43069 0.554719 8.50959 0.567909 8.58641C0.581099 8.66323 0.611691 8.73582 0.657241 8.7984C0.702791 8.86098 0.762035 8.9118 0.830239 8.94681C0.898442 8.98181 0.973713 9.00003 1.05004 9C1.09775 8.99993 1.14521 8.99285 1.19096 8.979L2.88152 8.4605C3.47158 8.78576 4.12653 8.96905 4.79644 8.9964C5.46634 9.02376 6.13352 8.89446 6.7471 8.61835C7.36068 8.34224 7.90446 7.92663 8.337 7.40318C8.76954 6.87974 9.0794 6.26228 9.24298 5.5979C9.40655 4.93351 9.41951 4.23973 9.28087 3.56945C9.14223 2.89917 8.85565 2.27008 8.44298 1.73015C8.03031 1.19022 7.50245 0.753696 6.89962 0.453862C6.2968 0.154028 5.63494 -0.00120209 4.96451 7.00943e-06ZM4.96451 2.00001C5.06128 2.00001 5.15588 2.02933 5.23635 2.08427C5.31682 2.13921 5.37953 2.2173 5.41657 2.30866C5.4536 2.40003 5.46329 2.50056 5.44441 2.59755C5.42553 2.69454 5.37893 2.78363 5.3105 2.85356C5.24207 2.92348 5.15488 2.9711 5.05997 2.9904C4.96505 3.00969 4.86666 2.99979 4.77726 2.96194C4.68785 2.9241 4.61143 2.86001 4.55766 2.77779C4.50389 2.69557 4.4752 2.5989 4.4752 2.50001C4.4752 2.3674 4.52675 2.24022 4.61851 2.14645C4.71028 2.05268 4.83473 2.00001 4.96451 2.00001ZM5.45381 7H4.96451C4.83473 7 4.71028 6.94732 4.61851 6.85356C4.52675 6.75979 4.4752 6.63261 4.4752 6.5V4.5C4.34542 4.5 4.22097 4.44733 4.1292 4.35356C4.03744 4.25979 3.98589 4.13261 3.98589 4C3.98589 3.8674 4.03744 3.74022 4.1292 3.64645C4.22097 3.55268 4.34542 3.5 4.4752 3.5H4.96451C5.09428 3.5 5.21874 3.55268 5.3105 3.64645C5.40226 3.74022 5.45381 3.8674 5.45381 4V6C5.58359 6 5.70804 6.05268 5.79981 6.14645C5.89157 6.24022 5.94312 6.36739 5.94312 6.5C5.94312 6.63261 5.89157 6.75979 5.79981 6.85356C5.70804 6.94732 5.58359 7 5.45381 7Z" fill="#5D717D"/>
</svg>
